{"glyphs":{"0":{"ha":750,"x_min":57,"x_max":667,"o":"m 667 440 q 651 268 667 349 q 598 128 635 188 q 504 33 562 68 q 361 -1 446 -1 q 220 33 277 -1 q 126 128 162 68 q 73 268 90 188 q 57 440 57 349 q 74 612 57 532 q 126 753 90 693 q 220 847 163 812 q 361 882 278 882 q 503 847 445 882 q 598 753 562 812 q 650 612 634 693 q 667 440 667 532 m 515 440 q 510 570 515 509 q 487 676 504 631 q 440 748 471 722 q 361 774 410 774 q 283 748 313 774 q 236 676 253 722 q 213 570 219 631 q 207 440 207 509 q 213 310 207 371 q 235 204 218 249 q 282 132 252 159 q 361 106 313 106 q 439 132 409 106 q 486 204 469 159 q 509 310 503 249 q 515 440 515 371 z "},"1":{"ha":750,"x_min":158,"x_max":498,"o":"m 357 0 l 357 686 q 314 654 339 670 q 260 624 288 638 q 205 599 233 610 q 158 582 178 588 l 158 715 q 211 744 181 725 q 270 784 241 763 q 321 825 298 806 q 353 856 345 845 l 498 856 l 498 0 l 357 0 z "},"2":{"ha":750,"x_min":58,"x_max":656,"o":"m 656 643 q 624 507 656 570 q 532 383 591 444 q 389 261 473 322 q 204 132 306 200 l 639 132 l 639 0 l 58 0 l 58 122 q 276 303 189 225 q 414 442 362 381 q 486 550 465 503 q 507 642 507 598 q 502 685 507 662 q 481 729 496 709 q 440 762 466 749 q 375 775 414 775 q 307 760 335 775 q 261 723 279 745 q 234 672 243 700 q 222 618 224 644 l 74 618 q 159 816 82 750 q 379 882 237 882 q 497 865 446 882 q 584 817 549 848 q 637 741 619 785 q 656 643 656 697 z "},"3":{"ha":750,"x_min":66,"x_max":656,"o":"m 656 257 q 638 164 656 210 q 582 82 620 118 q 486 23 545 45 q 345 0 427 0 q 209 23 262 0 q 124 80 155 45 q 79 158 92 115 q 66 241 66 201 l 215 241 q 226 189 216 213 q 254 146 236 164 q 296 117 271 127 q 351 107 321 107 q 410 118 382 107 q 460 148 438 128 q 494 194 481 167 q 507 256 507 222 q 501 295 507 269 q 478 346 495 320 q 433 390 462 371 q 359 408 404 408 l 283 408 l 283 503 q 398 516 357 503 q 460 552 439 530 q 487 600 481 574 q 492 650 492 626 q 486 698 492 674 q 466 741 479 722 q 429 771 452 760 q 371 783 406 783 q 270 752 303 783 q 232 659 236 722 l 83 659 q 109 756 86 714 q 169 826 132 798 q 257 868 207 854 q 364 882 307 882 q 472 867 421 882 q 559 823 522 852 q 618 751 597 794 q 640 650 640 707 q 626 571 640 603 q 590 519 612 540 q 541 485 568 498 q 485 461 513 471 q 542 438 512 454 q 598 398 572 423 q 640 339 623 374 q 656 257 656 304 z "},"4":{"ha":750,"x_min":50,"x_max":690,"o":"m 599 183 l 599 0 l 458 0 l 458 183 l 50 183 l 50 349 l 404 856 l 599 856 l 599 307 l 690 307 l 690 183 l 599 183 m 458 753 l 155 307 l 458 307 l 458 753 z "},"5":{"ha":750,"x_min":65,"x_max":640,"o":"m 640 293 q 623 188 640 240 q 567 94 605 136 q 469 26 528 52 q 326 0 410 0 q 230 12 271 0 q 160 44 189 24 q 113 89 131 64 q 84 138 94 113 q 69 185 73 163 q 65 224 65 208 l 199 224 q 211 177 201 200 q 238 137 221 155 q 279 109 256 119 q 334 98 303 98 q 404 114 374 98 q 453 155 434 129 q 482 217 473 181 q 492 293 492 252 q 483 366 492 333 q 457 421 475 398 q 410 456 439 444 q 340 468 381 468 q 279 458 304 468 q 235 433 253 449 q 207 395 218 416 q 192 350 197 374 l 83 350 l 100 857 l 581 857 l 581 725 l 204 725 l 195 489 q 236 525 216 510 q 279 549 257 540 q 327 563 302 559 q 379 567 351 567 q 492 544 443 567 q 574 482 541 520 q 624 394 607 444 q 640 293 640 345 z "},"6":{"ha":750,"x_min":57,"x_max":673,"o":"m 673 298 q 647 165 673 221 q 577 72 621 109 q 477 18 534 35 q 361 0 420 0 q 246 19 301 0 q 149 85 191 37 q 82 214 107 132 q 57 422 57 296 q 81 636 57 549 q 149 779 106 724 q 252 857 192 833 q 383 882 312 882 q 488 866 441 882 q 570 822 536 850 q 622 757 604 794 q 640 676 640 720 l 493 676 q 488 716 493 695 q 470 753 483 736 q 436 781 457 770 q 383 791 415 791 q 317 780 347 791 q 267 736 288 768 q 230 645 245 703 q 204 493 214 587 q 237 524 218 509 q 281 550 256 539 q 337 568 306 562 q 406 575 368 575 q 465 569 434 575 q 526 549 496 563 q 583 514 556 536 q 630 462 610 493 q 662 391 650 431 q 673 298 673 350 m 526 292 q 514 367 526 332 q 480 428 501 402 q 429 470 458 454 q 367 485 400 485 q 305 470 334 485 q 254 428 276 454 q 219 367 232 402 q 207 292 207 332 q 219 216 207 252 q 254 154 232 180 q 305 112 276 127 q 367 97 334 97 q 429 112 400 97 q 480 154 458 127 q 514 216 501 180 q 526 292 526 252 z "},"7":{"ha":750,"x_min":75,"x_max":640,"o":"m 357 0 l 171 0 l 519 725 l 75 725 l 75 857 l 640 857 l 640 725 l 357 0 z "},"8":{"ha":750,"x_min":57,"x_max":657,"o":"m 657 244 q 635 147 657 192 q 573 70 613 102 q 479 19 534 37 q 359 0 425 0 q 234 19 290 0 q 138 70 178 37 q 78 148 99 103 q 57 244 57 192 q 68 315 57 281 q 104 378 80 349 q 165 429 128 407 q 252 463 201 450 q 172 492 205 473 q 116 537 138 511 q 83 595 94 564 q 72 664 72 627 q 92 749 72 709 q 149 818 112 789 q 238 865 186 848 q 357 882 291 882 q 480 865 427 882 q 569 818 533 848 q 623 749 605 789 q 642 664 642 709 q 634 601 642 632 q 606 543 626 570 q 553 495 587 516 q 469 464 520 475 q 553 430 518 452 q 612 379 589 408 q 646 316 635 350 q 657 244 657 281 m 503 652 q 491 713 503 687 q 460 756 479 739 q 414 782 440 773 q 358 790 388 790 q 302 781 328 790 q 257 754 277 772 q 226 710 237 736 q 215 652 215 684 q 226 594 215 620 q 257 551 237 569 q 302 524 277 533 q 358 514 328 514 q 414 524 388 514 q 460 551 440 533 q 491 594 479 569 q 503 652 503 620 m 518 256 q 506 321 518 293 q 472 369 494 350 q 422 397 451 388 q 359 407 393 407 q 296 397 325 407 q 245 368 267 387 q 211 320 223 349 q 199 254 199 292 q 212 184 199 214 q 248 135 226 155 q 299 106 271 116 q 357 97 327 97 q 416 107 387 97 q 468 136 445 117 q 504 186 490 156 q 518 256 518 216 z "},"9":{"ha":750,"x_min":57,"x_max":673,"o":"m 673 460 q 649 245 673 333 q 582 103 625 158 q 479 24 539 49 q 347 0 419 0 q 242 16 290 0 q 162 60 195 32 q 110 125 128 88 q 92 205 92 163 l 239 205 q 244 166 239 186 q 261 130 249 146 q 295 102 274 113 q 347 92 316 92 q 413 103 384 92 q 464 146 442 114 q 502 237 486 179 q 528 389 517 295 q 495 358 514 372 q 450 332 475 343 q 394 314 425 321 q 325 307 362 307 q 265 313 296 307 q 204 333 234 319 q 148 368 174 347 q 101 420 121 389 q 69 491 81 450 q 57 583 57 532 q 83 718 57 661 q 153 810 110 774 q 253 864 197 847 q 370 882 309 882 q 448 874 410 882 q 520 847 486 866 q 582 798 553 829 q 630 719 610 766 q 662 608 651 672 q 673 460 673 544 m 524 591 q 511 667 524 631 q 477 728 498 702 q 427 769 456 754 q 364 785 397 785 q 302 769 332 785 q 252 728 273 754 q 218 667 231 702 q 205 591 205 631 q 218 516 205 551 q 252 454 231 481 q 302 413 273 428 q 364 397 332 397 q 427 413 397 397 q 477 454 456 428 q 511 516 498 481 q 524 591 524 551 z "}," ":{"ha":625,"x_min":0,"x_max":0,"o":""},"\t":{"ha":435,"x_min":0,"x_max":0,"o":""},"!":{"ha":750,"x_min":228,"x_max":440,"o":"m 425 750 q 422 689 425 718 q 413 623 418 659 l 366 278 l 300 278 l 256 596 q 250 640 252 620 q 244 679 247 661 q 240 715 241 697 q 239 751 239 732 q 263 869 239 832 q 334 907 288 907 q 373 899 356 907 q 402 873 390 891 q 419 824 414 854 q 425 750 425 794 m 440 107 q 432 65 440 85 q 410 31 424 45 q 376 8 395 17 q 335 0 357 0 q 293 8 313 0 q 259 31 273 17 q 236 65 245 45 q 228 107 228 85 q 236 148 228 129 q 259 182 245 168 q 293 204 273 196 q 335 212 313 212 q 376 204 357 212 q 410 182 395 196 q 432 148 424 168 q 440 107 440 129 z "},"\"":{"ha":631,"x_min":115,"x_max":515,"o":"m 515 856 q 512 809 515 841 q 500 725 509 777 l 461 519 l 427 519 l 389 725 q 376 799 380 770 q 372 846 372 829 q 391 910 372 890 q 444 930 410 930 q 474 924 461 930 q 497 908 488 918 q 511 884 506 898 q 515 856 515 871 m 257 854 q 252 809 257 841 q 237 726 247 777 l 199 519 l 170 519 l 131 728 q 119 800 122 770 q 115 846 115 829 q 120 886 115 869 q 135 912 125 902 q 157 926 144 922 q 184 930 170 930 q 237 910 216 930 q 257 854 257 889 z "},"#":{"ha":1032,"x_min":86,"x_max":947,"o":"m 728 585 l 663 386 l 886 386 l 886 317 l 637 317 l 521 -32 l 452 -9 l 559 317 l 358 317 l 240 -32 l 172 -8 l 283 317 l 86 317 l 86 386 l 306 386 l 374 585 l 149 585 l 149 656 l 397 656 l 509 983 l 579 961 l 472 656 l 675 656 l 785 983 l 859 961 l 753 656 l 947 656 l 947 585 l 728 585 m 450 585 l 382 386 l 583 386 l 652 585 l 450 585 z "},"$":{"ha":750,"x_min":60,"x_max":669,"o":"m 669 240 q 655 169 669 203 q 615 104 641 134 q 551 50 589 74 q 467 14 513 26 l 467 -71 l 392 -71 l 392 1 q 374 0 383 0 l 338 0 l 338 -71 l 262 -71 l 262 12 q 182 47 218 24 q 118 103 145 71 q 76 179 91 136 q 61 272 61 221 l 189 272 q 208 191 189 229 q 262 127 227 152 l 262 432 q 181 465 218 446 q 117 511 144 484 q 75 572 90 537 q 60 654 60 608 q 75 733 60 698 q 116 796 90 768 q 180 842 143 823 q 262 871 218 861 l 262 953 l 338 953 l 338 880 l 377 880 q 392 879 385 880 l 392 953 l 467 953 l 467 868 q 540 839 506 858 q 600 794 574 821 q 642 732 625 767 q 663 656 658 698 l 549 656 q 522 719 543 690 q 467 766 500 748 l 467 479 q 617 386 566 446 q 669 240 669 326 m 392 396 l 338 412 l 338 100 q 348 98 343 98 l 375 98 q 392 100 383 98 l 392 396 m 392 501 q 392 591 392 547 q 391 674 391 636 q 390 743 391 713 q 387 790 389 773 l 384 790 q 371 792 377 791 q 358 793 365 793 l 338 793 l 338 519 q 363 510 350 514 q 392 501 377 506 m 262 775 q 209 727 226 758 q 192 659 192 696 q 195 626 192 641 q 206 598 198 612 q 228 573 214 585 q 262 550 241 562 l 262 775 m 532 249 q 517 309 532 281 q 467 359 503 336 l 467 126 q 516 181 501 148 q 532 249 532 214 z "},"%":{"ha":1096,"x_min":60,"x_max":1036,"o":"m 1036 222 q 1020 122 1036 165 q 975 52 1003 80 q 907 10 946 24 q 825 -4 869 -4 q 744 10 782 -4 q 677 52 705 24 q 632 122 648 80 q 615 222 615 165 q 632 322 615 279 q 677 393 648 365 q 744 435 705 421 q 825 449 782 449 q 907 435 869 449 q 975 393 946 421 q 1020 322 1003 365 q 1036 222 1036 279 m 371 -17 l 233 -17 l 736 869 l 873 869 l 371 -17 m 481 631 q 464 531 481 574 q 419 460 448 488 q 351 418 390 432 q 269 404 313 404 q 188 418 226 404 q 121 460 150 432 q 76 531 93 488 q 60 631 60 574 q 76 730 60 688 q 121 801 93 773 q 188 843 150 829 q 269 857 226 857 q 351 843 313 857 q 419 801 390 829 q 464 730 448 773 q 481 631 481 688 m 921 222 q 917 278 921 253 q 901 321 912 303 q 872 349 890 339 q 825 358 853 358 q 780 349 798 358 q 750 321 761 339 q 734 278 739 303 q 729 222 729 253 q 733 167 729 192 q 749 125 738 142 q 778 97 760 107 q 825 87 797 87 q 872 97 853 87 q 901 125 890 107 q 917 167 912 142 q 921 222 921 192 m 366 631 q 361 686 366 661 q 346 729 357 711 q 316 757 334 747 q 269 766 298 766 q 224 757 242 766 q 194 729 205 747 q 178 686 183 711 q 174 631 174 661 q 178 575 174 600 q 193 533 182 551 q 222 506 203 515 q 269 496 241 496 q 316 506 298 496 q 346 533 334 515 q 361 575 357 551 q 366 631 366 600 z "},"&":{"ha":971,"x_min":54,"x_max":943,"o":"m 688 0 l 688 33 l 625 103 q 569 60 598 81 q 506 22 540 39 q 432 -6 472 5 q 343 -17 392 -17 q 231 4 283 -17 q 139 61 178 24 q 77 148 100 98 q 54 258 54 199 q 68 341 54 304 q 106 409 81 379 q 165 463 131 439 q 240 503 199 486 l 234 509 q 202 542 221 522 q 166 588 183 562 q 136 647 149 614 q 123 715 123 679 q 143 811 123 768 q 199 885 163 854 q 283 933 235 916 q 387 950 331 950 q 485 934 440 950 q 562 890 530 918 q 613 824 595 863 q 632 741 632 786 q 614 652 632 690 q 568 585 597 614 q 503 535 539 557 q 428 497 466 514 l 661 245 q 685 279 671 258 q 710 323 699 300 q 731 369 722 347 q 739 410 739 392 q 732 425 739 416 q 715 435 724 433 l 640 446 l 640 504 l 925 504 l 925 446 l 825 431 q 801 362 815 395 q 771 299 787 329 q 739 243 755 269 q 707 196 722 217 l 819 66 l 943 60 l 943 0 l 688 0 m 504 732 q 496 789 504 762 q 472 837 488 816 q 431 869 456 857 q 374 882 407 882 q 322 871 345 882 q 283 844 299 861 q 258 802 267 826 q 249 751 249 779 q 260 692 249 720 q 288 640 271 664 q 326 595 305 616 q 365 557 347 574 l 378 545 q 432 577 408 559 q 471 618 455 595 q 495 669 487 641 q 504 732 504 697 m 294 463 q 255 431 273 448 q 224 393 237 414 q 202 347 210 372 q 195 290 195 321 q 210 204 195 243 q 253 135 226 164 q 317 90 280 106 q 396 74 354 74 q 454 80 428 74 q 502 98 480 87 q 544 122 524 109 q 581 151 563 136 l 294 463 z "},"'":{"ha":261,"x_min":60,"x_max":201,"o":"m 201 856 q 196 811 201 843 q 182 726 191 779 l 144 519 l 113 519 l 75 728 q 63 801 66 772 q 60 846 60 830 q 76 910 60 890 q 126 930 93 930 q 160 923 146 930 q 183 905 174 916 q 197 881 193 895 q 201 856 201 868 z "},"(":{"ha":461,"x_min":83,"x_max":378,"o":"m 378 -5 q 372 -22 378 -16 q 351 -28 366 -28 q 308 -8 334 -28 q 251 45 281 11 q 191 126 221 80 q 137 228 161 173 q 98 343 113 283 q 83 464 83 403 q 98 585 83 525 q 136 700 113 645 q 189 801 159 754 q 249 881 219 847 q 307 935 279 916 q 355 954 335 954 q 371 949 364 954 q 378 930 378 944 q 367 904 378 918 q 340 870 356 891 q 304 819 323 850 q 269 740 285 788 q 241 624 252 692 q 231 461 231 556 q 241 299 231 366 q 269 185 252 232 q 304 108 285 138 q 340 58 323 78 q 367 23 356 37 q 378 -5 378 9 z "},")":{"ha":461,"x_min":83,"x_max":378,"o":"m 378 463 q 363 341 378 401 q 325 227 349 281 q 272 126 302 172 q 212 45 242 79 q 154 -8 182 11 q 106 -28 125 -28 q 90 -23 97 -28 q 83 -4 83 -18 q 94 22 83 9 q 121 56 105 35 q 157 107 138 77 q 193 186 176 138 q 220 302 209 234 q 231 465 231 370 q 220 627 231 560 q 193 741 209 694 q 157 818 176 788 q 121 869 138 848 q 94 903 105 889 q 83 932 83 917 q 89 948 83 943 q 110 954 95 954 q 154 935 127 954 q 210 881 180 916 q 270 800 240 846 q 324 699 300 753 q 363 584 348 644 q 378 463 378 524 z "},"*":{"ha":676,"x_min":69,"x_max":582,"o":"m 579 794 q 582 774 582 787 q 579 753 582 764 q 570 730 576 741 q 554 710 564 720 q 528 696 543 701 q 494 691 513 691 q 465 693 479 691 q 437 698 450 695 q 414 703 424 701 q 398 705 404 705 q 396 704 397 705 q 395 704 395 704 q 378 690 378 699 q 385 675 378 684 q 402 665 387 671 q 435 652 416 660 q 473 632 454 644 q 503 606 492 621 q 514 585 511 595 q 517 564 517 574 q 506 522 517 541 q 485 496 496 503 q 465 486 477 490 q 439 482 453 482 q 406 489 422 482 q 376 514 389 496 q 360 550 366 529 q 351 590 354 570 q 346 624 348 609 q 342 643 345 639 q 327 654 335 654 q 311 643 319 654 q 308 624 309 640 q 305 588 307 608 q 298 546 303 568 q 281 509 293 525 q 253 486 269 492 q 220 479 236 479 q 192 483 205 479 q 172 492 180 486 q 151 517 161 499 q 140 558 140 536 q 144 580 140 569 q 155 603 147 591 q 184 629 166 618 q 220 649 202 641 q 252 664 238 658 q 268 675 265 670 q 274 690 274 683 q 257 704 274 699 q 242 701 252 704 q 217 695 231 699 q 187 688 203 691 q 155 686 171 686 q 121 690 136 686 q 97 704 106 695 q 81 724 87 713 q 72 747 75 735 q 69 768 69 758 q 72 789 69 781 q 80 806 74 797 q 96 824 87 816 q 119 838 106 832 q 146 843 132 843 q 171 839 159 843 q 206 820 189 833 q 237 792 223 806 q 260 767 250 778 q 275 754 271 755 q 284 753 279 753 q 300 772 300 753 q 291 790 300 777 q 272 820 282 803 q 253 858 262 838 q 244 899 244 879 q 253 933 244 918 q 274 957 262 947 q 300 972 287 967 q 323 977 314 977 q 346 972 333 977 q 372 958 359 967 q 393 933 384 948 q 401 897 401 918 q 394 858 401 878 q 377 821 386 838 q 360 790 368 804 q 353 772 353 777 q 356 758 353 763 q 367 752 359 752 q 378 754 372 752 q 391 768 382 755 q 414 795 401 780 q 445 825 428 810 q 481 846 462 840 q 503 850 492 850 q 530 844 517 850 q 553 830 543 838 q 570 811 563 821 q 579 794 576 802 z "},"+":{"ha":815,"x_min":85,"x_max":733,"o":"m 479 325 l 479 75 l 334 75 l 334 325 l 85 325 l 85 472 l 334 472 l 334 721 l 479 721 l 479 472 l 733 472 l 733 325 l 479 325 z "},",":{"ha":472,"x_min":102,"x_max":332,"o":"m 332 61 q 320 -22 332 17 q 290 -94 309 -61 q 249 -152 272 -126 q 202 -195 226 -177 q 158 -222 179 -213 q 122 -232 136 -232 q 106 -227 111 -232 q 102 -215 102 -222 q 110 -202 102 -211 q 131 -180 117 -194 q 193 -98 173 -140 q 212 0 212 -56 q 172 6 191 0 q 140 25 154 12 q 119 56 127 37 q 111 100 111 75 q 118 145 111 125 q 139 181 125 166 q 173 204 153 196 q 216 212 192 212 q 262 205 241 212 q 299 182 283 199 q 323 136 314 165 q 332 61 332 106 z "},"-":{"ha":510,"x_min":83,"x_max":425,"o":"m 83 268 l 83 370 l 425 370 l 425 268 l 83 268 z "},".":{"ha":443,"x_min":82,"x_max":296,"o":"m 296 107 q 288 65 296 85 q 265 31 279 45 q 231 8 250 17 q 189 0 212 0 q 147 8 167 0 q 113 31 127 17 q 90 65 98 45 q 82 107 82 85 q 90 149 82 130 q 113 183 98 168 q 147 205 127 197 q 189 214 167 214 q 231 205 212 214 q 265 183 250 197 q 288 149 279 168 q 296 107 296 130 z "},"/":{"ha":566,"x_min":0,"x_max":564,"o":"m 151 -8 l 0 -7 l 414 972 l 564 972 l 151 -8 z "},":":{"ha":389,"x_min":85,"x_max":272,"o":"m 272 593 q 264 557 272 574 q 244 527 257 540 q 214 507 231 515 q 178 500 197 500 q 141 507 158 500 q 112 527 125 515 q 92 557 99 540 q 85 593 85 574 q 92 629 85 612 q 112 659 99 646 q 141 679 125 671 q 178 686 158 686 q 214 679 197 686 q 244 659 231 671 q 264 629 257 646 q 272 593 272 612 m 272 77 q 264 40 272 57 q 244 11 257 23 q 214 -9 231 -2 q 178 -17 197 -17 q 141 -9 158 -17 q 112 11 125 -2 q 92 40 99 23 q 85 77 85 57 q 92 113 85 96 q 112 142 99 130 q 141 162 125 155 q 178 170 158 170 q 214 162 197 170 q 244 142 231 155 q 264 113 257 130 q 272 77 272 96 z "},";":{"ha":389,"x_min":45,"x_max":286,"o":"m 271 593 q 263 557 271 574 q 243 527 256 540 q 214 507 231 515 q 178 500 197 500 q 141 507 158 500 q 112 527 125 515 q 92 557 99 540 q 85 593 85 574 q 92 629 85 612 q 113 659 100 646 q 142 679 125 671 q 179 686 159 686 q 215 679 198 686 q 244 659 232 671 q 263 629 256 646 q 271 593 271 612 m 286 14 q 266 -82 286 -39 q 213 -159 246 -126 q 136 -212 179 -192 q 45 -236 92 -232 l 45 -186 q 110 -164 81 -178 q 157 -129 138 -151 q 187 -74 177 -106 q 197 5 197 -41 l 197 9 l 110 9 q 104 16 109 11 q 96 29 100 21 q 88 48 92 37 q 85 74 85 60 q 91 109 85 92 q 109 140 98 126 q 136 161 121 153 q 171 170 152 170 q 222 158 201 170 q 258 125 244 146 q 279 76 273 104 q 286 14 286 47 z "},"<":{"ha":1157,"x_min":179,"x_max":978,"o":"m 179 378 l 179 449 l 978 777 l 978 690 l 300 414 l 978 139 l 978 52 l 179 378 z "},"=":{"ha":823,"x_min":102,"x_max":721,"o":"m 102 473 l 102 619 l 721 619 l 721 473 l 102 473 m 102 178 l 102 323 l 721 323 l 721 178 l 102 178 z "},">":{"ha":1157,"x_min":179,"x_max":978,"o":"m 179 52 l 179 139 l 857 414 l 179 690 l 179 777 l 978 449 l 978 378 l 179 52 z "},"?":{"ha":814,"x_min":119,"x_max":564,"o":"m 564 694 q 550 615 564 651 q 515 548 536 580 q 469 488 494 517 q 424 432 445 460 q 389 374 403 404 q 375 313 375 345 q 376 303 375 309 q 378 292 376 297 l 380 278 l 296 279 q 276 332 283 304 q 268 400 268 359 q 276 454 268 427 q 296 506 284 481 q 323 555 309 532 q 349 601 337 579 q 370 641 361 622 q 378 676 378 660 q 354 736 378 712 q 288 760 330 760 q 253 754 267 760 q 228 741 238 749 q 212 723 218 733 q 203 704 206 713 l 153 704 q 128 738 137 718 q 119 774 119 758 q 131 818 119 794 q 169 861 143 841 q 234 893 194 880 q 330 907 274 907 q 430 889 387 907 q 504 841 474 871 q 548 773 533 811 q 564 694 564 734 m 440 107 q 432 65 440 85 q 410 31 424 45 q 376 8 395 17 q 335 0 357 0 q 293 8 313 0 q 259 31 273 17 q 236 65 245 45 q 228 107 228 85 q 236 148 228 129 q 259 182 245 168 q 293 204 273 196 q 335 212 313 212 q 376 204 357 212 q 410 182 395 196 q 432 148 424 168 q 440 107 440 129 z "},"@":{"ha":1300,"x_min":102,"x_max":1200,"o":"m 1200 518 q 1184 388 1200 448 q 1143 279 1169 328 q 1083 192 1117 230 q 1011 129 1048 155 q 935 91 973 104 q 861 78 896 78 q 778 107 804 78 q 753 193 753 136 q 649 109 699 138 q 551 79 600 79 q 481 95 513 79 q 427 141 450 111 q 391 212 404 170 q 378 306 378 254 q 407 454 378 385 q 485 574 437 524 q 596 654 534 625 q 724 684 658 684 q 756 681 739 684 q 792 673 774 678 q 827 661 810 668 q 860 646 844 654 l 885 677 l 962 677 q 956 653 961 673 q 945 604 951 633 q 929 537 938 574 q 913 463 921 500 q 868 265 892 375 q 862 221 862 241 q 876 174 862 191 q 920 157 890 157 q 987 182 950 157 q 1057 254 1025 207 q 1110 367 1088 300 q 1132 517 1132 434 q 1099 686 1132 614 q 1011 805 1065 758 q 886 876 956 852 q 743 899 817 899 q 593 880 664 899 q 462 827 522 861 q 354 744 402 793 q 272 635 305 695 q 220 504 238 574 q 201 357 201 434 q 234 159 201 251 q 330 1 267 68 q 482 -105 392 -66 q 688 -143 572 -143 q 802 -134 749 -143 q 900 -109 854 -124 q 984 -76 945 -94 q 1054 -40 1022 -58 l 1074 -90 q 978 -137 1027 -115 q 877 -176 929 -159 q 770 -202 825 -193 q 654 -212 715 -212 q 510 -195 580 -212 q 379 -146 440 -178 q 267 -67 317 -114 q 179 41 216 -20 q 122 174 142 101 q 102 332 102 248 q 126 521 102 435 q 195 677 151 608 q 297 800 238 747 q 426 888 357 853 q 571 942 495 924 q 725 960 648 960 q 915 931 828 960 q 1065 846 1002 902 q 1164 708 1128 790 q 1200 518 1200 625 m 811 546 q 812 551 812 547 q 805 573 812 560 q 788 597 799 586 q 762 617 777 609 q 729 625 747 625 q 636 601 677 625 q 566 535 595 577 q 521 438 536 494 q 505 318 505 382 q 533 205 505 243 q 614 168 562 168 q 658 177 637 168 q 697 200 679 186 q 730 229 715 214 q 755 258 745 245 l 811 546 z "},"A":{"ha":936,"x_min":7,"x_max":929,"o":"m 599 0 l 599 60 l 679 66 q 689 74 684 66 q 694 87 694 81 q 693 90 694 90 l 597 345 l 277 345 l 184 94 q 184 90 184 93 q 191 74 184 82 q 204 66 198 66 l 286 60 l 286 0 l 7 0 l 7 60 l 87 77 l 411 954 l 515 954 l 838 97 q 847 78 842 83 q 867 71 851 73 l 929 60 l 929 0 l 599 0 m 436 775 l 301 411 l 572 411 l 436 775 z "},"B":{"ha":840,"x_min":45,"x_max":786,"o":"m 786 275 q 770 177 786 219 q 727 104 754 134 q 664 53 700 73 q 590 21 629 33 q 510 5 551 9 q 433 0 470 0 l 45 0 l 45 60 l 118 65 q 140 76 133 66 q 147 96 147 85 l 147 836 q 140 856 147 846 q 118 867 133 865 l 45 872 l 45 932 l 416 932 q 558 917 499 932 q 656 872 618 901 q 711 802 694 843 q 729 708 729 760 q 709 619 729 656 q 660 557 690 583 q 595 517 630 532 q 529 494 559 503 q 622 483 576 494 q 704 446 667 472 q 763 378 741 420 q 786 275 786 336 m 635 264 q 578 403 635 359 q 411 447 522 447 q 373 446 394 447 q 334 443 353 444 q 302 440 316 441 q 286 439 289 439 l 286 72 q 319 70 303 71 q 348 68 333 68 q 372 68 362 68 q 495 80 446 68 q 576 117 545 92 q 621 178 608 141 q 635 264 635 214 m 579 699 q 526 824 579 781 q 366 868 473 868 q 342 867 355 868 q 318 866 330 867 q 298 865 307 865 q 286 864 290 864 l 286 513 q 305 512 296 512 q 321 511 313 511 l 336 511 q 451 524 404 511 q 526 560 497 536 q 567 619 554 584 q 579 699 579 654 z "},"C":{"ha":871,"x_min":54,"x_max":817,"o":"m 817 32 q 790 22 814 31 q 728 4 766 14 q 641 -14 690 -6 q 539 -22 592 -22 q 395 -4 461 -22 q 275 48 329 15 q 180 127 221 81 q 111 228 139 174 q 68 343 83 282 q 54 468 54 404 q 90 665 54 576 q 189 819 125 755 q 342 919 252 883 q 541 954 431 954 q 606 950 574 954 q 670 940 637 947 q 739 923 703 933 q 817 900 774 913 l 817 682 l 733 682 l 713 808 q 703 828 710 820 q 689 840 695 837 l 684 843 q 661 853 675 847 q 630 864 648 859 q 592 872 613 869 q 547 876 571 876 q 415 850 476 876 q 309 772 354 823 q 239 644 264 720 q 214 468 214 568 q 238 294 214 371 q 307 164 262 218 q 418 82 353 111 q 566 54 483 54 q 610 58 590 54 q 645 65 630 61 q 668 74 660 70 q 677 78 676 77 q 695 90 688 82 q 704 106 702 97 l 736 257 l 817 257 l 817 32 z "},"D":{"ha":966,"x_min":45,"x_max":913,"o":"m 913 468 q 901 349 913 408 q 865 239 890 291 q 803 143 841 186 q 711 67 764 99 q 587 18 657 35 q 431 0 517 0 l 45 0 l 45 60 l 118 65 q 141 76 133 66 q 149 96 149 85 l 149 836 q 141 856 149 846 q 118 867 133 865 l 45 872 l 45 932 l 403 932 q 606 904 512 932 q 767 820 699 877 q 874 675 836 763 q 913 468 913 588 m 755 465 q 730 651 755 574 q 657 775 705 727 q 544 844 610 823 q 395 865 477 865 l 289 865 l 289 66 l 401 68 q 547 91 481 68 q 659 160 612 113 q 730 283 705 208 q 755 465 755 358 z "},"E":{"ha":810,"x_min":45,"x_max":765,"o":"m 45 0 l 45 60 l 117 65 q 139 76 132 66 q 147 96 147 85 l 147 836 q 139 856 147 846 q 117 867 132 865 l 45 872 l 45 932 l 720 932 l 720 725 l 636 725 l 615 839 q 607 857 614 849 q 590 865 600 865 l 289 865 l 289 519 l 497 519 q 514 528 507 519 q 522 543 522 536 l 536 639 l 607 639 l 607 329 l 536 329 l 522 425 q 514 441 522 433 q 497 450 506 450 l 289 450 l 289 68 l 640 68 q 656 77 649 68 q 665 94 664 87 l 690 232 l 765 232 l 765 0 l 45 0 z "},"F":{"ha":751,"x_min":35,"x_max":710,"o":"m 628 711 l 608 839 q 600 857 606 849 q 585 864 594 864 l 289 864 l 289 503 l 501 503 q 518 511 511 503 q 526 528 525 520 l 539 625 l 608 625 l 608 313 l 539 313 l 526 410 q 517 426 525 417 q 501 435 510 435 l 289 435 l 289 96 q 296 76 289 85 q 318 65 303 66 l 411 60 l 411 0 l 46 0 l 46 60 l 119 65 q 141 76 134 66 q 149 96 149 85 l 149 836 q 141 856 149 846 q 119 867 134 865 l 35 872 l 35 932 l 710 932 l 710 711 l 628 711 z "},"G":{"ha":965,"x_min":54,"x_max":930,"o":"m 860 383 q 838 373 845 382 q 831 354 831 365 l 831 33 q 741 5 789 18 q 648 -14 701 -5 q 539 -22 595 -22 q 396 -4 462 -22 q 276 47 330 14 q 180 126 222 81 q 111 227 139 172 q 68 342 83 281 q 54 468 54 404 q 89 667 54 577 q 189 821 123 757 q 347 919 254 884 q 557 954 440 954 q 625 950 592 954 q 688 941 658 947 q 748 928 719 935 l 806 913 l 829 907 l 829 682 l 746 682 l 724 807 q 713 828 722 819 q 696 840 705 836 q 688 844 693 841 q 663 854 677 848 q 631 864 648 859 q 594 873 614 869 q 551 876 574 876 q 414 850 476 876 q 307 772 351 823 q 237 647 262 722 q 212 475 212 572 q 237 297 212 375 q 309 165 262 219 q 421 84 355 112 q 568 56 487 56 q 612 59 591 56 q 650 66 633 62 q 677 73 666 70 q 690 77 688 77 l 690 354 q 683 373 690 365 q 661 383 676 382 l 568 390 l 568 450 l 930 450 l 930 390 l 860 383 z "},"H":{"ha":1032,"x_min":45,"x_max":987,"o":"m 636 0 l 636 60 l 715 65 q 737 76 730 66 q 745 96 745 85 l 745 454 l 288 454 l 288 96 q 295 76 288 85 q 317 65 302 66 l 396 60 l 396 0 l 45 0 l 45 60 l 117 65 q 139 76 132 66 q 147 96 147 85 l 147 836 q 139 855 147 846 q 117 865 132 864 l 45 871 l 45 932 l 396 932 l 396 871 l 317 865 q 295 855 302 864 q 288 836 288 846 l 288 524 l 745 524 l 745 836 q 737 855 745 846 q 715 865 730 864 l 636 871 l 636 932 l 987 932 l 987 871 l 916 865 q 893 855 901 864 q 885 836 885 846 l 885 96 q 893 76 885 85 q 916 65 901 66 l 987 60 l 987 0 l 636 0 z "},"I":{"ha":458,"x_min":46,"x_max":412,"o":"m 46 0 l 46 60 l 129 65 q 151 76 144 66 q 158 96 158 85 l 158 836 q 151 855 158 846 q 129 865 144 864 l 46 871 l 46 932 l 412 932 l 412 871 l 328 865 q 306 855 313 864 q 298 836 298 846 l 298 96 q 306 76 298 85 q 328 65 313 66 l 412 60 l 412 0 l 46 0 z "},"J":{"ha":673,"x_min":35,"x_max":637,"o":"m 557 867 q 535 856 543 865 q 528 836 528 846 l 528 351 q 511 195 528 264 q 459 78 495 126 q 365 4 423 30 q 222 -22 307 -22 q 156 -17 189 -22 q 98 -4 123 -11 q 55 9 72 3 q 35 17 37 16 l 35 254 l 118 254 l 149 85 q 157 67 151 75 q 172 56 163 60 q 192 51 181 52 q 212 49 202 49 q 293 67 260 49 q 347 122 326 85 q 378 214 368 159 q 387 342 387 269 l 387 836 q 380 856 387 846 q 358 867 373 865 l 271 872 l 271 932 l 637 932 l 637 872 l 557 867 z "},"K":{"ha":886,"x_min":45,"x_max":886,"o":"m 643 0 l 643 43 l 385 414 l 288 414 l 288 96 q 295 76 288 85 q 318 65 303 66 l 397 60 l 397 0 l 45 0 l 45 60 l 118 65 q 140 76 133 66 q 147 96 147 85 l 147 836 q 140 856 147 846 q 118 867 133 865 l 45 872 l 45 932 l 397 932 l 397 872 l 318 867 q 295 856 303 865 q 288 836 288 846 l 288 472 l 338 472 l 640 842 q 643 849 643 844 q 639 860 643 854 q 629 865 635 865 l 558 872 l 558 932 l 852 932 l 852 872 q 808 867 828 870 q 777 864 791 865 q 758 861 762 862 l 475 522 l 786 66 l 886 60 l 886 0 l 643 0 z "},"L":{"ha":737,"x_min":37,"x_max":713,"o":"m 37 0 l 37 60 l 118 65 q 140 76 133 66 q 147 96 147 85 l 147 836 q 140 856 147 846 q 118 867 133 865 l 37 872 l 37 932 l 392 932 l 392 872 l 318 867 q 295 856 303 865 q 288 836 288 846 l 288 68 l 579 68 q 598 75 589 68 q 610 92 608 82 l 632 258 l 713 258 l 713 0 l 37 0 z "},"M":{"ha":1217,"x_min":40,"x_max":1174,"o":"m 823 0 l 823 60 l 897 65 q 920 76 912 66 q 928 96 928 85 l 928 861 l 608 0 l 539 0 l 231 848 l 231 96 q 238 76 231 85 q 261 65 246 66 l 340 60 l 340 0 l 40 0 l 40 60 l 119 65 q 141 76 134 66 q 149 96 149 85 l 149 836 q 141 856 149 846 q 119 867 134 865 l 40 872 l 40 932 l 351 932 l 351 895 l 603 212 l 854 890 l 854 932 l 1174 932 l 1174 872 l 1099 867 q 1076 856 1084 865 q 1068 836 1068 846 l 1068 96 q 1076 76 1068 85 q 1099 65 1084 66 l 1174 60 l 1174 0 l 823 0 z "},"N":{"ha":1002,"x_min":35,"x_max":961,"o":"m 884 867 q 862 856 869 865 q 854 836 854 846 l 854 0 l 746 0 l 229 778 l 229 96 q 236 76 229 85 q 258 65 243 66 l 338 60 l 338 0 l 37 0 l 37 60 l 117 65 q 139 76 132 66 q 147 96 147 85 l 147 836 q 139 856 147 846 q 117 867 132 865 l 35 872 l 35 932 l 310 932 l 310 897 l 772 199 l 772 836 q 765 856 772 846 q 743 867 758 865 l 664 872 l 664 932 l 961 932 l 961 872 l 884 867 z "},"O":{"ha":1015,"x_min":54,"x_max":961,"o":"m 961 465 q 928 275 961 364 q 837 120 896 186 q 694 16 777 54 q 509 -22 610 -22 q 322 15 406 -22 q 179 117 239 52 q 87 272 119 183 q 54 467 54 361 q 86 657 54 568 q 177 812 118 746 q 320 916 236 878 q 507 954 404 954 q 694 916 610 954 q 837 810 778 877 q 929 655 897 744 q 961 465 961 566 m 800 464 q 782 624 800 549 q 727 754 764 699 q 636 843 690 810 q 509 875 581 875 q 378 842 433 875 q 286 754 322 810 q 231 624 249 698 q 214 467 214 549 q 232 308 214 383 q 286 177 250 233 q 377 87 322 121 q 505 54 431 54 q 636 87 581 54 q 728 177 691 121 q 782 307 764 233 q 800 464 800 381 z "},"P":{"ha":804,"x_min":35,"x_max":750,"o":"m 750 652 q 722 518 750 575 q 645 424 694 462 q 531 367 597 386 q 391 349 466 349 l 387 349 q 358 349 374 349 q 327 351 342 350 q 302 353 313 352 q 289 354 292 353 l 289 96 q 296 76 289 85 q 318 65 303 66 l 410 60 l 410 0 l 45 0 l 45 60 l 118 65 q 141 76 133 66 q 149 96 149 85 l 149 836 q 141 856 149 846 q 118 867 133 865 l 35 872 l 35 932 l 367 932 q 537 917 465 932 q 657 869 610 902 q 727 782 704 836 q 750 652 750 729 m 606 650 q 592 740 606 701 q 549 807 578 780 q 473 849 519 835 q 359 864 426 864 q 338 864 350 864 q 315 863 326 863 q 289 863 302 863 l 289 425 q 299 424 290 425 q 319 421 308 423 q 344 419 331 420 q 367 418 357 418 l 371 418 q 468 432 425 418 q 542 474 511 446 q 589 546 572 503 q 606 650 606 590 z "},"Q":{"ha":1026,"x_min":54,"x_max":972,"o":"m 972 465 q 946 290 972 372 q 871 146 920 209 q 750 41 821 83 q 589 -16 679 -1 q 637 -138 590 -94 q 781 -183 684 -183 q 864 -177 829 -183 q 911 -169 899 -172 q 913 -169 912 -169 q 914 -168 913 -168 l 914 -228 q 913 -228 913 -228 q 911 -229 912 -229 q 882 -234 901 -231 q 835 -242 862 -238 q 775 -249 808 -246 q 708 -252 743 -252 q 584 -235 635 -252 q 501 -189 533 -219 q 454 -115 469 -158 q 440 -18 440 -72 q 286 33 357 -6 q 164 133 216 71 q 83 279 113 195 q 54 465 54 363 q 69 596 54 533 q 111 713 83 659 q 178 811 138 767 q 269 888 218 856 q 381 937 320 920 q 511 954 441 954 q 702 916 617 954 q 847 812 787 878 q 940 657 907 747 q 972 465 972 568 m 808 465 q 791 622 808 547 q 737 752 773 696 q 645 843 701 809 q 513 876 589 876 q 381 844 437 876 q 288 755 325 811 q 234 625 252 699 q 216 468 216 551 q 235 312 216 387 q 290 179 253 237 q 382 88 327 122 q 513 54 438 54 q 644 88 588 54 q 736 178 699 121 q 790 309 772 235 q 808 465 808 384 z "},"R":{"ha":901,"x_min":45,"x_max":901,"o":"m 901 -4 q 888 -7 897 -5 q 867 -14 879 -10 q 840 -20 854 -17 q 810 -22 825 -22 q 709 -4 747 -22 q 646 46 670 15 q 608 116 622 77 q 583 196 595 155 q 558 277 572 237 q 519 347 544 316 q 454 396 494 378 q 350 415 414 415 q 328 415 339 415 q 309 414 317 414 q 294 413 300 413 q 288 412 288 412 l 288 96 q 295 76 288 85 q 317 65 302 66 l 390 60 l 390 0 l 45 0 l 45 60 l 117 65 q 139 76 132 66 q 147 96 147 85 l 147 836 q 139 856 147 846 q 117 867 132 865 l 45 872 l 45 932 l 407 932 q 549 919 486 932 q 656 877 612 906 q 724 801 701 848 q 747 685 747 753 q 728 591 747 630 q 678 524 709 551 q 605 480 646 497 q 519 453 564 463 q 610 415 576 439 q 663 361 644 391 q 692 296 683 330 q 709 228 702 262 q 726 164 717 195 q 756 110 736 134 q 810 72 776 86 q 901 58 844 58 l 901 -4 m 596 679 q 583 758 596 724 q 539 816 569 792 q 464 852 510 840 q 351 864 417 864 l 288 864 l 288 484 q 297 483 289 484 q 316 483 305 483 q 337 483 326 483 q 357 482 349 482 q 459 492 414 482 q 534 525 504 502 q 581 586 565 548 q 596 679 596 623 z "},"S":{"ha":724,"x_min":54,"x_max":669,"o":"m 669 261 q 649 157 669 208 q 583 66 628 106 q 469 2 538 26 q 301 -22 399 -22 q 199 -14 244 -22 q 121 3 154 -6 q 54 29 84 15 l 54 275 l 142 275 l 160 118 q 169 100 161 110 q 183 87 176 91 l 195 81 q 222 71 205 77 q 266 60 240 65 q 323 56 291 56 q 405 67 368 56 q 470 99 443 78 q 512 151 497 120 q 528 220 528 181 q 504 293 528 262 q 443 350 479 325 q 364 394 407 374 q 283 432 321 414 q 202 474 241 452 q 133 524 163 496 q 86 591 104 553 q 69 682 69 629 q 94 794 69 744 q 161 880 118 844 q 263 935 204 916 q 390 954 321 954 q 460 950 427 954 q 521 940 492 946 q 575 925 550 933 q 623 911 600 918 l 635 907 l 635 690 l 555 690 l 534 823 q 526 837 533 833 q 513 848 519 842 q 502 855 510 850 q 479 865 494 860 q 443 875 465 871 q 392 879 421 879 q 317 867 350 879 q 260 832 283 854 q 225 781 237 810 q 212 715 212 751 q 225 657 212 684 q 262 609 237 631 q 323 568 287 587 q 406 532 359 549 q 518 482 469 508 q 601 425 567 456 q 652 353 634 393 q 669 261 669 313 z "},"T":{"ha":832,"x_min":22,"x_max":810,"o":"m 728 710 l 708 840 q 700 858 706 851 q 685 864 694 864 l 486 864 l 486 96 q 493 76 486 85 q 515 65 500 66 l 604 60 l 604 0 l 228 0 l 228 60 l 317 65 q 339 76 332 66 q 346 96 346 85 l 346 864 l 146 864 q 130 858 136 864 q 122 840 123 851 l 103 710 l 22 710 l 22 932 l 810 932 l 810 710 l 728 710 z "},"U":{"ha":989,"x_min":43,"x_max":951,"o":"m 871 867 q 849 856 856 865 q 842 836 842 846 l 842 309 q 819 161 842 223 q 750 58 795 98 q 638 -3 705 17 q 485 -22 572 -22 q 229 61 313 -22 q 146 309 146 144 l 146 836 q 139 856 146 846 q 117 867 132 865 l 43 872 l 43 932 l 396 932 l 396 872 l 317 867 q 295 856 302 865 q 288 836 288 846 l 288 345 q 297 233 288 283 q 332 146 307 182 q 404 91 358 111 q 522 71 450 71 q 640 92 594 71 q 713 150 686 113 q 749 237 739 186 q 760 345 760 287 l 760 836 q 752 856 760 846 q 729 867 744 865 l 650 872 l 650 932 l 951 932 l 951 872 l 871 867 z "},"V":{"ha":925,"x_min":14,"x_max":911,"o":"m 831 857 l 519 -22 l 414 -22 l 96 859 l 14 872 l 14 932 l 346 932 l 346 872 l 264 865 q 254 858 258 864 q 251 845 251 851 q 252 840 251 842 l 496 154 l 730 838 q 731 842 731 839 q 725 857 731 850 q 711 865 719 865 l 635 872 l 635 932 l 911 932 l 911 872 l 831 857 z "},"W":{"ha":1293,"x_min":14,"x_max":1279,"o":"m 1194 856 l 982 -22 l 880 -22 l 648 747 l 421 -22 l 321 -22 l 94 856 l 14 872 l 14 932 l 332 932 l 332 872 l 249 864 q 237 857 241 863 q 233 844 233 851 q 234 840 233 842 q 235 836 234 838 l 400 210 l 618 932 l 725 932 l 949 187 l 1103 836 q 1103 841 1103 838 q 1098 856 1103 849 q 1083 864 1093 863 l 996 872 l 996 932 l 1279 932 l 1279 872 l 1194 856 z "},"X":{"ha":880,"x_min":14,"x_max":867,"o":"m 510 0 l 510 60 l 590 68 q 604 75 598 69 q 610 87 610 80 q 607 97 610 92 l 422 387 l 208 93 q 205 82 205 87 q 209 72 205 77 q 225 66 214 68 l 309 60 l 309 0 l 14 0 l 14 60 l 97 77 l 376 460 l 123 856 l 32 872 l 32 932 l 380 932 l 380 872 l 310 865 q 294 860 298 865 q 290 849 290 855 q 293 838 290 843 l 463 576 l 650 833 q 654 844 654 838 q 648 857 654 852 q 635 863 642 862 l 564 872 l 564 932 l 854 932 l 854 872 l 765 859 l 507 504 l 781 77 l 867 60 l 867 0 l 510 0 z "},"Y":{"ha":869,"x_min":14,"x_max":856,"o":"m 781 859 l 501 396 l 501 96 q 509 76 501 85 q 530 65 516 66 l 619 60 l 619 0 l 244 0 l 244 60 l 330 65 q 353 76 345 66 q 361 96 361 85 l 361 375 l 94 856 l 14 872 l 14 932 l 343 932 l 343 872 l 273 865 q 258 859 262 864 q 254 849 254 854 q 257 838 254 842 l 453 475 l 668 833 q 671 843 671 838 q 665 856 671 850 q 652 863 659 861 l 574 872 l 574 932 l 856 932 l 856 872 l 781 859 z "},"Z":{"ha":799,"x_min":54,"x_max":745,"o":"m 54 0 l 54 61 l 571 863 l 210 863 q 194 856 200 863 q 186 839 189 849 l 165 710 l 83 710 l 83 932 l 737 932 l 737 868 l 220 71 l 615 71 q 631 78 625 71 q 639 96 637 85 l 663 257 l 745 257 l 745 0 l 54 0 z "},"[":{"ha":461,"x_min":119,"x_max":396,"o":"m 119 -107 l 119 1008 l 396 1008 l 396 925 l 249 925 l 249 -28 l 396 -28 l 396 -107 l 119 -107 z "},"\\":{"ha":564,"x_min":0,"x_max":566,"o":"m 566 -8 l 412 -8 l 0 971 l 150 971 l 566 -8 z "},"]":{"ha":461,"x_min":56,"x_max":332,"o":"m 56 -107 l 56 -24 l 203 -24 l 203 929 l 56 929 l 56 1008 l 332 1008 l 332 -107 l 56 -107 z "},"^":{"ha":1331,"x_min":302,"x_max":1028,"o":"m 940 16 l 665 693 l 389 16 l 302 16 l 631 814 l 701 814 l 1028 16 l 940 16 z "},"_":{"ha":833,"x_min":0,"x_max":833,"o":"m 0 -463 l 0 -325 l 833 -325 l 833 -463 l 0 -463 z "},"`":{"ha":486,"x_min":0,"x_max":322,"o":"m 243 765 l 32 900 q 8 923 17 909 q 0 956 0 937 q 3 977 0 966 q 14 997 6 988 q 33 1012 21 1006 q 64 1018 45 1018 q 88 1015 78 1018 q 106 1008 98 1013 q 122 996 115 1003 q 136 981 129 989 l 322 765 l 243 765 z "},"a":{"ha":707,"x_min":47,"x_max":684,"o":"m 478 0 l 460 82 q 385 33 423 54 q 349 14 368 23 q 310 -2 330 5 q 269 -13 290 -9 q 228 -17 248 -17 q 157 -4 190 -17 q 100 33 124 9 q 61 92 75 58 q 47 171 47 127 q 53 220 47 197 q 73 264 58 243 q 117 306 89 286 q 191 346 145 326 q 303 385 237 366 q 460 424 369 404 l 460 484 q 429 587 460 553 q 330 621 397 621 q 268 614 294 621 q 232 603 242 607 l 232 482 l 131 482 q 112 484 121 482 q 96 489 103 485 q 84 502 88 494 q 79 522 79 509 q 105 596 79 565 q 172 647 131 627 q 265 677 214 667 q 368 686 317 686 q 475 671 433 686 q 542 627 517 655 q 577 562 567 600 q 587 478 587 524 l 587 89 q 596 68 587 76 q 616 58 604 60 l 684 54 l 684 0 l 478 0 m 460 371 q 311 324 366 347 q 228 278 256 301 q 192 230 200 254 q 184 180 184 206 q 192 138 184 159 q 212 101 199 117 q 244 75 225 85 q 289 65 264 65 q 347 75 317 65 q 402 98 377 85 q 460 131 431 112 l 460 371 z "},"b":{"ha":771,"x_min":20,"x_max":724,"o":"m 724 367 q 701 221 724 288 q 629 105 677 155 q 505 28 581 56 q 325 0 429 0 l 125 0 l 125 924 l 20 924 l 20 970 l 199 1023 l 254 1023 l 254 635 q 286 649 267 640 q 331 666 306 658 q 386 680 357 674 q 446 686 415 686 q 566 661 514 686 q 653 591 618 635 q 706 489 688 547 q 724 367 724 431 m 582 339 q 526 537 582 470 q 370 604 470 604 q 342 602 358 604 q 311 597 327 600 q 280 589 295 593 q 254 582 264 585 l 254 66 q 278 66 266 66 q 300 65 288 65 l 322 65 q 432 79 384 65 q 513 126 480 94 q 564 211 547 159 q 582 339 582 263 z "},"c":{"ha":647,"x_min":47,"x_max":600,"o":"m 600 52 q 550 27 576 39 q 495 5 524 14 q 433 -11 465 -5 q 366 -17 401 -17 q 234 9 292 -17 q 134 82 175 35 q 70 192 92 128 q 47 330 47 256 q 75 484 47 418 q 148 596 102 551 q 255 664 194 641 q 382 686 315 686 q 467 677 427 686 q 535 650 507 668 q 581 607 564 633 q 597 547 597 581 q 590 512 597 527 q 572 486 583 496 q 546 470 560 475 q 515 465 531 465 q 475 473 492 465 q 446 489 458 481 l 446 610 q 416 623 431 618 q 387 628 401 628 q 304 607 341 628 q 242 549 267 586 q 203 460 216 511 q 189 349 189 409 q 204 240 189 291 q 247 152 218 189 q 319 92 276 114 q 419 71 362 71 q 512 86 468 71 q 600 131 555 101 l 600 52 z "},"d":{"ha":783,"x_min":47,"x_max":747,"o":"m 529 0 l 529 74 q 480 39 505 56 q 428 10 454 22 q 373 -9 401 -2 q 314 -17 345 -17 q 194 13 244 -17 q 111 91 143 43 q 63 198 78 139 q 47 317 47 258 q 69 454 47 387 q 135 572 91 521 q 245 655 179 624 q 401 686 312 686 q 437 684 418 686 q 474 680 456 682 q 506 674 492 677 q 529 669 521 671 l 529 924 l 424 924 l 424 970 l 603 1023 l 659 1023 l 659 89 q 667 68 659 76 q 688 58 675 60 l 747 54 l 747 0 l 529 0 m 529 599 q 506 605 520 602 q 476 612 492 609 q 443 617 460 615 q 411 619 426 619 q 317 599 359 619 q 246 543 275 579 q 200 455 216 507 q 184 340 184 404 q 198 236 184 283 q 237 153 212 188 q 300 98 263 117 q 386 78 338 78 q 427 82 407 78 q 465 94 446 87 q 499 110 483 101 q 529 126 515 118 l 529 599 z "},"e":{"ha":681,"x_min":47,"x_max":633,"o":"m 633 69 q 573 35 604 51 q 508 8 541 20 q 439 -10 474 -3 q 370 -17 405 -17 q 248 4 307 -17 q 145 68 190 26 q 74 176 101 111 q 47 328 47 241 q 72 475 47 409 q 140 588 96 541 q 243 661 183 635 q 374 686 302 686 q 487 665 438 686 q 568 606 536 644 q 617 516 601 568 q 633 401 633 463 l 633 383 q 632 363 633 372 l 182 363 q 193 257 182 310 q 231 162 204 204 q 302 94 257 120 q 414 68 347 68 q 473 76 444 68 q 530 96 502 83 q 584 123 558 108 q 633 154 610 138 l 633 69 m 494 456 q 486 520 494 490 q 461 571 478 549 q 419 605 445 593 q 359 618 394 618 q 295 605 325 618 q 242 566 265 591 q 206 506 220 541 q 189 425 192 470 l 494 425 l 494 456 z "},"f":{"ha":453,"x_min":40,"x_max":541,"o":"m 541 940 q 532 905 541 919 q 512 883 524 891 q 491 870 501 874 q 476 865 480 866 q 465 874 475 867 q 441 891 455 881 q 411 911 427 901 q 382 932 395 922 q 359 948 368 942 q 349 956 349 955 q 319 932 334 947 q 293 892 304 918 q 274 832 281 867 q 267 747 267 796 l 267 659 l 439 659 l 439 587 l 267 587 l 267 89 q 275 67 267 76 q 296 58 283 59 l 378 54 l 378 0 l 40 0 l 40 54 l 109 58 q 129 68 121 60 q 138 89 138 76 l 138 587 l 49 587 l 49 636 l 138 661 q 140 723 138 696 q 148 775 142 751 q 163 822 154 799 q 184 869 172 844 q 232 938 205 909 q 289 985 258 966 q 354 1014 320 1004 q 421 1023 387 1023 q 473 1017 450 1023 q 510 998 495 1010 q 533 972 526 987 q 541 940 541 957 z "},"g":{"ha":729,"x_min":47,"x_max":705,"o":"m 567 576 q 593 522 583 551 q 604 452 604 492 q 582 359 604 399 q 522 290 559 318 q 435 246 484 261 q 332 231 386 231 l 318 231 q 304 232 311 231 q 293 201 296 218 q 290 171 290 185 q 291 149 290 158 q 293 139 292 140 l 313 137 q 384 129 345 134 q 463 116 423 125 q 540 95 503 108 q 606 61 577 81 q 652 13 635 41 q 669 -56 669 -16 q 641 -152 669 -105 q 564 -236 613 -199 q 450 -296 515 -273 q 309 -318 384 -318 q 198 -303 246 -318 q 116 -262 149 -288 q 65 -199 83 -235 q 47 -121 47 -163 q 56 -63 47 -90 q 83 -13 65 -35 q 129 25 102 9 q 195 47 157 41 q 188 65 191 58 q 183 79 185 73 q 181 93 182 85 q 180 111 180 100 q 197 171 180 138 q 250 241 214 204 q 184 267 216 250 q 130 312 153 285 q 92 373 106 338 q 78 450 78 408 q 98 549 78 505 q 155 623 119 593 q 243 670 192 654 q 357 686 294 686 q 405 682 381 686 q 449 672 428 678 q 487 658 469 665 q 518 644 505 650 l 705 644 l 705 576 l 567 576 m 550 -93 q 536 -44 550 -64 q 498 -12 522 -24 q 445 9 475 1 q 386 22 416 17 q 327 30 355 27 q 278 37 298 33 q 227 11 248 26 q 195 -22 207 -4 q 177 -58 182 -39 q 172 -93 172 -76 q 183 -146 172 -118 q 216 -199 194 -175 q 273 -238 239 -222 q 354 -254 307 -254 q 440 -238 404 -254 q 502 -199 477 -222 q 538 -146 526 -175 q 550 -93 550 -118 m 472 460 q 464 523 472 492 q 439 577 455 554 q 398 615 422 601 q 343 629 374 629 q 290 618 314 629 q 248 584 265 606 q 221 530 231 562 q 211 458 211 498 q 219 393 211 424 q 244 339 228 362 q 286 302 261 316 q 343 289 311 289 q 398 302 374 289 q 439 339 422 316 q 464 393 455 362 q 472 460 472 425 z "},"h":{"ha":798,"x_min":21,"x_max":765,"o":"m 456 0 l 456 54 l 513 58 q 534 68 525 60 q 543 89 543 76 l 543 447 q 537 502 543 477 q 514 545 530 527 q 472 574 498 564 q 406 585 446 585 q 367 582 387 585 q 327 573 347 578 q 288 560 307 568 q 254 545 269 553 l 254 89 q 262 68 254 76 q 282 58 269 60 l 342 54 l 342 0 l 29 0 l 29 54 l 96 58 q 117 68 109 60 q 125 89 125 76 l 125 924 l 21 924 l 21 970 l 199 1023 l 254 1023 l 254 600 q 301 627 273 612 q 360 655 329 642 q 424 677 392 668 q 484 686 456 686 q 558 673 524 686 q 617 635 592 661 q 657 569 643 609 q 672 476 672 530 l 672 89 q 681 68 672 76 q 703 58 690 60 l 765 54 l 765 0 l 456 0 z "},"i":{"ha":421,"x_min":47,"x_max":374,"o":"m 302 899 q 296 865 302 881 q 278 838 290 849 q 251 819 267 826 q 218 812 236 812 q 185 819 201 812 q 157 838 169 826 q 139 865 146 849 q 132 899 132 881 q 139 932 132 916 q 157 959 146 947 q 185 977 169 970 q 218 983 201 983 q 251 977 236 983 q 278 959 267 970 q 296 932 290 947 q 302 899 302 916 m 47 0 l 47 54 l 115 58 q 136 68 128 60 q 144 89 144 76 l 144 585 l 49 585 l 49 633 l 218 686 l 273 686 l 273 89 q 282 68 273 76 q 302 58 290 60 l 374 54 l 374 0 l 47 0 z "},"j":{"ha":406,"x_min":-110,"x_max":296,"o":"m 296 899 q 289 865 296 881 q 271 838 283 849 q 244 819 260 826 q 211 812 229 812 q 178 819 193 812 q 150 838 162 826 q 132 865 138 849 q 125 899 125 881 q 132 932 125 916 q 150 959 138 947 q 178 977 162 970 q 211 983 193 983 q 244 977 229 983 q 271 959 260 970 q 289 932 283 947 q 296 899 296 916 m 281 89 q 279 21 281 58 q 271 -54 277 -16 q 254 -126 265 -91 q 226 -189 243 -161 q 122 -287 183 -255 q -4 -318 62 -318 q -45 -314 -26 -318 q -78 -300 -64 -309 q -101 -276 -93 -290 q -110 -241 -110 -261 q -104 -211 -110 -224 q -91 -188 -99 -197 q -71 -171 -82 -178 q -50 -161 -60 -165 l 85 -254 q 117 -222 104 -243 q 137 -171 130 -201 q 148 -105 145 -142 q 151 -29 151 -69 l 151 587 l 53 587 l 53 633 l 224 686 l 281 686 l 281 89 z "},"k":{"ha":742,"x_min":20,"x_max":728,"o":"m 505 0 l 505 54 l 332 315 l 254 315 l 254 89 q 262 68 254 76 q 283 58 271 60 l 343 54 l 343 0 l 28 0 l 28 54 l 96 58 q 117 68 109 60 q 125 89 125 76 l 125 924 l 20 924 l 20 970 l 197 1023 l 254 1023 l 254 355 l 282 355 l 486 586 q 489 595 489 589 q 485 605 489 600 q 475 610 481 609 l 418 615 l 418 669 l 688 669 l 688 615 l 599 606 l 415 410 l 654 62 l 728 54 l 728 0 l 505 0 z "},"l":{"ha":412,"x_min":36,"x_max":375,"o":"m 37 0 l 37 54 l 111 58 q 131 68 121 58 q 142 87 142 78 l 142 924 l 36 924 l 36 970 l 214 1023 l 271 1023 l 271 87 q 280 68 271 78 q 300 58 290 58 l 375 54 l 375 0 l 37 0 z "},"m":{"ha":1181,"x_min":28,"x_max":1150,"o":"m 839 0 l 839 54 l 897 58 q 918 68 910 60 q 926 89 926 76 l 926 443 q 920 502 926 475 q 900 546 914 528 q 861 574 885 564 q 803 585 838 585 q 766 582 785 585 q 727 573 747 578 q 689 561 708 568 q 654 546 671 554 l 654 89 q 663 68 654 76 q 684 58 671 60 l 742 54 l 742 0 l 437 0 l 437 54 l 496 58 q 517 68 509 60 q 525 89 525 76 l 525 452 q 518 506 525 481 q 497 548 512 530 q 459 575 483 565 q 403 585 436 585 q 362 581 383 585 q 321 571 340 577 q 284 558 301 566 q 254 545 267 551 l 254 89 q 262 68 254 76 q 283 58 271 60 l 342 54 l 342 0 l 28 0 l 28 54 l 96 58 q 117 68 109 60 q 125 89 125 76 l 125 571 l 29 571 l 29 616 l 197 669 l 254 669 l 254 600 q 306 629 277 614 q 363 657 334 644 q 424 678 393 670 q 481 686 454 686 q 535 678 511 686 q 578 655 559 669 q 611 624 597 642 q 633 590 625 607 q 684 620 654 603 q 747 651 714 637 q 814 676 781 666 q 875 686 847 686 q 964 666 930 686 q 1019 615 999 646 q 1046 547 1039 585 q 1054 473 1054 509 l 1054 89 q 1062 68 1054 76 q 1083 58 1071 60 l 1150 54 l 1150 0 l 839 0 z "},"n":{"ha":787,"x_min":28,"x_max":760,"o":"m 453 0 l 453 54 l 511 58 q 532 68 524 60 q 541 89 541 76 l 541 450 q 510 550 541 516 q 407 585 479 585 q 328 573 367 585 q 254 545 290 562 l 254 89 q 262 68 254 76 q 283 58 271 60 l 342 54 l 342 0 l 28 0 l 28 54 l 96 58 q 117 68 109 60 q 125 89 125 76 l 125 571 l 28 571 l 28 616 l 197 669 l 254 669 l 254 600 q 314 632 283 616 q 374 660 344 648 q 431 679 404 672 q 484 686 459 686 q 622 630 574 686 q 669 472 669 574 l 669 89 q 678 68 669 76 q 699 58 686 60 l 760 54 l 760 0 l 453 0 z "},"o":{"ha":755,"x_min":47,"x_max":708,"o":"m 708 334 q 685 196 708 260 q 618 84 661 132 q 514 10 575 37 q 376 -17 452 -17 q 239 10 300 -17 q 136 83 178 37 q 70 194 93 130 q 47 334 47 258 q 71 472 47 408 q 137 584 94 536 q 242 659 180 632 q 380 686 303 686 q 519 659 458 686 q 622 583 580 631 q 686 471 664 535 q 708 334 708 407 m 564 335 q 552 444 564 392 q 518 536 541 496 q 460 600 495 576 q 379 624 426 624 q 296 600 331 624 q 238 536 260 576 q 204 444 215 496 q 193 335 193 392 q 204 227 193 279 q 239 134 216 174 q 296 70 262 94 q 378 46 331 46 q 460 70 425 46 q 518 134 496 94 q 552 226 541 174 q 564 335 564 278 z "},"p":{"ha":777,"x_min":29,"x_max":729,"o":"m 729 345 q 705 196 729 262 q 636 82 681 129 q 525 9 591 35 q 378 -17 460 -17 q 337 -15 359 -17 q 297 -11 315 -14 q 254 -4 275 -8 l 254 -211 q 263 -231 254 -224 q 285 -240 272 -239 l 367 -249 l 367 -302 l 29 -302 l 29 -249 l 96 -240 q 117 -231 109 -239 q 125 -211 125 -224 l 125 571 l 29 571 l 29 616 l 200 669 l 254 669 l 254 600 q 318 643 284 624 q 385 673 347 659 q 464 686 423 686 q 566 662 517 686 q 650 593 614 637 q 708 485 686 548 q 729 345 729 422 m 590 325 q 577 426 590 378 q 541 510 565 474 q 480 568 516 547 q 396 589 444 589 q 344 582 370 589 q 299 568 319 575 q 254 547 276 559 l 254 69 q 289 58 271 63 q 325 51 304 54 q 367 47 345 47 q 466 71 424 47 q 535 132 508 94 q 576 220 563 170 q 590 325 590 271 z "},"q":{"ha":762,"x_min":47,"x_max":742,"o":"m 406 -302 l 406 -250 l 488 -243 q 508 -234 500 -241 q 517 -214 517 -227 l 517 37 q 473 18 497 28 q 424 1 450 9 q 371 -12 397 -7 q 322 -17 345 -17 q 207 9 258 -17 q 121 81 156 36 q 66 188 85 127 q 47 318 47 249 q 75 471 47 403 q 153 587 102 539 q 279 661 205 635 q 449 686 354 686 q 493 685 468 686 q 545 680 518 683 q 597 673 571 677 q 646 664 624 669 l 646 -214 q 654 -234 646 -227 q 675 -243 663 -241 l 742 -250 l 742 -302 l 406 -302 m 517 608 q 474 617 498 612 q 421 623 450 623 q 320 602 364 623 q 247 545 277 582 q 202 456 218 508 q 187 340 187 404 q 199 237 187 287 q 236 149 211 187 q 301 88 262 111 q 397 65 341 65 q 426 67 410 65 q 458 71 442 68 q 490 78 475 74 q 517 85 505 81 l 517 608 z "},"r":{"ha":543,"x_min":32,"x_max":529,"o":"m 475 528 q 444 554 461 543 q 400 566 426 566 q 332 543 366 566 q 261 479 297 520 l 261 89 q 269 67 261 76 q 290 58 277 59 l 382 54 l 382 0 l 35 0 l 35 53 l 103 58 q 124 68 115 60 q 132 89 132 76 l 132 571 l 32 571 l 32 616 l 204 669 l 261 669 l 261 546 q 297 586 276 562 q 343 633 319 610 q 394 671 368 655 q 444 686 420 686 q 467 684 455 686 q 491 679 479 682 q 512 672 503 676 q 529 665 522 669 l 529 528 l 475 528 z "},"s":{"ha":553,"x_min":47,"x_max":505,"o":"m 505 201 q 487 110 505 151 q 435 41 469 69 q 351 -2 401 13 q 240 -17 302 -17 q 178 -13 208 -17 q 122 -4 148 -9 q 77 8 97 2 q 47 18 58 14 l 47 203 l 118 203 l 135 85 q 187 59 156 71 q 258 46 218 46 q 311 55 288 46 q 350 79 334 64 q 375 114 366 94 q 383 154 383 133 q 373 201 383 181 q 343 237 363 221 q 296 268 324 253 q 232 300 268 282 l 214 309 q 146 345 176 327 q 97 384 117 363 q 67 429 77 404 q 57 485 57 454 q 74 568 57 531 q 122 632 90 606 q 200 672 154 658 q 307 686 247 686 q 366 683 338 686 q 416 675 393 680 q 457 665 439 670 q 485 654 475 659 l 485 490 l 412 490 l 401 587 q 357 609 387 599 q 296 619 328 619 q 211 593 238 619 q 183 526 183 567 q 191 485 183 503 q 217 452 199 467 q 264 420 235 436 q 338 385 294 404 q 405 350 374 368 q 458 310 435 332 q 493 262 480 288 q 505 201 505 235 z "},"t":{"ha":472,"x_min":37,"x_max":463,"o":"m 463 29 q 406 6 437 16 q 347 -10 380 -3 q 275 -17 313 -17 q 161 20 197 -17 q 126 139 126 56 l 126 600 l 37 600 l 37 646 l 132 690 l 195 838 l 256 838 l 256 669 l 452 669 l 452 600 l 256 600 l 256 212 q 263 142 256 171 q 284 95 270 113 q 318 69 298 77 q 367 61 339 61 q 405 64 387 61 q 435 73 422 68 q 463 85 450 78 l 463 29 z "},"u":{"ha":790,"x_min":29,"x_max":761,"o":"m 541 0 l 541 79 q 497 49 523 66 q 443 17 472 32 q 381 -7 413 3 q 318 -17 349 -17 q 238 -4 273 -17 q 177 37 202 9 q 139 107 153 64 q 126 208 126 149 l 126 585 l 29 585 l 29 632 l 200 686 l 256 686 l 256 235 q 263 169 256 198 q 286 119 270 140 q 328 89 302 99 q 390 78 353 78 q 433 82 411 78 q 474 93 454 86 q 511 106 494 99 q 541 119 528 113 l 541 585 l 443 585 l 443 632 l 612 686 l 669 686 l 669 89 q 679 68 669 76 q 700 58 688 60 l 761 54 l 761 0 l 541 0 z "},"v":{"ha":734,"x_min":14,"x_max":721,"o":"m 647 607 l 404 0 l 314 0 l 90 607 l 14 615 l 14 669 l 321 669 l 321 615 l 254 611 q 238 604 245 610 q 232 589 232 598 q 233 581 232 586 l 389 146 l 559 581 q 562 589 562 585 q 556 604 562 597 q 541 611 550 610 l 478 615 l 478 669 l 721 669 l 721 615 l 647 607 z "},"w":{"ha":1088,"x_min":14,"x_max":1074,"o":"m 1003 607 l 812 0 l 714 0 l 550 519 l 367 0 l 268 0 l 90 607 l 14 615 l 14 669 l 318 669 l 318 615 l 253 611 q 237 604 243 610 q 231 588 231 597 q 232 581 231 583 l 347 149 l 526 669 l 625 669 l 786 149 l 914 581 q 915 587 915 583 q 909 603 915 596 q 895 611 904 610 l 831 615 l 831 669 l 1074 669 l 1074 615 l 1003 607 z "},"x":{"ha":708,"x_min":14,"x_max":694,"o":"m 396 0 l 396 54 l 443 60 q 454 65 450 60 q 458 77 458 71 q 456 85 458 81 l 336 262 l 200 85 q 197 74 197 81 q 199 64 197 68 q 208 60 202 60 l 278 54 l 278 0 l 14 0 l 14 54 l 93 65 l 292 323 l 103 603 l 21 615 l 21 669 l 326 669 l 326 615 l 278 608 q 266 602 271 607 q 262 591 262 597 q 264 583 262 586 l 374 428 l 494 583 q 498 593 498 588 q 494 603 498 598 q 485 608 491 608 l 425 615 l 425 669 l 675 669 l 675 615 l 600 603 l 414 366 l 619 65 l 694 54 l 694 0 l 396 0 z "},"y":{"ha":736,"x_min":14,"x_max":722,"o":"m 650 607 l 383 -43 q 364 -88 376 -60 q 335 -149 352 -117 q 299 -212 319 -181 q 257 -265 279 -243 q 202 -304 232 -290 q 136 -318 172 -318 q 93 -312 112 -318 q 61 -294 74 -305 q 41 -269 48 -283 q 35 -239 35 -254 q 45 -195 35 -215 q 79 -155 56 -175 l 210 -215 q 244 -171 227 -198 q 277 -113 262 -143 q 306 -52 293 -82 q 326 1 319 -22 l 90 607 l 14 615 l 14 669 l 321 669 l 321 615 l 254 611 q 238 604 245 610 q 232 589 232 597 q 233 581 232 583 l 395 171 l 559 581 q 562 589 562 585 q 556 604 562 597 q 541 611 550 610 l 475 615 l 475 669 l 722 669 l 722 615 l 650 607 z "},"z":{"ha":642,"x_min":47,"x_max":595,"o":"m 47 0 l 47 74 l 415 604 l 174 604 q 156 594 163 604 q 146 575 148 585 l 132 472 l 61 472 l 61 669 l 575 669 l 575 612 l 195 66 l 475 66 q 485 70 479 66 q 494 78 490 73 q 502 89 498 83 q 505 100 505 94 l 519 210 l 595 210 l 595 0 l 47 0 z "},"{":{"ha":677,"x_min":83,"x_max":582,"o":"m 582 -171 q 509 -168 545 -171 q 441 -158 473 -165 q 384 -140 410 -151 q 340 -110 357 -128 q 309 -65 321 -89 q 292 -15 298 -41 q 285 40 286 12 q 283 97 283 68 l 283 169 q 282 214 283 191 q 277 260 281 238 q 266 302 273 283 q 244 335 258 321 q 216 354 232 347 q 181 366 201 361 q 138 371 162 370 q 83 372 114 372 l 83 435 q 138 436 114 435 q 181 441 162 437 q 216 453 201 446 q 244 472 232 460 q 266 505 258 485 q 277 547 273 524 q 282 593 281 569 q 283 638 283 616 l 283 710 q 285 767 283 739 q 292 821 286 795 q 309 872 298 848 q 340 917 321 896 q 384 947 357 935 q 441 965 410 958 q 509 975 473 972 q 582 978 545 978 l 582 921 q 555 920 573 921 q 515 914 536 918 q 473 902 494 910 q 440 879 453 893 q 422 850 429 867 q 412 813 416 833 q 408 771 409 793 q 407 726 407 749 l 407 673 q 406 624 407 650 q 401 572 405 597 q 389 524 397 547 q 368 484 381 501 q 337 453 353 466 q 301 431 320 440 q 261 415 282 421 q 220 404 241 409 q 301 377 262 395 q 368 323 339 359 q 389 283 381 306 q 401 235 397 260 q 406 183 405 210 q 407 134 407 157 l 407 81 q 408 36 407 58 q 412 -6 409 14 q 422 -43 416 -26 q 440 -72 429 -60 q 473 -95 453 -86 q 515 -107 494 -103 q 555 -113 536 -111 q 582 -114 573 -114 l 582 -171 z "},"|":{"ha":694,"x_min":298,"x_max":396,"o":"m 298 -328 l 298 1061 l 396 1061 l 396 -328 l 298 -328 z "},"}":{"ha":677,"x_min":96,"x_max":595,"o":"m 595 372 q 496 366 534 372 q 433 335 458 359 q 412 303 420 322 q 400 262 404 284 q 396 218 397 241 q 395 173 395 195 l 395 97 q 393 40 395 68 q 386 -15 392 12 q 369 -65 380 -41 q 338 -110 357 -89 q 294 -140 320 -128 q 237 -158 269 -151 q 169 -168 205 -165 q 96 -171 133 -171 l 96 -114 q 123 -113 104 -114 q 162 -107 141 -111 q 204 -95 184 -103 q 237 -72 224 -86 q 255 -43 248 -60 q 266 -8 262 -27 q 270 33 269 12 q 271 77 271 55 q 271 106 271 92 q 271 134 271 120 q 272 183 271 157 q 277 235 273 210 q 289 283 281 260 q 311 324 296 307 q 377 377 338 359 q 458 404 416 395 q 416 415 437 409 q 377 430 396 421 q 341 452 358 439 q 311 483 324 465 q 289 524 296 500 q 277 572 281 547 q 272 624 273 597 q 271 673 271 650 q 271 701 271 687 q 271 730 271 715 q 270 774 271 752 q 266 815 269 795 q 255 850 262 834 q 237 879 248 867 q 204 902 224 893 q 162 914 184 910 q 123 920 141 918 q 96 921 104 921 l 96 978 q 169 975 133 978 q 237 965 205 972 q 294 947 269 958 q 338 917 320 935 q 369 872 357 896 q 386 821 380 848 q 393 767 392 795 q 395 710 395 739 l 395 634 q 396 589 395 612 q 400 545 397 566 q 412 504 404 523 q 433 472 420 485 q 496 441 458 448 q 595 435 534 435 l 595 372 z "},"~":{"ha":1157,"x_min":119,"x_max":1038,"o":"m 1038 425 q 963 379 998 397 q 897 349 928 360 q 836 332 865 337 q 777 328 806 328 q 678 342 727 328 q 580 374 629 357 q 479 407 530 392 q 375 421 429 421 q 256 392 322 421 q 119 313 189 363 l 119 403 q 260 478 194 456 q 383 501 327 501 q 485 487 434 501 q 586 455 536 472 q 684 423 636 437 q 778 408 732 408 q 891 432 827 408 q 1038 515 954 455 l 1038 425 z "},"":{"ha":698,"x_min":68,"x_max":661,"o":"m 527 463 l 254 463 q 252 441 253 452 q 252 419 252 430 q 256 370 252 397 l 516 370 l 505 289 l 269 289 q 314 183 287 221 q 376 125 340 144 q 455 102 411 106 q 553 97 499 97 q 584 98 570 97 q 609 101 597 99 q 633 106 621 103 q 661 115 646 110 l 661 -3 q 617 -13 635 -9 q 585 -18 599 -16 q 561 -20 571 -20 q 541 -21 550 -21 l 515 -21 q 384 -4 445 -21 q 274 50 323 12 q 191 145 226 87 q 138 289 156 204 l 68 289 l 68 370 l 127 370 q 125 401 126 387 q 124 428 124 414 q 126 463 124 444 l 68 463 l 68 545 l 135 545 q 266 795 168 708 q 524 882 364 882 q 585 878 552 882 q 661 864 618 873 l 661 745 q 575 762 618 759 q 490 766 532 764 q 406 752 443 764 q 340 714 368 740 q 293 646 312 688 q 262 545 273 604 l 538 545 l 527 463 z "},"":{"ha":343,"x_min":85,"x_max":289,"o":"m 289 26 q 273 -61 289 -21 q 233 -133 256 -101 q 186 -187 210 -164 q 145 -224 161 -210 l 136 -232 l 85 -221 q 129 -174 108 -199 q 165 -124 150 -150 q 191 -70 181 -98 q 200 -12 200 -42 l 200 -9 q 199 3 200 -4 q 199 16 199 10 l 111 16 q 100 31 105 23 q 93 48 96 39 q 90 71 90 58 q 112 131 90 106 q 174 155 134 155 q 257 121 226 155 q 289 26 289 87 z "},"":{"ha":595,"x_min":-87,"x_max":684,"o":"m 684 868 q 659 817 684 836 q 596 793 635 798 l 488 880 q 450 831 465 862 q 424 766 434 801 q 407 697 413 732 q 397 635 401 662 l 554 635 l 554 566 l 387 566 q 375 481 382 529 q 360 380 368 433 q 345 274 353 328 q 329 174 336 221 q 314 89 321 127 q 302 31 307 52 q 258 -87 288 -28 q 188 -194 229 -146 q 100 -272 148 -242 q 0 -302 52 -302 q -43 -293 -26 -302 q -70 -272 -60 -284 q -84 -249 -80 -260 q -87 -232 -87 -237 q -77 -192 -87 -206 q -52 -165 -67 -177 l 90 -201 q 150 -84 127 -157 q 191 86 174 -11 q 207 184 199 128 q 225 304 216 241 q 243 435 234 368 q 262 566 253 502 l 142 566 l 142 635 l 272 635 q 299 753 281 695 q 350 855 317 810 q 433 927 383 900 q 555 954 483 954 q 615 945 591 954 q 655 923 640 937 q 677 895 670 910 q 684 868 684 880 z "},"":{"ha":629,"x_min":85,"x_max":575,"o":"m 575 26 q 559 -61 575 -21 q 519 -133 543 -101 q 472 -187 496 -164 q 431 -224 448 -210 l 422 -232 l 371 -221 q 413 -177 392 -200 q 450 -127 433 -153 q 477 -71 467 -100 q 488 -9 488 -42 q 486 4 488 -2 q 485 16 485 10 l 397 16 q 387 31 391 22 q 379 48 382 38 q 376 72 376 58 q 399 132 376 108 q 460 155 422 155 q 544 121 513 155 q 575 26 575 86 m 289 25 q 272 -61 289 -22 q 233 -133 256 -101 q 185 -187 210 -164 q 144 -224 161 -210 l 136 -232 l 85 -221 q 119 -182 99 -204 q 157 -135 139 -161 q 188 -78 175 -109 q 200 -12 200 -47 q 199 3 200 -5 q 199 16 199 10 l 111 16 q 100 32 105 23 q 93 49 96 39 q 90 71 90 59 q 96 104 90 88 q 114 131 102 119 q 140 149 125 142 q 175 155 156 155 q 259 120 230 155 q 289 25 289 85 z "},"":{"ha":1389,"x_min":139,"x_max":1250,"o":"m 1250 77 q 1243 40 1250 57 q 1223 11 1236 23 q 1194 -9 1211 -2 q 1157 -17 1177 -17 q 1121 -9 1137 -17 q 1091 11 1104 -2 q 1071 40 1078 23 q 1064 77 1064 57 q 1071 113 1064 96 q 1090 142 1078 130 q 1119 162 1103 155 q 1156 170 1136 170 q 1192 162 1175 170 q 1222 142 1209 155 q 1242 112 1235 129 q 1250 77 1250 95 m 787 77 q 780 40 787 57 q 760 10 773 22 q 730 -10 747 -3 q 694 -17 713 -17 q 658 -9 675 -17 q 628 11 641 -2 q 609 40 616 23 q 602 77 602 57 q 609 113 602 96 q 629 142 616 130 q 658 162 642 155 q 694 170 675 170 q 730 162 713 170 q 760 142 747 155 q 780 113 773 130 q 787 77 787 96 m 325 77 q 318 40 325 57 q 298 11 311 23 q 268 -9 285 -2 q 232 -17 251 -17 q 196 -9 212 -17 q 166 11 179 -2 q 146 40 153 23 q 139 77 139 57 q 146 113 139 96 q 166 142 153 130 q 196 162 179 155 q 232 170 212 170 q 268 162 251 170 q 298 142 285 155 q 318 113 311 130 q 325 77 325 96 z "},"":{"ha":722,"x_min":37,"x_max":688,"o":"m 640 608 q 625 606 634 606 q 588 613 609 606 q 543 629 568 620 q 491 647 519 638 q 432 659 463 656 q 428 659 430 659 q 425 659 427 659 q 391 623 391 659 l 391 615 q 402 554 394 583 q 419 502 410 526 q 434 459 428 477 q 441 431 441 441 q 440 425 441 427 q 425 331 432 382 q 413 229 418 281 q 402 125 407 176 q 395 28 398 73 q 389 -53 391 -17 q 386 -111 387 -90 q 384 -127 385 -121 q 380 -136 383 -133 q 373 -139 378 -138 q 361 -139 368 -139 q 349 -139 353 -139 q 342 -136 345 -138 q 338 -127 339 -133 q 336 -111 337 -121 q 333 -53 335 -90 q 328 28 331 -17 q 320 125 324 73 q 310 229 315 176 q 297 331 304 281 q 282 425 290 382 q 281 431 281 427 q 288 459 281 441 q 302 502 294 477 q 318 554 310 526 q 330 615 326 583 q 331 621 331 618 l 331 626 q 297 659 331 659 l 290 659 q 233 647 260 656 q 181 629 205 638 q 137 612 157 619 q 102 604 117 604 q 85 608 92 604 q 48 644 60 621 q 37 690 37 666 q 49 735 37 714 q 85 768 61 757 q 94 770 90 770 q 127 763 107 770 q 173 747 148 755 q 229 729 199 738 q 290 718 258 721 q 294 718 292 718 q 298 718 296 718 q 331 751 331 718 l 331 758 q 319 817 328 789 q 301 868 311 844 q 285 913 292 892 q 277 949 277 933 q 281 965 277 957 q 314 1003 292 990 q 360 1016 336 1016 q 405 1004 384 1016 q 440 966 427 991 q 442 955 442 961 q 435 920 442 941 q 420 873 429 899 q 403 819 411 848 q 392 758 395 789 q 391 750 391 755 q 425 718 391 718 q 428 718 427 718 q 432 718 430 718 q 492 729 463 721 q 547 747 522 738 q 593 763 572 756 q 627 770 614 770 q 639 768 633 770 q 675 735 663 757 q 688 690 688 714 q 676 645 688 667 q 640 608 664 623 z "},"":{"ha":722,"x_min":37,"x_max":688,"o":"m 640 248 q 676 210 664 232 q 688 165 688 188 q 675 120 688 141 q 639 87 663 99 q 627 85 633 85 q 593 93 614 85 q 547 109 572 100 q 492 126 522 117 q 432 138 463 134 q 428 138 430 138 q 425 138 427 138 q 391 104 391 138 l 391 97 q 402 37 394 66 q 420 -18 411 7 q 435 -65 429 -44 q 442 -100 442 -85 q 440 -111 442 -106 q 405 -148 427 -136 q 360 -160 384 -160 q 314 -147 336 -160 q 281 -110 292 -134 q 277 -94 277 -102 q 285 -58 277 -78 q 301 -13 292 -37 q 319 39 311 11 q 330 97 328 66 q 331 105 331 100 q 297 138 331 138 l 290 138 q 229 126 258 134 q 174 109 199 118 q 128 93 149 100 q 94 86 107 86 q 85 87 90 86 q 49 120 61 99 q 37 165 37 142 q 48 212 37 189 q 85 248 60 234 q 101 251 91 251 q 136 243 116 251 q 180 227 156 236 q 232 209 205 217 q 290 197 260 200 q 294 197 292 197 q 298 197 296 197 q 332 230 332 197 q 331 240 332 237 q 319 301 327 274 q 302 352 311 329 q 288 394 294 375 q 282 431 282 413 q 288 464 282 446 q 302 504 294 481 q 318 554 310 526 q 330 615 326 581 q 331 621 331 618 l 331 626 q 297 659 331 659 l 290 659 q 233 647 260 656 q 181 629 205 638 q 137 612 157 619 q 102 604 117 604 q 85 608 92 604 q 48 644 60 621 q 37 690 37 666 q 49 735 37 714 q 85 768 61 757 q 94 770 90 770 q 127 763 107 770 q 173 747 148 755 q 229 729 199 738 q 290 718 258 721 q 294 718 292 718 q 298 718 296 718 q 331 751 331 718 l 331 758 q 319 817 328 789 q 301 868 311 844 q 285 913 292 892 q 277 949 277 933 q 281 965 277 957 q 314 1003 292 990 q 360 1016 336 1016 q 405 1004 384 1016 q 440 966 427 991 q 442 955 442 961 q 435 920 442 941 q 420 873 429 899 q 403 819 411 848 q 392 758 395 789 q 391 750 391 755 q 425 718 391 718 q 428 718 427 718 q 432 718 430 718 q 492 729 463 721 q 547 747 522 738 q 593 763 572 756 q 627 770 614 770 q 639 768 633 770 q 675 735 663 757 q 688 690 688 714 q 676 645 688 667 q 640 608 664 623 q 625 606 634 606 q 588 613 609 606 q 543 629 568 620 q 491 647 519 638 q 432 659 463 656 q 428 659 430 659 q 425 659 427 659 q 391 623 391 659 l 391 615 q 403 554 395 581 q 419 504 411 526 q 434 463 427 481 q 440 428 440 444 q 434 393 440 412 q 419 352 427 374 q 403 301 411 329 q 392 240 395 274 q 391 231 391 237 q 425 197 391 197 l 432 197 q 491 209 463 200 q 544 227 519 218 q 589 243 568 236 q 625 250 610 250 q 640 248 634 250 z "},"":{"ha":454,"x_min":0,"x_max":454,"o":"m 371 765 l 228 903 l 83 765 l 0 765 l 175 1000 l 279 1000 l 454 765 l 371 765 z "},"":{"ha":1576,"x_min":45,"x_max":1532,"o":"m 1532 269 q 1519 154 1532 208 q 1480 62 1506 101 q 1413 0 1453 22 q 1320 -22 1373 -22 q 1226 0 1266 -22 q 1159 62 1185 22 q 1119 154 1132 101 q 1105 269 1105 208 q 1119 385 1105 331 q 1159 477 1132 438 q 1226 538 1185 516 q 1320 561 1266 561 q 1413 538 1373 561 q 1480 477 1453 516 q 1519 385 1506 438 q 1532 269 1532 331 m 1042 269 q 1029 154 1042 208 q 989 62 1016 101 q 923 0 963 22 q 829 -22 883 -22 q 735 0 776 -22 q 668 62 695 22 q 628 154 642 101 q 615 269 615 208 q 628 385 615 331 q 668 477 642 438 q 735 538 695 516 q 829 561 776 561 q 923 538 883 561 q 989 477 963 516 q 1029 385 1016 438 q 1042 269 1042 331 m 293 0 l 205 0 l 796 932 l 882 932 l 293 0 m 471 663 q 458 547 471 600 q 418 455 445 494 q 352 393 392 416 q 258 371 312 371 q 165 393 205 371 q 98 455 125 416 q 58 547 71 494 q 45 663 45 600 q 58 778 45 724 q 98 870 71 831 q 165 932 125 909 q 258 954 205 954 q 352 932 312 954 q 418 870 392 909 q 458 778 445 831 q 471 663 471 724 m 1425 269 q 1419 368 1425 324 q 1400 444 1413 412 q 1368 492 1388 475 q 1320 509 1348 509 q 1271 492 1291 509 q 1236 444 1250 475 q 1216 368 1223 412 q 1210 269 1210 324 q 1216 170 1210 214 q 1236 95 1223 126 q 1271 46 1250 63 q 1320 29 1291 29 q 1368 46 1348 29 q 1400 95 1388 63 q 1419 170 1413 126 q 1425 269 1425 214 m 935 269 q 928 368 935 324 q 910 444 922 412 q 877 492 897 475 q 829 509 857 509 q 780 492 801 509 q 746 444 760 475 q 726 368 732 412 q 720 269 720 324 q 726 170 720 214 q 746 95 732 126 q 780 46 760 63 q 829 29 801 29 q 877 46 857 29 q 910 95 897 63 q 928 170 922 126 q 935 269 935 214 m 364 663 q 358 762 364 718 q 339 837 352 806 q 307 884 327 867 q 258 901 287 901 q 209 884 230 901 q 175 837 189 867 q 155 762 161 806 q 149 663 149 718 q 155 564 149 608 q 175 489 161 519 q 209 441 189 458 q 258 424 230 424 q 307 441 287 424 q 339 489 327 458 q 358 564 352 519 q 364 663 364 608 z "},"":{"ha":724,"x_min":54,"x_max":669,"o":"m 669 261 q 649 157 669 208 q 583 66 628 106 q 469 2 538 26 q 301 -22 399 -22 q 199 -14 244 -22 q 121 3 154 -6 q 54 29 84 15 l 54 275 l 142 275 l 160 118 q 169 100 161 110 q 183 87 176 91 l 195 81 q 222 71 205 77 q 266 60 240 65 q 323 56 291 56 q 405 67 368 56 q 470 99 443 78 q 512 151 497 120 q 528 220 528 181 q 504 293 528 262 q 443 350 479 325 q 364 394 407 374 q 283 432 321 414 q 202 474 241 452 q 133 524 163 496 q 86 591 104 553 q 69 682 69 629 q 94 794 69 744 q 161 880 118 844 q 263 935 204 916 q 390 954 321 954 q 460 950 427 954 q 521 940 492 946 q 575 925 550 933 q 623 911 600 918 l 635 907 l 635 690 l 555 690 l 534 823 q 526 837 533 833 q 513 848 519 842 q 502 855 510 850 q 479 865 494 860 q 443 875 465 871 q 392 879 421 879 q 317 867 350 879 q 260 832 283 854 q 225 781 237 810 q 212 715 212 751 q 225 657 212 684 q 262 609 237 631 q 323 568 287 587 q 406 532 359 549 q 518 482 469 508 q 601 425 567 456 q 652 353 634 393 q 669 261 669 313 m 428 1034 l 323 1034 l 149 1270 l 232 1270 l 376 1131 l 519 1270 l 603 1270 l 428 1034 z "},"":{"ha":555,"x_min":140,"x_max":492,"o":"m 300 449 l 471 180 l 311 158 l 140 439 l 317 758 l 492 779 l 300 449 z "},"":{"ha":1388,"x_min":54,"x_max":1343,"o":"m 725 0 l 725 77 q 611 3 677 29 q 461 -22 545 -22 q 283 15 359 -22 q 156 117 207 52 q 80 272 105 183 q 54 467 54 361 q 79 657 54 568 q 153 812 103 746 q 280 916 203 878 q 460 954 356 954 q 611 928 545 954 q 725 856 677 903 l 725 932 l 1297 932 l 1297 725 l 1214 725 l 1193 839 q 1184 857 1192 849 q 1168 865 1177 865 l 867 865 l 867 519 l 1075 519 q 1092 528 1084 519 q 1100 543 1100 536 l 1114 639 l 1185 639 l 1185 329 l 1114 329 l 1100 425 q 1092 441 1100 433 q 1075 450 1084 450 l 867 450 l 867 68 l 1218 68 q 1234 77 1226 68 q 1244 94 1242 87 l 1268 232 l 1343 232 l 1343 0 l 725 0 m 705 464 q 694 624 705 549 q 656 754 684 699 q 582 843 629 810 q 461 875 534 875 q 338 842 386 875 q 262 754 290 810 q 224 624 235 698 q 214 467 214 549 q 224 308 214 383 q 262 177 235 233 q 337 87 290 121 q 458 54 385 54 q 582 87 534 54 q 657 177 629 121 q 695 307 684 233 q 705 464 705 381 z "},"":{"ha":799,"x_min":54,"x_max":745,"o":"m 54 0 l 54 61 l 571 863 l 210 863 q 194 856 200 863 q 186 839 189 849 l 165 710 l 83 710 l 83 932 l 737 932 l 737 868 l 220 71 l 615 71 q 631 78 625 71 q 639 96 637 85 l 663 257 l 745 257 l 745 0 l 54 0 m 466 1036 l 361 1036 l 186 1272 l 270 1272 l 414 1134 l 557 1272 l 641 1272 l 466 1036 z "},"":{"ha":454,"x_min":0,"x_max":454,"o":"m 279 765 l 175 765 l 0 1000 l 83 1000 l 228 863 l 371 1000 l 454 1000 l 279 765 z "},"":{"ha":330,"x_min":0,"x_max":330,"o":"m 330 929 q 317 865 330 895 q 282 813 304 836 q 230 778 260 791 q 165 765 200 765 q 101 778 131 765 q 48 813 71 791 q 13 865 26 836 q 0 929 0 895 q 13 994 0 964 q 48 1047 26 1024 q 101 1083 71 1069 q 165 1096 131 1096 q 230 1083 200 1096 q 282 1047 260 1069 q 317 994 304 1024 q 330 929 330 964 m 262 929 q 255 967 262 949 q 234 999 248 985 q 203 1020 221 1013 q 165 1028 186 1028 q 127 1020 145 1028 q 96 999 109 1013 q 75 967 83 985 q 68 929 68 949 q 75 892 68 909 q 96 861 83 874 q 127 840 109 848 q 165 832 145 832 q 203 840 186 832 q 234 861 221 848 q 255 892 248 874 q 262 929 262 909 z "},"":{"ha":490,"x_min":64,"x_max":425,"o":"m 418 798 q 331 767 364 788 q 280 722 298 747 q 255 670 262 696 q 249 623 249 644 q 255 582 249 601 q 272 548 262 563 q 294 525 281 534 q 318 517 306 517 q 332 519 323 517 q 348 525 340 522 q 368 533 357 528 l 389 497 q 357 483 374 490 q 323 466 342 475 q 281 443 304 456 q 251 425 267 435 q 220 407 235 415 q 193 393 205 399 q 171 387 180 387 q 141 396 159 387 q 105 425 123 406 q 76 475 88 445 q 64 549 64 506 q 72 609 64 576 q 96 674 79 642 q 140 737 113 707 q 205 790 167 767 q 292 828 243 814 q 404 842 341 842 q 414 842 409 842 q 425 842 420 842 l 418 798 z "},"":{"ha":490,"x_min":65,"x_max":427,"o":"m 427 684 q 419 623 427 656 q 394 558 411 591 q 350 495 377 526 q 286 441 323 465 q 198 404 248 418 q 87 389 149 389 q 76 390 81 389 q 65 390 71 390 l 72 435 q 159 465 125 444 q 210 510 192 485 q 235 562 229 535 q 241 610 241 588 q 235 650 241 631 q 219 684 229 669 q 197 707 209 699 q 172 715 184 715 q 158 713 167 715 q 142 707 150 710 q 122 699 132 703 l 102 734 q 133 749 115 741 q 167 766 147 756 q 210 789 186 775 q 239 807 224 797 q 270 825 255 817 q 298 839 285 833 q 319 844 311 844 q 350 835 332 844 q 385 807 368 826 q 414 757 402 787 q 427 684 427 726 z "},"":{"ha":907,"x_min":64,"x_max":842,"o":"m 835 798 q 748 767 781 788 q 696 722 715 747 q 672 670 678 696 q 665 623 665 644 q 672 582 665 601 q 688 548 678 563 q 710 525 698 534 q 734 517 722 517 q 748 519 740 517 q 765 525 757 522 q 785 533 774 528 l 806 497 q 774 483 792 490 q 740 466 760 475 q 697 443 720 456 q 667 425 683 435 q 637 407 652 415 q 609 393 623 399 q 587 387 596 387 q 557 396 575 387 q 522 425 539 406 q 493 475 505 445 q 481 549 481 506 q 489 609 481 576 q 513 674 496 642 q 557 737 530 707 q 622 790 584 767 q 708 828 659 814 q 820 842 758 842 q 831 842 825 842 q 842 842 836 842 l 835 798 m 418 798 q 331 767 364 788 q 280 722 298 747 q 255 670 262 696 q 249 623 249 644 q 255 582 249 601 q 272 548 262 563 q 294 525 281 534 q 318 517 306 517 q 332 519 323 517 q 348 525 340 522 q 368 533 357 528 l 389 497 q 357 483 374 490 q 323 466 342 475 q 281 443 304 456 q 251 425 267 435 q 220 407 235 415 q 193 393 205 399 q 171 387 180 387 q 141 396 159 387 q 105 425 123 406 q 76 475 88 445 q 64 549 64 506 q 72 609 64 576 q 96 674 79 642 q 140 737 113 707 q 205 790 167 767 q 292 828 243 814 q 404 842 341 842 q 414 842 409 842 q 425 842 420 842 l 418 798 z "},"":{"ha":907,"x_min":65,"x_max":843,"o":"m 843 684 q 835 623 843 656 q 810 558 827 591 q 767 495 793 526 q 702 441 740 465 q 615 404 665 418 q 504 389 566 389 q 493 390 498 389 q 482 390 488 390 l 489 435 q 576 465 543 444 q 627 510 609 485 q 652 562 646 535 q 659 610 659 588 q 652 650 659 631 q 635 684 646 669 q 613 707 625 699 q 589 715 601 715 q 575 713 583 715 q 559 707 567 710 q 539 699 549 703 l 518 734 q 549 749 532 741 q 584 766 564 756 q 626 789 603 776 q 656 807 640 798 q 686 825 671 817 q 714 839 701 833 q 736 844 727 844 q 766 835 748 844 q 802 807 785 826 q 831 757 819 787 q 843 684 843 726 m 427 684 q 419 623 427 656 q 394 558 411 591 q 350 495 377 526 q 286 441 323 465 q 198 404 248 418 q 87 389 149 389 q 76 390 81 389 q 65 390 71 390 l 72 435 q 159 465 125 444 q 210 510 192 485 q 235 562 229 535 q 241 610 241 588 q 235 650 241 631 q 219 684 229 669 q 197 707 209 699 q 172 715 184 715 q 158 713 167 715 q 142 707 150 710 q 122 699 132 703 l 102 734 q 133 749 115 741 q 167 766 147 756 q 210 789 186 775 q 239 807 224 797 q 270 825 255 817 q 298 839 285 833 q 319 844 311 844 q 350 835 332 844 q 385 807 368 826 q 414 757 402 787 q 427 684 427 726 z "},"":{"ha":261,"x_min":49,"x_max":212,"o":"m 212 472 q 206 440 212 455 q 189 414 199 425 q 163 396 178 403 q 131 390 148 390 q 98 396 113 390 q 73 414 83 403 q 55 440 62 425 q 49 472 49 455 q 55 504 49 489 q 73 530 62 519 q 98 548 83 541 q 131 554 113 554 q 163 548 148 554 q 189 530 178 541 q 206 504 199 519 q 212 472 212 489 z "},"":{"ha":842,"x_min":36,"x_max":803,"o":"m 36 260 l 36 407 l 803 407 l 803 260 l 36 260 z "},"":{"ha":1389,"x_min":0,"x_max":1389,"o":"m 0 261 l 0 407 l 1389 407 l 1389 261 l 0 261 z "},"":{"ha":482,"x_min":0,"x_max":482,"o":"m 482 965 q 460 907 474 935 q 427 858 447 879 q 381 825 408 838 q 321 812 355 812 q 287 818 302 812 q 258 830 272 823 q 231 846 244 837 q 202 862 217 854 q 168 874 186 869 q 127 879 150 879 q 101 873 113 879 q 79 858 89 867 q 63 837 69 849 q 56 812 57 825 l 0 812 q 21 871 8 843 q 55 920 35 899 q 101 953 75 941 q 161 965 127 965 q 195 960 180 965 q 223 948 210 955 q 251 932 237 941 q 279 916 264 923 q 312 904 294 909 q 353 899 330 899 q 379 904 367 899 q 402 919 392 910 q 419 941 412 928 q 427 965 425 953 l 482 965 z "},"":{"ha":925,"x_min":47,"x_max":878,"o":"m 726 554 l 726 585 l 768 591 l 768 882 l 643 554 l 610 554 l 492 882 l 492 591 l 533 585 l 533 554 l 407 554 l 407 585 l 450 591 l 450 879 l 407 888 l 407 920 l 551 920 l 551 901 l 643 657 l 734 901 l 734 920 l 878 920 l 878 888 l 833 879 l 833 591 l 878 585 l 878 554 l 726 554 m 329 822 l 319 880 q 314 888 319 888 l 241 888 l 241 591 q 261 589 252 590 q 278 586 269 587 q 293 585 287 585 l 293 554 l 122 554 l 122 585 l 137 586 q 155 589 146 587 q 175 591 164 590 l 175 888 l 102 888 q 96 880 96 888 l 87 822 l 47 822 l 47 920 l 367 920 l 367 822 l 329 822 z "},"":{"ha":553,"x_min":47,"x_max":505,"o":"m 328 765 l 225 765 l 52 1000 l 134 1000 l 277 863 l 419 1000 l 503 1000 l 328 765 m 505 201 q 487 110 505 151 q 435 41 469 69 q 351 -2 401 13 q 240 -17 302 -17 q 178 -13 208 -17 q 122 -4 148 -9 q 77 8 97 2 q 47 18 58 14 l 47 203 l 118 203 l 135 85 q 187 59 156 71 q 258 46 218 46 q 311 55 288 46 q 350 79 334 64 q 375 114 366 94 q 383 154 383 133 q 373 201 383 181 q 343 237 363 221 q 296 268 324 253 q 232 300 268 282 l 214 309 q 146 345 176 327 q 97 384 117 363 q 67 429 77 404 q 57 485 57 454 q 74 568 57 531 q 122 632 90 606 q 200 672 154 658 q 307 686 247 686 q 366 683 338 686 q 416 675 393 680 q 457 665 439 670 q 485 654 475 659 l 485 490 l 412 490 l 401 587 q 357 609 387 599 q 296 619 328 619 q 211 593 238 619 q 183 526 183 567 q 191 485 183 503 q 217 452 199 467 q 264 420 235 436 q 338 385 294 404 q 405 350 374 368 q 458 310 435 332 q 493 262 480 288 q 505 201 505 235 z "},"":{"ha":555,"x_min":64,"x_max":415,"o":"m 239 179 l 64 158 l 256 489 l 85 757 l 244 779 l 415 498 l 239 179 z "},"":{"ha":1139,"x_min":47,"x_max":1092,"o":"m 1092 383 q 1090 363 1092 372 l 672 363 q 684 259 672 311 q 722 168 695 208 q 791 102 748 127 q 899 77 835 77 q 954 84 927 77 q 1005 102 981 91 q 1051 127 1029 113 q 1090 154 1072 140 l 1090 69 q 1043 38 1069 54 q 987 11 1017 23 q 924 -9 958 -1 q 852 -17 890 -17 q 768 -5 806 -17 q 700 27 730 7 q 647 71 670 47 q 607 121 624 96 q 564 71 587 95 q 511 26 541 46 q 445 -5 481 7 q 363 -17 408 -17 q 229 11 288 -17 q 130 87 170 39 q 68 200 90 136 q 47 335 47 264 q 69 471 47 407 q 131 583 90 535 q 231 659 172 631 q 366 686 290 686 q 454 674 414 686 q 526 644 494 663 q 580 602 557 625 q 615 554 602 578 q 659 609 633 585 q 714 651 684 633 q 778 677 744 668 q 847 686 812 686 q 953 665 907 686 q 1030 607 999 644 q 1076 516 1061 569 q 1092 401 1092 464 l 1092 383 m 541 332 q 530 444 541 391 q 498 535 519 496 q 444 596 477 574 q 367 619 412 619 q 288 596 321 619 q 234 534 255 573 q 202 445 212 496 q 192 339 192 394 q 203 228 192 281 q 236 135 214 176 q 290 71 258 95 q 367 47 323 47 q 444 71 411 47 q 498 134 477 94 q 530 224 519 173 q 541 332 541 276 m 951 456 q 944 519 951 490 q 922 571 937 549 q 885 606 907 593 q 833 619 863 619 q 773 604 800 619 q 727 563 747 589 q 695 501 707 536 q 679 425 683 466 l 951 425 l 951 456 z "},"":{"ha":642,"x_min":47,"x_max":595,"o":"m 47 0 l 47 74 l 415 604 l 174 604 q 156 594 163 604 q 146 575 148 585 l 132 472 l 61 472 l 61 669 l 575 669 l 575 612 l 195 66 l 475 66 q 485 70 479 66 q 494 78 490 73 q 502 89 498 83 q 505 100 505 94 l 519 210 l 595 210 l 595 0 l 47 0 m 380 765 l 275 765 l 100 1000 l 184 1000 l 328 863 l 471 1000 l 555 1000 l 380 765 z "},"":{"ha":868,"x_min":14,"x_max":854,"o":"m 672 1154 q 666 1124 672 1139 q 650 1099 660 1110 q 626 1082 640 1088 q 596 1076 612 1076 q 567 1082 581 1076 q 543 1099 553 1088 q 527 1124 532 1110 q 521 1154 521 1139 q 527 1182 521 1168 q 544 1207 533 1196 q 568 1224 554 1218 q 596 1231 581 1231 q 626 1225 612 1231 q 650 1208 640 1219 q 666 1184 660 1198 q 672 1154 672 1170 m 383 1154 q 377 1124 383 1139 q 361 1099 371 1110 q 337 1082 351 1088 q 307 1076 323 1076 q 278 1082 292 1076 q 254 1099 264 1088 q 238 1124 244 1110 q 232 1153 232 1137 q 238 1182 232 1168 q 255 1207 244 1196 q 279 1224 266 1218 q 309 1231 293 1231 q 338 1225 324 1231 q 361 1208 351 1219 q 377 1184 372 1198 q 383 1154 383 1170 m 779 860 l 500 396 l 500 96 q 507 76 500 85 q 529 65 515 66 l 618 60 l 618 0 l 244 0 l 244 60 l 330 65 q 353 76 345 66 q 361 96 361 85 l 361 375 l 94 857 l 14 873 l 14 932 l 343 932 l 343 873 l 276 867 q 254 850 254 863 q 257 839 254 844 l 452 475 l 667 835 q 669 844 669 840 q 664 857 669 852 q 650 864 658 863 l 572 873 l 572 932 l 854 932 l 854 873 l 779 860 z "},"":{"ha":407,"x_min":0,"x_max":0,"o":""},"":{"ha":750,"x_min":225,"x_max":437,"o":"m 437 646 q 429 604 437 623 q 406 570 420 584 q 373 547 392 555 q 332 538 353 538 q 290 547 309 538 q 256 570 271 555 q 233 604 241 584 q 225 646 225 623 q 233 687 225 667 q 256 720 241 706 q 290 743 271 734 q 332 751 309 751 q 373 743 353 751 q 406 720 392 734 q 429 687 420 706 q 437 646 437 667 m 427 -1 q 402 -118 427 -81 q 332 -156 377 -156 q 292 -148 309 -156 q 263 -122 275 -140 q 246 -74 252 -104 q 240 1 240 -43 q 241 25 240 12 q 243 58 241 37 q 250 109 245 78 q 260 189 254 140 q 276 307 267 238 q 300 473 286 376 l 366 473 q 388 309 378 378 q 405 192 398 240 q 416 112 412 143 q 422 60 420 81 q 426 25 425 39 q 427 -1 427 12 z "},"":{"ha":782,"x_min":106,"x_max":676,"o":"m 676 32 q 662 25 675 31 q 624 14 648 20 q 562 4 599 9 q 476 0 525 0 l 476 -138 l 410 -138 l 410 3 q 283 39 339 11 q 187 113 227 68 q 127 219 148 159 q 106 350 106 279 q 128 478 106 419 q 190 583 150 538 q 285 658 229 629 q 410 697 341 688 l 410 839 l 476 839 l 476 703 q 527 701 503 703 q 575 694 551 699 q 624 683 600 690 q 676 668 649 677 l 676 464 l 610 464 q 598 535 602 510 q 592 571 594 559 q 589 584 590 582 q 589 587 589 586 q 584 603 587 595 q 574 614 581 610 q 558 622 566 618 q 539 628 550 625 q 512 632 528 631 q 476 635 497 634 l 476 66 q 516 70 498 67 q 547 77 534 73 q 574 86 562 81 q 584 96 580 90 q 590 109 588 103 l 608 241 l 676 241 l 676 32 m 410 631 q 353 605 382 625 q 297 551 323 585 q 255 469 272 517 q 239 354 239 420 q 252 243 239 292 q 289 159 266 195 q 344 101 313 123 q 410 71 375 79 l 410 631 z "},"":{"ha":782,"x_min":60,"x_max":722,"o":"m 722 876 q 715 845 722 859 q 696 820 708 830 q 669 803 684 809 q 636 798 653 798 q 604 801 621 798 q 586 804 595 802 l 586 943 q 565 949 576 946 q 545 952 555 951 q 524 954 534 954 q 454 943 484 954 q 404 911 425 931 q 370 864 383 891 q 350 806 357 837 q 340 743 343 776 q 338 679 338 711 q 338 629 338 656 q 339 579 338 602 l 340 525 l 599 525 l 599 457 l 340 457 q 335 338 340 391 q 313 244 329 286 q 268 169 296 203 q 193 106 239 135 q 241 110 218 108 l 279 113 q 309 114 298 114 l 720 114 l 720 0 l 60 0 l 60 85 q 131 118 102 96 q 177 173 159 140 q 203 250 195 206 q 211 348 211 294 l 211 355 q 212 361 212 357 l 212 374 q 211 399 212 385 q 210 427 211 414 q 210 457 210 441 l 113 457 l 113 525 l 208 525 q 208 586 208 557 q 207 636 207 611 l 207 677 q 224 812 207 749 q 279 922 242 876 q 371 996 315 969 q 503 1023 427 1023 q 573 1016 535 1023 q 645 990 612 1008 q 700 944 677 972 q 722 876 722 916 z "},"":{"ha":842,"x_min":58,"x_max":783,"o":"m 734 236 l 595 376 q 515 334 559 349 q 422 318 471 318 q 329 333 373 318 q 249 376 284 348 l 109 236 l 58 286 l 200 427 q 155 508 172 463 q 139 602 139 553 q 155 694 139 650 q 197 774 170 738 l 58 913 l 109 961 l 245 822 q 327 868 282 852 q 422 884 372 884 q 515 868 471 884 q 596 823 559 852 l 734 961 l 783 913 l 646 774 q 689 694 674 738 q 704 602 704 650 q 688 506 704 551 q 643 425 673 462 l 783 285 l 734 236 m 635 602 q 618 684 635 646 q 573 752 602 723 q 505 797 544 781 q 422 814 467 814 q 339 797 378 814 q 271 752 300 781 q 225 684 242 723 q 208 602 208 646 q 225 518 208 557 q 271 450 242 479 q 339 404 300 421 q 422 387 378 387 q 505 404 467 387 q 573 450 544 421 q 618 518 602 479 q 635 602 635 557 z "},"":{"ha":828,"x_min":14,"x_max":814,"o":"m 736 856 l 587 593 l 783 593 l 783 532 l 553 532 l 472 390 l 783 390 l 783 329 l 473 329 l 473 96 q 475 87 473 92 q 482 78 477 82 q 494 70 487 73 q 510 65 500 66 l 590 58 l 590 0 l 228 0 l 228 58 l 310 65 q 337 77 329 66 q 345 96 345 88 l 345 329 l 45 329 l 45 390 l 342 390 l 267 532 l 45 532 l 45 593 l 233 593 l 96 857 l 14 873 l 14 932 l 325 932 l 325 873 l 265 864 q 246 844 246 861 q 249 833 246 840 l 432 475 l 633 832 q 637 843 637 837 q 632 855 637 849 q 615 863 627 861 l 549 873 l 549 932 l 814 932 l 814 873 l 736 856 z "},"":{"ha":694,"x_min":300,"x_max":395,"o":"m 300 457 l 300 972 l 395 972 l 395 457 l 300 457 m 300 -237 l 300 278 l 395 278 l 395 -237 l 300 -237 z "},"":{"ha":694,"x_min":82,"x_max":612,"o":"m 612 452 q 598 375 612 411 q 560 311 584 340 q 506 260 536 282 q 444 227 476 239 q 501 195 475 212 q 546 154 527 177 q 576 104 566 132 q 587 43 587 76 q 568 -43 587 -4 q 514 -110 549 -82 q 433 -154 480 -138 q 329 -170 385 -170 q 260 -165 293 -170 q 199 -153 227 -160 q 150 -138 172 -146 q 115 -125 128 -131 l 115 57 l 184 57 q 188 37 186 44 q 190 23 189 29 q 192 12 191 18 q 195 -4 193 5 q 199 -28 197 -14 q 204 -68 201 -43 q 233 -83 216 -76 q 267 -94 249 -90 q 302 -102 284 -99 q 335 -104 319 -104 q 392 -97 366 -104 q 437 -74 418 -89 q 467 -39 456 -60 q 478 8 478 -18 q 461 62 478 39 q 416 105 444 85 q 353 143 389 125 q 280 180 317 161 q 207 221 243 199 q 144 272 172 243 q 99 338 116 301 q 82 424 82 375 q 95 504 82 470 q 130 563 108 538 q 182 607 152 589 q 245 642 212 626 q 189 675 214 657 q 145 715 163 694 q 117 763 127 737 q 107 819 107 789 q 124 905 107 867 q 174 969 140 943 q 258 1009 208 996 q 376 1023 309 1023 q 437 1020 407 1023 q 493 1011 467 1017 q 539 1001 519 1006 q 570 990 559 995 l 570 810 l 504 810 l 490 922 q 465 936 479 928 q 434 948 451 943 q 399 958 418 954 q 359 962 380 962 q 303 954 328 962 q 259 929 277 945 q 231 892 241 913 q 221 846 221 871 q 238 798 221 819 q 282 759 255 777 q 345 723 310 741 q 417 686 380 705 q 489 645 454 667 q 551 595 524 623 q 595 532 578 568 q 612 452 612 497 m 504 416 q 454 527 504 479 q 313 612 404 574 q 257 584 281 602 q 218 546 234 567 q 195 502 203 525 q 187 456 187 479 q 199 397 187 424 q 236 347 212 371 q 299 301 261 323 q 387 254 336 278 q 422 278 402 262 q 461 316 443 294 q 491 363 479 338 q 504 416 504 389 z "},"":{"ha":439,"x_min":0,"x_max":439,"o":"m 439 890 q 433 861 439 875 q 417 836 427 846 q 393 819 407 825 q 364 812 380 812 q 335 819 349 812 q 310 836 321 825 q 294 861 300 846 q 288 890 288 875 q 294 919 288 905 q 311 943 300 932 q 335 960 321 954 q 364 966 349 966 q 393 960 380 966 q 417 944 407 954 q 433 920 427 934 q 439 890 439 906 m 151 890 q 145 861 151 875 q 129 836 139 846 q 105 819 119 825 q 75 812 91 812 q 46 819 60 812 q 22 836 33 825 q 6 860 12 846 q 0 889 0 873 q 6 918 0 904 q 22 943 12 932 q 46 960 33 954 q 75 966 60 966 q 105 960 91 966 q 129 944 119 954 q 145 920 139 934 q 151 890 151 906 z "},"":{"ha":1206,"x_min":83,"x_max":1122,"o":"m 1122 501 q 1104 363 1122 429 q 1052 238 1085 296 q 970 133 1018 180 q 865 52 923 85 q 741 -1 808 18 q 603 -20 675 -20 q 465 -1 531 -20 q 340 52 398 18 q 235 133 283 85 q 154 238 188 180 q 102 363 121 296 q 83 501 83 429 q 102 640 83 573 q 154 764 121 706 q 235 869 188 822 q 340 951 283 917 q 465 1003 398 985 q 603 1022 531 1022 q 741 1003 675 1022 q 865 951 808 985 q 970 869 923 917 q 1052 764 1018 822 q 1104 640 1085 706 q 1122 501 1122 573 m 1053 501 q 1017 677 1053 595 q 921 820 982 759 q 778 917 860 882 q 603 953 696 953 q 483 937 541 953 q 376 891 426 920 q 284 820 326 861 q 214 729 243 779 q 169 621 184 679 q 153 501 153 564 q 169 381 153 439 q 214 273 184 323 q 284 182 243 223 q 376 112 326 141 q 483 66 426 82 q 603 50 541 50 q 778 85 696 50 q 921 182 860 121 q 1017 326 982 243 q 1053 501 1053 408 m 873 401 q 852 313 869 355 q 804 241 836 272 q 723 192 772 210 q 607 174 675 174 q 499 188 552 174 q 405 239 447 202 q 338 338 363 275 q 313 498 313 401 q 328 633 313 572 q 377 738 343 694 q 465 805 411 781 q 596 829 519 829 q 732 810 680 829 q 815 760 785 790 q 857 691 846 729 q 868 618 868 654 l 757 618 q 716 718 757 682 q 587 754 676 754 q 528 739 557 754 q 476 693 498 724 q 440 614 454 663 q 427 498 427 566 q 440 386 427 431 q 477 312 453 340 q 535 272 501 284 q 608 260 568 260 q 679 274 650 260 q 725 310 707 288 q 751 356 743 331 q 762 401 760 380 l 873 401 z "},"":{"ha":473,"x_min":37,"x_max":452,"o":"m 318 532 l 306 581 q 256 551 282 564 q 208 531 235 540 q 154 522 180 522 q 109 530 130 522 q 72 552 87 537 q 46 587 56 566 q 37 635 37 608 q 46 677 37 658 q 82 715 54 697 q 163 751 111 734 q 306 786 216 768 l 306 822 q 286 884 306 864 q 222 904 265 904 q 181 900 199 904 q 157 893 164 895 l 157 821 l 92 821 q 69 825 79 821 q 58 844 58 829 q 75 889 58 871 q 118 920 92 908 q 179 938 145 932 q 245 943 212 943 q 315 934 288 943 q 359 908 343 925 q 382 869 376 892 q 389 818 389 846 l 389 585 q 394 573 389 577 q 407 567 399 568 l 452 564 l 452 532 l 318 532 m 306 754 q 209 726 245 740 q 155 699 174 713 q 131 670 136 684 q 126 640 126 655 q 131 615 126 627 q 144 593 136 602 q 165 577 153 583 q 195 571 178 571 q 232 577 212 571 q 269 590 252 583 q 306 610 288 598 l 306 754 m 43 422 l 43 464 l 447 464 l 447 422 l 43 422 z "},"":{"ha":833,"x_min":140,"x_max":770,"o":"m 578 449 l 749 180 l 589 158 l 418 439 l 595 758 l 770 779 l 578 449 m 300 449 l 471 180 l 311 158 l 140 439 l 317 758 l 492 779 l 300 449 z "},"":{"ha":1157,"x_min":179,"x_max":978,"o":"m 895 262 l 895 500 l 179 500 l 179 583 l 978 583 l 978 262 l 895 262 z "},"":{"ha":444,"x_min":61,"x_max":383,"o":"m 61 282 l 61 386 l 383 386 l 383 282 l 61 282 z "},"":{"ha":1162,"x_min":47,"x_max":1116,"o":"m 1116 486 q 1097 344 1116 412 q 1043 216 1078 275 q 959 107 1008 156 q 850 23 910 58 q 722 -31 791 -12 q 579 -50 653 -50 q 439 -31 507 -50 q 312 23 371 -12 q 204 107 253 58 q 120 216 155 156 q 66 344 85 275 q 47 486 47 412 q 66 629 47 560 q 120 757 85 697 q 204 866 155 817 q 312 950 252 915 q 439 1004 371 985 q 582 1023 508 1023 q 723 1004 654 1023 q 850 950 791 985 q 958 866 909 915 q 1042 758 1007 817 q 1096 629 1077 698 q 1116 486 1116 560 m 1055 486 q 1038 614 1055 553 q 990 728 1021 675 q 917 825 960 781 q 821 900 873 869 q 708 948 768 931 q 582 965 647 965 q 456 948 517 965 q 343 900 396 931 q 247 826 291 869 q 173 729 203 782 q 124 613 142 675 q 107 484 107 551 q 124 358 107 418 q 172 245 141 298 q 245 149 202 192 q 341 74 288 105 q 454 25 394 43 q 581 8 515 8 q 707 25 646 8 q 820 74 768 43 q 916 149 873 105 q 990 246 960 193 q 1038 360 1021 299 q 1055 486 1055 421 m 926 197 q 914 196 923 197 q 894 194 905 195 q 869 192 882 193 q 846 191 857 191 q 771 202 800 191 q 725 234 743 214 q 699 278 708 254 q 682 329 690 303 q 665 380 674 355 q 638 425 656 405 q 593 456 621 444 q 518 468 564 468 q 488 467 503 468 q 472 467 474 467 l 472 260 q 477 248 472 254 q 493 240 483 241 l 546 236 l 546 197 l 300 197 l 300 236 l 353 240 q 369 248 363 241 q 374 260 374 254 l 374 743 q 369 755 374 749 q 353 762 363 761 l 300 766 l 300 806 l 558 806 q 660 797 615 806 q 737 770 705 789 q 785 720 768 751 q 802 644 802 689 q 788 584 802 609 q 752 540 774 558 q 700 511 730 522 q 639 493 671 500 q 705 468 680 484 q 743 432 729 452 q 763 390 757 412 q 774 346 769 368 q 787 303 780 323 q 810 268 794 283 q 853 244 826 253 q 926 235 881 235 l 926 197 m 693 640 q 684 691 693 669 q 653 730 674 714 q 599 754 632 746 q 519 762 566 762 l 472 762 l 472 513 q 479 512 473 513 q 493 512 485 512 q 510 512 501 512 q 524 511 518 511 q 596 518 565 511 q 649 539 628 524 q 682 579 671 555 q 693 640 693 604 z "},"":{"ha":465,"x_min":0,"x_max":465,"o":"m 0 812 l 0 901 l 465 901 l 465 812 l 0 812 z "},"":{"ha":465,"x_min":0,"x_max":465,"o":"m 0 814 l 0 902 l 465 902 l 465 814 l 0 814 z "},"":{"ha":444,"x_min":54,"x_max":390,"o":"m 390 847 q 377 782 390 812 q 341 728 363 751 q 288 692 318 705 q 222 679 257 679 q 157 692 187 679 q 103 728 126 705 q 67 782 81 751 q 54 847 54 812 q 67 912 54 882 q 103 966 81 943 q 157 1002 126 989 q 222 1015 187 1015 q 288 1002 257 1015 q 341 966 318 989 q 377 912 363 943 q 390 847 390 882 m 309 847 q 302 880 309 865 q 283 908 295 896 q 256 926 271 920 q 222 933 240 933 q 189 926 205 933 q 161 908 173 920 q 143 880 150 896 q 136 847 136 865 q 143 814 136 829 q 161 786 150 798 q 189 768 173 774 q 222 761 205 761 q 256 768 240 761 q 283 786 271 774 q 302 814 295 798 q 309 847 309 829 z "},"":{"ha":1157,"x_min":172,"x_max":985,"o":"m 619 488 l 619 254 l 539 254 l 539 488 l 172 488 l 172 567 l 539 567 l 539 800 l 619 800 l 619 567 l 985 567 l 985 488 l 619 488 m 172 28 l 172 107 l 985 107 l 985 28 l 172 28 z "},"":{"ha":562,"x_min":45,"x_max":492,"o":"m 492 835 q 467 747 492 788 q 399 666 443 705 q 292 586 355 626 q 154 503 230 546 l 481 503 l 481 416 l 45 416 l 45 496 q 207 613 142 563 q 311 704 272 664 q 365 774 349 743 q 380 833 380 805 q 376 862 380 847 q 360 891 372 878 q 330 912 349 904 q 281 921 311 921 q 230 911 251 921 q 196 887 210 902 q 176 853 182 871 q 167 818 169 835 l 56 818 q 120 947 62 904 q 285 990 178 990 q 373 979 334 990 q 438 948 412 968 q 478 899 465 928 q 492 835 492 870 z "},"":{"ha":562,"x_min":50,"x_max":492,"o":"m 492 585 q 478 524 492 554 q 437 470 465 494 q 364 431 408 446 q 258 416 320 416 q 157 431 197 416 q 93 469 117 446 q 60 519 69 492 q 50 574 50 547 l 161 574 q 190 511 163 536 q 264 486 218 486 q 308 493 287 486 q 345 512 329 500 q 371 543 361 525 q 380 583 380 561 q 376 609 380 592 q 358 642 371 625 q 324 670 346 658 q 269 682 302 682 l 212 682 l 212 743 q 298 752 267 743 q 345 775 330 762 q 365 806 361 789 q 368 839 368 823 q 364 870 368 854 q 349 898 359 886 q 321 919 338 911 q 278 926 304 926 q 202 906 227 926 q 175 844 177 885 l 62 844 q 81 908 64 881 q 126 954 98 936 q 192 981 155 972 q 272 990 229 990 q 353 981 315 990 q 420 952 391 971 q 465 905 448 933 q 481 839 481 876 q 470 788 481 808 q 443 754 460 768 q 406 732 427 741 q 364 717 385 724 q 407 702 385 712 q 449 676 430 692 q 479 637 467 660 q 492 585 492 615 z "},"":{"ha":488,"x_min":165,"x_max":488,"o":"m 488 956 q 479 923 488 937 q 456 900 471 909 l 243 765 l 165 765 l 349 981 q 380 1008 364 998 q 424 1018 395 1018 q 454 1012 442 1018 q 474 997 467 1006 q 485 977 481 988 q 488 956 488 966 z "},"":{"ha":760,"x_min":81,"x_max":768,"o":"m 768 150 q 753 74 765 105 q 722 22 741 42 q 679 -8 703 1 q 628 -17 655 -17 q 587 -11 607 -17 q 551 12 568 -4 q 523 53 534 27 q 505 118 511 79 q 450 58 475 83 q 400 16 425 33 q 351 -9 376 -1 q 298 -17 326 -17 q 275 -16 291 -17 q 242 -8 260 -14 q 206 11 224 -2 q 175 45 188 23 l 175 11 q 180 -56 175 -22 q 192 -121 185 -90 q 203 -180 198 -153 q 208 -229 208 -208 q 203 -261 208 -247 q 188 -286 197 -275 q 167 -303 179 -297 q 142 -309 155 -309 q 119 -303 130 -309 q 99 -287 108 -297 q 86 -263 91 -277 q 81 -232 81 -249 q 84 -193 81 -210 q 92 -156 87 -175 q 103 -113 97 -136 q 113 -55 109 -90 q 121 26 118 -21 q 125 140 125 74 l 125 669 l 254 669 l 254 273 q 257 188 254 221 q 267 136 260 155 q 279 112 271 123 q 298 91 287 100 q 323 76 309 81 q 354 71 338 71 q 429 95 395 71 q 505 167 464 120 l 505 669 l 635 669 l 635 191 q 638 118 635 144 q 649 79 642 92 q 664 65 655 67 q 682 62 672 62 q 702 66 693 62 q 717 81 710 71 q 729 107 724 91 q 741 150 735 124 l 768 150 z "},"":{"ha":778,"x_min":83,"x_max":694,"o":"m 611 949 l 611 0 l 542 0 l 542 949 l 416 949 l 416 0 l 347 0 l 347 530 q 291 535 321 530 q 231 552 260 541 q 175 581 202 563 q 128 625 149 599 q 96 687 108 652 q 83 768 83 723 q 96 849 83 814 q 128 910 108 884 q 175 954 149 936 q 231 983 202 972 q 290 998 260 994 q 347 1003 320 1003 l 694 1003 l 694 949 l 611 949 z "},"":{"ha":390,"x_min":102,"x_max":289,"o":"m 289 465 q 281 429 289 446 q 261 399 274 412 q 231 379 248 387 q 195 372 214 372 q 158 379 175 372 q 129 399 142 387 q 109 429 116 412 q 102 465 102 446 q 109 502 102 484 q 129 532 116 519 q 158 552 142 545 q 195 559 175 559 q 231 552 214 559 q 261 532 248 545 q 281 502 274 519 q 289 465 289 484 z "},"":{"ha":321,"x_min":57,"x_max":321,"o":"m 321 -180 q 309 -237 321 -213 q 275 -279 296 -262 q 224 -304 254 -296 q 160 -313 195 -313 q 123 -311 142 -313 q 90 -306 105 -309 q 57 -298 73 -303 l 57 -244 q 85 -250 71 -248 q 112 -254 98 -252 q 140 -256 127 -256 q 173 -253 157 -256 q 202 -243 189 -250 q 223 -226 215 -237 q 231 -199 231 -215 q 212 -160 231 -174 q 165 -147 193 -147 q 155 -149 160 -147 q 144 -151 149 -150 l 134 -155 l 134 0 l 187 0 l 187 -87 q 201 -84 195 -86 q 220 -82 208 -82 q 259 -87 241 -82 q 291 -105 277 -93 q 313 -135 304 -117 q 321 -180 321 -154 z "},"":{"ha":562,"x_min":119,"x_max":374,"o":"m 268 416 l 268 863 q 235 842 254 852 q 196 823 216 831 q 155 807 175 814 q 119 796 134 800 l 119 882 q 159 900 136 888 q 203 926 182 912 q 241 953 224 940 q 264 974 258 966 l 374 974 l 374 416 l 268 416 z "},"":{"ha":497,"x_min":33,"x_max":464,"o":"m 464 732 q 449 649 464 688 q 406 583 433 611 q 338 538 378 555 q 249 522 298 522 q 159 538 199 522 q 92 582 119 553 q 48 648 64 610 q 33 732 33 686 q 48 815 33 777 q 92 882 64 854 q 160 927 120 911 q 252 943 201 943 q 341 927 302 943 q 408 881 381 910 q 450 814 435 852 q 464 732 464 775 m 37 422 l 37 464 l 461 464 l 461 422 l 37 422 m 371 732 q 363 798 371 766 q 341 853 356 829 q 303 891 326 877 q 250 905 281 905 q 196 891 219 905 q 158 853 173 877 q 136 798 143 829 q 129 732 129 766 q 136 667 129 699 q 159 612 144 636 q 196 574 174 589 q 249 559 218 559 q 303 574 280 559 q 341 612 326 588 q 363 667 356 635 q 371 732 371 698 z "},"":{"ha":833,"x_min":64,"x_max":693,"o":"m 517 179 l 342 158 l 533 489 l 363 757 l 522 779 l 693 498 l 517 179 m 239 179 l 64 158 l 256 489 l 85 757 l 244 779 l 415 498 l 239 179 z "},"":{"ha":1215,"x_min":66,"x_max":1149,"o":"m 1046 158 l 1046 -29 l 968 -29 l 968 158 l 679 158 l 679 216 l 985 564 l 1046 564 l 1046 215 l 1149 215 l 1149 158 l 1046 158 m 343 0 l 254 0 l 871 970 l 958 970 l 343 0 m 96 410 l 96 447 l 187 450 q 201 456 196 452 q 207 468 207 460 l 207 908 l 66 886 l 66 924 l 262 979 l 296 979 l 296 468 q 302 456 296 460 q 317 450 309 452 l 401 447 l 401 410 l 96 410 m 968 467 l 751 215 l 968 215 l 968 467 z "},"":{"ha":1215,"x_min":64,"x_max":1153,"o":"m 729 0 l 729 56 l 747 69 q 866 161 812 119 q 957 244 919 204 q 1016 322 995 283 q 1036 403 1036 361 q 1027 456 1036 433 q 1003 493 1019 478 q 966 516 987 509 q 918 524 944 524 q 871 517 890 524 q 846 507 852 510 l 846 506 q 844 505 845 505 l 844 414 q 833 407 840 410 q 819 402 827 404 q 800 400 810 400 q 763 412 779 400 q 746 449 746 423 q 762 497 746 475 q 804 536 777 519 q 867 561 831 552 q 942 570 902 570 q 1021 558 985 570 q 1081 526 1056 547 q 1119 476 1105 505 q 1132 410 1132 446 q 1107 323 1132 366 q 1039 240 1082 281 q 942 157 997 199 q 825 71 886 115 l 1092 71 l 1107 143 l 1153 143 l 1153 0 l 729 0 m 332 0 l 244 0 l 861 970 l 949 970 l 332 0 m 93 410 l 93 447 l 184 450 q 199 456 193 452 q 204 468 204 460 l 204 908 l 64 886 l 64 924 l 260 979 l 293 979 l 293 468 q 299 456 293 460 q 314 450 305 452 l 399 447 l 399 410 l 93 410 z "},"":{"ha":1215,"x_min":53,"x_max":1164,"o":"m 1061 158 l 1061 -29 l 983 -29 l 983 158 l 694 158 l 694 216 l 1000 564 l 1061 564 l 1061 215 l 1164 215 l 1164 158 l 1061 158 m 465 572 q 448 503 465 534 q 399 450 430 472 q 326 415 368 427 q 235 403 283 403 q 155 412 189 403 q 98 434 121 420 q 64 465 75 448 q 53 496 53 481 q 56 512 53 504 q 65 528 59 521 q 82 539 72 534 q 106 543 92 543 q 121 542 111 543 q 136 536 131 540 l 164 463 q 199 449 182 453 q 237 444 216 444 q 294 455 269 444 q 337 483 319 465 q 364 524 355 501 q 374 572 374 547 q 361 623 374 603 q 331 654 349 642 q 289 670 312 665 q 243 675 265 675 q 221 674 231 675 q 205 673 212 674 q 192 672 198 673 l 192 724 l 215 724 q 269 730 243 724 q 312 749 294 736 q 341 782 330 762 q 351 829 351 802 q 342 875 351 855 q 317 908 333 895 q 281 928 302 921 q 237 935 260 935 q 205 931 219 935 q 180 925 191 928 q 160 916 168 921 l 160 832 q 147 826 157 831 q 119 821 136 821 q 102 823 111 821 q 85 831 93 825 q 72 845 77 836 q 66 868 66 854 q 82 912 66 892 q 123 948 97 933 q 185 972 149 964 q 261 981 220 981 q 334 971 300 981 q 391 943 367 962 q 429 899 416 925 q 443 839 443 872 q 407 758 443 792 q 304 705 372 723 q 362 696 333 704 q 413 672 391 688 q 451 631 436 656 q 465 572 465 607 m 357 0 l 269 0 l 886 970 l 974 970 l 357 0 m 983 467 l 766 215 l 983 215 l 983 467 z "},"":{"ha":675,"x_min":96,"x_max":606,"o":"m 482 729 q 475 696 482 711 q 457 669 469 680 q 430 651 446 657 q 397 644 415 644 q 363 651 379 644 q 336 669 348 658 q 318 697 324 681 q 311 730 311 713 q 318 764 311 748 q 336 791 325 779 q 364 809 348 802 q 397 815 380 815 q 430 808 415 815 q 457 790 446 802 q 475 762 469 778 q 482 729 482 747 m 606 -20 q 592 -68 606 -44 q 552 -112 579 -93 q 483 -144 525 -132 q 385 -156 441 -156 q 271 -138 323 -156 q 179 -88 218 -121 q 118 -10 140 -56 q 96 93 96 36 q 122 208 96 159 q 188 292 148 256 q 273 352 227 328 q 359 394 319 376 l 359 550 l 437 550 l 437 349 q 369 317 405 338 q 304 267 334 297 q 255 196 275 237 q 236 104 236 155 q 288 -40 236 7 q 435 -86 340 -86 l 492 54 l 503 56 q 510 57 507 56 q 515 57 514 57 q 551 53 534 57 q 579 39 567 48 q 598 15 591 29 q 606 -20 606 0 z "},"":{"ha":936,"x_min":7,"x_max":929,"o":"m 450 1034 l 239 1168 q 215 1191 224 1177 q 205 1223 205 1204 q 209 1245 205 1234 q 220 1265 212 1256 q 240 1280 228 1274 q 271 1286 252 1286 q 295 1283 285 1286 q 313 1276 305 1280 q 329 1264 321 1271 q 343 1249 336 1257 l 528 1034 l 450 1034 m 599 0 l 599 60 l 679 66 q 689 74 684 66 q 694 87 694 81 q 693 90 694 90 l 597 345 l 277 345 l 184 94 q 184 90 184 93 q 191 74 184 82 q 204 66 198 66 l 286 60 l 286 0 l 7 0 l 7 60 l 87 77 l 411 954 l 515 954 l 838 97 q 847 78 842 83 q 867 71 851 73 l 929 60 l 929 0 l 599 0 m 436 775 l 301 411 l 572 411 l 436 775 z "},"":{"ha":936,"x_min":7,"x_max":929,"o":"m 697 1223 q 689 1191 697 1204 q 665 1168 680 1177 l 456 1034 l 376 1034 l 561 1249 q 591 1276 576 1266 q 635 1286 607 1286 q 665 1280 653 1286 q 684 1265 677 1274 q 694 1245 691 1256 q 697 1223 697 1234 m 599 0 l 599 60 l 679 66 q 689 74 684 66 q 694 87 694 81 q 693 90 694 90 l 597 345 l 277 345 l 184 94 q 184 90 184 93 q 191 74 184 82 q 204 66 198 66 l 286 60 l 286 0 l 7 0 l 7 60 l 87 77 l 411 954 l 515 954 l 838 97 q 847 78 842 83 q 867 71 851 73 l 929 60 l 929 0 l 599 0 m 436 775 l 301 411 l 572 411 l 436 775 z "},"":{"ha":936,"x_min":7,"x_max":929,"o":"m 590 1034 l 447 1173 l 302 1034 l 220 1034 l 395 1270 l 498 1270 l 673 1034 l 590 1034 m 599 0 l 599 60 l 679 66 q 689 74 684 66 q 694 87 694 81 q 693 90 694 90 l 597 345 l 277 345 l 184 94 q 184 90 184 93 q 191 74 184 82 q 204 66 198 66 l 286 60 l 286 0 l 7 0 l 7 60 l 87 77 l 411 954 l 515 954 l 838 97 q 847 78 842 83 q 867 71 851 73 l 929 60 l 929 0 l 599 0 m 436 775 l 301 411 l 572 411 l 436 775 z "},"":{"ha":936,"x_min":7,"x_max":929,"o":"m 697 1229 q 676 1171 689 1198 q 643 1122 663 1143 q 597 1089 623 1101 q 536 1076 570 1076 q 488 1087 509 1076 q 447 1110 467 1097 q 402 1133 426 1122 q 345 1143 378 1143 q 318 1138 330 1143 q 295 1122 305 1132 q 279 1101 286 1113 q 271 1076 273 1088 l 215 1076 q 236 1135 223 1107 q 270 1183 250 1162 q 316 1217 290 1204 q 376 1229 342 1229 q 425 1218 404 1229 q 467 1196 446 1208 q 512 1173 488 1183 q 570 1162 536 1162 q 596 1168 584 1162 q 618 1183 608 1174 q 634 1204 628 1192 q 642 1229 640 1217 l 697 1229 m 599 0 l 599 60 l 679 66 q 689 74 684 66 q 694 87 694 81 q 693 90 694 90 l 597 345 l 277 345 l 184 94 q 184 90 184 93 q 191 74 184 82 q 204 66 198 66 l 286 60 l 286 0 l 7 0 l 7 60 l 87 77 l 411 954 l 515 954 l 838 97 q 847 78 842 83 q 867 71 851 73 l 929 60 l 929 0 l 599 0 m 436 775 l 301 411 l 572 411 l 436 775 z "},"":{"ha":936,"x_min":7,"x_max":929,"o":"m 673 1154 q 667 1124 673 1139 q 651 1099 661 1110 q 627 1082 641 1088 q 597 1076 613 1076 q 568 1082 582 1076 q 544 1099 554 1088 q 527 1124 533 1110 q 521 1154 521 1139 q 527 1182 521 1168 q 544 1207 534 1196 q 569 1224 555 1218 q 597 1231 583 1231 q 627 1225 613 1231 q 651 1208 641 1219 q 667 1184 661 1198 q 673 1154 673 1170 m 386 1154 q 380 1124 386 1139 q 363 1099 374 1110 q 339 1082 353 1088 q 310 1076 326 1076 q 281 1082 294 1076 q 256 1099 267 1088 q 239 1124 245 1110 q 233 1153 233 1137 q 239 1182 233 1168 q 256 1207 245 1196 q 281 1224 267 1218 q 310 1231 294 1231 q 339 1225 326 1231 q 363 1208 353 1219 q 380 1184 374 1198 q 386 1154 386 1170 m 599 0 l 599 60 l 679 66 q 689 74 684 66 q 694 87 694 81 q 693 90 694 90 l 597 345 l 277 345 l 184 94 q 184 90 184 93 q 191 74 184 82 q 204 66 198 66 l 286 60 l 286 0 l 7 0 l 7 60 l 87 77 l 411 954 l 515 954 l 838 97 q 847 78 842 83 q 867 71 851 73 l 929 60 l 929 0 l 599 0 m 436 775 l 301 411 l 572 411 l 436 775 z "},"":{"ha":936,"x_min":7,"x_max":929,"o":"m 628 1207 q 614 1139 628 1171 q 577 1084 601 1107 q 522 1047 553 1061 q 454 1034 490 1034 q 387 1047 418 1034 q 332 1084 355 1061 q 295 1139 309 1107 q 282 1207 282 1171 q 295 1274 282 1243 q 332 1329 309 1305 q 387 1366 355 1352 q 454 1379 418 1379 q 522 1366 490 1379 q 577 1329 553 1352 q 614 1274 601 1305 q 628 1207 628 1243 m 599 0 l 599 60 l 679 66 q 689 74 684 66 q 694 87 694 81 q 693 90 694 90 l 597 345 l 277 345 l 184 94 q 184 90 184 93 q 191 74 184 82 q 204 66 198 66 l 286 60 l 286 0 l 7 0 l 7 60 l 87 77 l 411 954 l 515 954 l 838 97 q 847 78 842 83 q 867 71 851 73 l 929 60 l 929 0 l 599 0 m 545 1207 q 537 1242 545 1225 q 518 1271 530 1259 q 489 1290 506 1283 q 454 1297 473 1297 q 419 1290 435 1297 q 391 1271 403 1283 q 371 1242 378 1259 q 364 1207 364 1225 q 371 1172 364 1188 q 391 1143 378 1156 q 419 1124 403 1131 q 454 1117 435 1117 q 489 1124 473 1117 q 518 1143 506 1131 q 537 1172 530 1156 q 545 1207 545 1188 m 436 775 l 301 411 l 572 411 l 436 775 z "},"":{"ha":1296,"x_min":7,"x_max":1251,"o":"m 564 0 l 564 60 l 632 65 q 657 76 647 66 q 668 96 668 86 l 668 347 l 347 347 l 192 96 q 187 82 187 89 q 191 72 187 76 q 201 66 195 67 l 281 60 l 281 0 l 7 0 l 7 60 l 81 71 l 553 838 q 555 846 555 842 q 548 860 555 854 q 533 867 541 865 l 465 873 l 465 932 l 1202 932 l 1202 725 l 1121 725 l 1101 839 q 1093 857 1099 849 q 1078 865 1087 865 l 808 865 l 808 518 l 983 518 q 1000 527 993 518 q 1008 543 1007 536 l 1021 639 l 1089 639 l 1089 329 l 1021 329 l 1008 427 q 999 442 1007 434 q 983 450 991 450 l 808 450 l 808 68 l 1126 68 q 1135 71 1131 68 q 1142 77 1139 73 q 1148 86 1146 81 q 1152 94 1151 91 l 1173 232 l 1251 232 l 1251 0 l 564 0 m 668 868 l 386 415 l 668 415 l 668 868 z "},"":{"ha":871,"x_min":54,"x_max":817,"o":"m 817 32 q 791 22 814 31 q 732 4 769 14 q 649 -14 696 -5 q 550 -22 602 -22 l 550 -87 q 564 -84 557 -86 q 582 -82 570 -82 q 621 -87 603 -82 q 653 -105 640 -93 q 675 -135 667 -117 q 684 -180 684 -154 q 671 -237 684 -213 q 637 -279 659 -262 q 585 -304 615 -296 q 521 -313 555 -313 q 484 -311 503 -313 q 451 -306 466 -309 q 418 -298 433 -303 l 418 -244 q 447 -250 432 -248 q 474 -254 460 -252 q 503 -256 489 -256 q 535 -253 519 -256 q 564 -243 551 -250 q 584 -226 576 -237 q 591 -199 591 -215 q 572 -160 591 -174 q 526 -147 553 -147 q 515 -149 521 -147 q 505 -151 510 -150 l 494 -155 l 494 -21 q 306 30 388 -13 q 168 140 224 73 q 83 292 112 208 q 54 468 54 377 q 90 665 54 576 q 189 819 125 755 q 342 919 252 883 q 541 954 431 954 q 606 950 574 954 q 670 940 637 947 q 739 923 703 933 q 817 900 774 913 l 817 682 l 733 682 l 713 808 q 703 827 711 818 q 689 840 695 837 l 684 843 q 661 853 675 847 q 630 864 648 859 q 592 872 613 869 q 547 876 571 876 q 415 851 476 876 q 309 774 354 825 q 239 648 264 724 q 214 472 214 572 q 238 298 214 375 q 307 166 262 220 q 418 83 353 112 q 566 54 483 54 q 610 58 590 54 q 645 65 630 61 q 668 74 660 70 q 677 78 676 77 q 695 90 688 82 q 704 106 702 97 l 736 257 l 817 257 l 817 32 z "},"":{"ha":810,"x_min":45,"x_max":765,"o":"m 431 1034 l 220 1168 q 196 1192 205 1177 q 187 1225 187 1206 q 190 1246 187 1235 q 201 1265 193 1257 q 221 1280 209 1274 q 252 1286 233 1286 q 294 1276 279 1286 q 323 1249 308 1266 l 510 1034 l 431 1034 m 45 0 l 45 60 l 117 65 q 139 76 132 66 q 147 96 147 85 l 147 836 q 139 856 147 846 q 117 867 132 865 l 45 872 l 45 932 l 720 932 l 720 725 l 636 725 l 615 839 q 607 857 614 849 q 590 865 600 865 l 289 865 l 289 519 l 497 519 q 514 528 507 519 q 522 543 522 536 l 536 639 l 607 639 l 607 329 l 536 329 l 522 425 q 514 441 522 433 q 497 450 506 450 l 289 450 l 289 68 l 640 68 q 656 77 649 68 q 665 94 664 87 l 690 232 l 765 232 l 765 0 l 45 0 z "},"":{"ha":810,"x_min":45,"x_max":765,"o":"m 45 0 l 45 60 l 117 65 q 139 76 132 66 q 147 96 147 85 l 147 836 q 139 856 147 846 q 117 867 132 865 l 45 872 l 45 932 l 720 932 l 720 725 l 636 725 l 615 839 q 607 857 614 849 q 590 865 600 865 l 289 865 l 289 519 l 497 519 q 514 528 507 519 q 522 543 522 536 l 536 639 l 607 639 l 607 329 l 536 329 l 522 425 q 514 441 522 433 q 497 450 506 450 l 289 450 l 289 68 l 640 68 q 656 77 649 68 q 665 94 664 87 l 690 232 l 765 232 l 765 0 l 45 0 m 652 1225 q 643 1192 652 1206 q 619 1168 634 1177 l 408 1034 l 329 1034 l 515 1249 q 545 1276 531 1266 q 587 1286 559 1286 q 618 1280 606 1286 q 638 1265 630 1274 q 649 1246 646 1257 q 652 1225 652 1235 z "},"":{"ha":810,"x_min":45,"x_max":765,"o":"m 558 1034 l 415 1173 l 272 1034 l 191 1034 l 366 1270 l 468 1270 l 642 1034 l 558 1034 m 45 0 l 45 60 l 117 65 q 139 76 132 66 q 147 96 147 85 l 147 836 q 139 856 147 846 q 117 867 132 865 l 45 872 l 45 932 l 720 932 l 720 725 l 636 725 l 615 839 q 607 857 614 849 q 590 865 600 865 l 289 865 l 289 519 l 497 519 q 514 528 507 519 q 522 543 522 536 l 536 639 l 607 639 l 607 329 l 536 329 l 522 425 q 514 441 522 433 q 497 450 506 450 l 289 450 l 289 68 l 640 68 q 656 77 649 68 q 665 94 664 87 l 690 232 l 765 232 l 765 0 l 45 0 z "},"":{"ha":810,"x_min":45,"x_max":765,"o":"m 644 1154 q 638 1124 644 1139 q 623 1099 633 1110 q 600 1082 613 1088 q 571 1076 587 1076 q 541 1082 555 1076 q 516 1099 527 1088 q 499 1124 505 1110 q 493 1154 493 1139 q 500 1182 493 1168 q 517 1207 507 1196 q 542 1224 528 1218 q 571 1231 556 1231 q 600 1225 587 1231 q 623 1208 613 1219 q 638 1184 633 1198 q 644 1154 644 1170 m 357 1154 q 351 1124 357 1139 q 335 1099 345 1110 q 311 1082 325 1088 q 282 1076 298 1076 q 253 1082 267 1076 q 229 1099 239 1088 q 212 1124 218 1110 q 205 1153 205 1137 q 212 1182 205 1168 q 229 1207 218 1196 q 253 1224 239 1218 q 282 1231 267 1231 q 311 1225 298 1231 q 335 1208 325 1219 q 351 1184 345 1198 q 357 1154 357 1170 m 45 0 l 45 60 l 117 65 q 139 76 132 66 q 147 96 147 85 l 147 836 q 139 856 147 846 q 117 867 132 865 l 45 872 l 45 932 l 720 932 l 720 725 l 636 725 l 615 839 q 607 857 614 849 q 590 865 600 865 l 289 865 l 289 519 l 497 519 q 514 528 507 519 q 522 543 522 536 l 536 639 l 607 639 l 607 329 l 536 329 l 522 425 q 514 441 522 433 q 497 450 506 450 l 289 450 l 289 68 l 640 68 q 656 77 649 68 q 665 94 664 87 l 690 232 l 765 232 l 765 0 l 45 0 z "},"":{"ha":458,"x_min":-1,"x_max":412,"o":"m 241 1034 l 31 1168 q 7 1192 16 1177 q -1 1225 -1 1206 q 2 1246 -1 1235 q 12 1265 5 1257 q 32 1280 20 1274 q 62 1286 44 1286 q 87 1283 77 1286 q 105 1276 97 1280 q 120 1264 113 1271 q 135 1249 127 1257 l 321 1034 l 241 1034 m 46 0 l 46 60 l 129 65 q 151 76 144 66 q 158 96 158 85 l 158 836 q 151 855 158 846 q 129 865 144 864 l 46 871 l 46 932 l 412 932 l 412 871 l 328 865 q 306 855 313 864 q 298 836 298 846 l 298 96 q 306 76 298 85 q 328 65 313 66 l 412 60 l 412 0 l 46 0 z "},"":{"ha":458,"x_min":46,"x_max":449,"o":"m 449 1225 q 440 1192 449 1206 q 416 1168 431 1177 l 205 1034 l 126 1034 l 313 1249 q 342 1276 328 1266 q 385 1286 357 1286 q 415 1280 403 1286 q 435 1265 427 1274 q 446 1246 443 1257 q 449 1225 449 1235 m 46 0 l 46 60 l 129 65 q 151 76 144 66 q 158 96 158 85 l 158 836 q 151 855 158 846 q 129 865 144 864 l 46 871 l 46 932 l 412 932 l 412 871 l 328 865 q 306 855 313 864 q 298 836 298 846 l 298 96 q 306 76 298 85 q 328 65 313 66 l 412 60 l 412 0 l 46 0 z "},"":{"ha":458,"x_min":1,"x_max":457,"o":"m 374 1034 l 231 1173 l 87 1034 l 1 1034 l 176 1270 l 283 1270 l 457 1034 l 374 1034 m 46 0 l 46 60 l 129 65 q 151 76 144 66 q 158 96 158 85 l 158 836 q 151 855 158 846 q 129 865 144 864 l 46 871 l 46 932 l 412 932 l 412 871 l 328 865 q 306 855 313 864 q 298 836 298 846 l 298 96 q 306 76 298 85 q 328 65 313 66 l 412 60 l 412 0 l 46 0 z "},"":{"ha":458,"x_min":9,"x_max":449,"o":"m 449 1154 q 443 1124 449 1139 q 427 1099 437 1110 q 403 1082 416 1088 q 374 1076 389 1076 q 344 1082 358 1076 q 320 1099 330 1088 q 303 1124 309 1110 q 297 1154 297 1139 q 303 1182 297 1168 q 320 1207 310 1196 q 345 1224 331 1218 q 372 1231 358 1231 q 402 1225 388 1231 q 426 1208 416 1219 q 443 1184 437 1198 q 449 1154 449 1170 m 161 1154 q 155 1124 161 1139 q 139 1099 149 1110 q 114 1082 128 1088 q 85 1076 100 1076 q 56 1082 70 1076 q 32 1099 43 1088 q 16 1124 22 1110 q 9 1153 9 1137 q 16 1182 9 1168 q 32 1207 22 1196 q 56 1224 43 1218 q 85 1231 70 1231 q 114 1225 100 1231 q 139 1208 128 1219 q 155 1184 149 1198 q 161 1154 161 1170 m 46 0 l 46 60 l 129 65 q 151 76 144 66 q 158 96 158 85 l 158 836 q 151 855 158 846 q 129 865 144 864 l 46 871 l 46 932 l 412 932 l 412 871 l 328 865 q 306 855 313 864 q 298 836 298 846 l 298 96 q 306 76 298 85 q 328 65 313 66 l 412 60 l 412 0 l 46 0 z "},"":{"ha":966,"x_min":21,"x_max":913,"o":"m 913 465 q 883 281 913 366 q 792 134 852 196 q 642 36 732 71 q 432 0 552 0 l 45 0 l 45 60 l 118 65 q 139 76 132 66 q 147 96 147 86 l 147 453 l 21 453 l 21 524 l 147 524 l 147 836 q 138 855 147 846 q 118 865 129 864 l 45 872 l 45 932 l 401 932 q 601 906 508 932 q 764 824 694 880 q 873 679 833 768 q 913 465 913 590 m 755 465 q 731 646 755 570 q 661 770 707 722 q 548 842 615 819 q 395 865 481 865 l 288 865 l 288 524 l 510 524 l 510 453 l 288 453 l 288 66 l 396 66 q 549 91 482 66 q 662 164 616 115 q 732 289 708 214 q 755 465 755 363 z "},"":{"ha":1002,"x_min":35,"x_max":961,"o":"m 755 1229 q 734 1171 747 1198 q 702 1122 721 1143 q 656 1089 682 1101 q 596 1076 630 1076 q 547 1087 568 1076 q 506 1110 526 1097 q 461 1133 485 1122 q 403 1143 437 1143 q 376 1138 389 1143 q 354 1122 364 1132 q 338 1101 345 1113 q 330 1076 332 1088 l 275 1076 q 296 1135 283 1107 q 329 1183 309 1162 q 375 1217 349 1204 q 435 1229 401 1229 q 484 1218 463 1229 q 525 1196 505 1208 q 570 1173 546 1183 q 628 1162 594 1162 q 654 1168 642 1162 q 676 1183 667 1174 q 692 1204 686 1192 q 700 1229 699 1217 l 755 1229 m 884 867 q 862 856 869 865 q 854 836 854 846 l 854 0 l 746 0 l 229 778 l 229 96 q 236 76 229 85 q 258 65 243 66 l 338 60 l 338 0 l 37 0 l 37 60 l 117 65 q 139 76 132 66 q 147 96 147 85 l 147 836 q 139 856 147 846 q 117 867 132 865 l 35 872 l 35 932 l 310 932 l 310 897 l 772 199 l 772 836 q 765 856 772 846 q 743 867 758 865 l 664 872 l 664 932 l 961 932 l 961 872 l 884 867 z "},"":{"ha":1015,"x_min":54,"x_max":961,"o":"m 501 1034 l 290 1168 q 267 1192 275 1177 q 258 1225 258 1206 q 261 1246 258 1235 q 272 1265 264 1257 q 292 1280 279 1274 q 322 1286 304 1286 q 347 1283 336 1286 q 365 1276 357 1280 q 380 1264 373 1271 q 395 1249 387 1257 l 581 1034 l 501 1034 m 961 465 q 928 275 961 364 q 837 120 896 186 q 694 16 777 54 q 509 -22 610 -22 q 322 15 406 -22 q 179 117 239 52 q 87 272 119 183 q 54 467 54 361 q 86 657 54 568 q 177 812 118 746 q 320 916 236 878 q 507 954 404 954 q 694 916 610 954 q 837 810 778 877 q 929 655 897 744 q 961 465 961 566 m 800 464 q 782 624 800 549 q 727 754 764 699 q 636 843 690 810 q 509 875 581 875 q 378 842 433 875 q 286 754 322 810 q 231 624 249 698 q 214 467 214 549 q 232 308 214 383 q 286 177 250 233 q 377 87 322 121 q 505 54 431 54 q 636 87 581 54 q 728 177 691 121 q 782 307 764 233 q 800 464 800 381 z "},"":{"ha":1015,"x_min":54,"x_max":961,"o":"m 750 1225 q 742 1192 750 1206 q 718 1168 733 1177 l 507 1034 l 428 1034 l 614 1249 q 628 1264 621 1257 q 643 1276 635 1272 q 662 1283 651 1281 q 686 1286 672 1286 q 717 1280 705 1286 q 736 1265 729 1274 q 747 1246 744 1257 q 750 1225 750 1235 m 961 465 q 928 275 961 364 q 837 120 896 186 q 694 16 777 54 q 509 -22 610 -22 q 322 15 406 -22 q 179 117 239 52 q 87 272 119 183 q 54 467 54 361 q 86 657 54 568 q 177 812 118 746 q 320 916 236 878 q 507 954 404 954 q 694 916 610 954 q 837 810 778 877 q 929 655 897 744 q 961 465 961 566 m 800 464 q 782 624 800 549 q 727 754 764 699 q 636 843 690 810 q 509 875 581 875 q 378 842 433 875 q 286 754 322 810 q 231 624 249 698 q 214 467 214 549 q 232 308 214 383 q 286 177 250 233 q 377 87 322 121 q 505 54 431 54 q 636 87 581 54 q 728 177 691 121 q 782 307 764 233 q 800 464 800 381 z "},"":{"ha":1015,"x_min":54,"x_max":961,"o":"m 650 1034 l 507 1173 l 364 1034 l 281 1034 l 454 1270 l 558 1270 l 733 1034 l 650 1034 m 961 465 q 928 275 961 364 q 837 120 896 186 q 694 16 777 54 q 509 -22 610 -22 q 322 15 406 -22 q 179 117 239 52 q 87 272 119 183 q 54 467 54 361 q 86 657 54 568 q 177 812 118 746 q 320 916 236 878 q 507 954 404 954 q 694 916 610 954 q 837 810 778 877 q 929 655 897 744 q 961 465 961 566 m 800 464 q 782 624 800 549 q 727 754 764 699 q 636 843 690 810 q 509 875 581 875 q 378 842 433 875 q 286 754 322 810 q 231 624 249 698 q 214 467 214 549 q 232 308 214 383 q 286 177 250 233 q 377 87 322 121 q 505 54 431 54 q 636 87 581 54 q 728 177 691 121 q 782 307 764 233 q 800 464 800 381 z "},"":{"ha":1015,"x_min":54,"x_max":961,"o":"m 746 1229 q 724 1171 738 1198 q 691 1122 711 1143 q 645 1089 671 1101 q 585 1076 618 1076 q 536 1087 557 1076 q 495 1110 515 1097 q 450 1133 474 1122 q 392 1143 426 1143 q 365 1138 378 1143 q 343 1122 353 1132 q 327 1101 333 1113 q 319 1076 321 1088 l 264 1076 q 285 1135 272 1107 q 318 1183 298 1162 q 365 1217 338 1204 q 425 1229 391 1229 q 458 1224 444 1229 q 487 1212 473 1219 q 514 1196 501 1204 q 543 1180 528 1187 q 576 1167 558 1173 q 616 1162 594 1162 q 644 1168 631 1162 q 666 1183 656 1174 q 683 1204 676 1192 q 690 1229 689 1217 l 746 1229 m 961 465 q 928 275 961 364 q 837 120 896 186 q 694 16 777 54 q 509 -22 610 -22 q 322 15 406 -22 q 179 117 239 52 q 87 272 119 183 q 54 467 54 361 q 86 657 54 568 q 177 812 118 746 q 320 916 236 878 q 507 954 404 954 q 694 916 610 954 q 837 810 778 877 q 929 655 897 744 q 961 465 961 566 m 800 464 q 782 624 800 549 q 727 754 764 699 q 636 843 690 810 q 509 875 581 875 q 378 842 433 875 q 286 754 322 810 q 231 624 249 698 q 214 467 214 549 q 232 308 214 383 q 286 177 250 233 q 377 87 322 121 q 505 54 431 54 q 636 87 581 54 q 728 177 691 121 q 782 307 764 233 q 800 464 800 381 z "},"":{"ha":1017,"x_min":54,"x_max":961,"o":"m 725 1154 q 719 1124 725 1139 q 703 1099 713 1110 q 679 1082 693 1088 q 650 1076 665 1076 q 620 1082 634 1076 q 596 1099 606 1088 q 580 1124 586 1110 q 574 1154 574 1139 q 580 1182 574 1168 q 596 1207 586 1196 q 621 1224 607 1218 q 648 1231 634 1231 q 678 1225 664 1231 q 702 1208 692 1219 q 719 1184 713 1198 q 725 1154 725 1170 m 437 1154 q 431 1124 437 1139 q 415 1099 425 1110 q 390 1082 404 1088 q 361 1076 376 1076 q 332 1082 346 1076 q 309 1099 319 1088 q 292 1124 298 1110 q 286 1153 286 1137 q 292 1182 286 1168 q 309 1207 298 1196 q 332 1224 319 1218 q 361 1231 346 1231 q 390 1225 376 1231 q 415 1208 404 1219 q 431 1184 425 1198 q 437 1154 437 1170 m 961 465 q 928 275 961 364 q 837 120 896 186 q 694 16 777 54 q 509 -22 610 -22 q 322 15 406 -22 q 179 117 239 52 q 87 272 119 183 q 54 467 54 361 q 86 657 54 568 q 177 812 118 746 q 320 916 236 878 q 507 954 404 954 q 694 916 610 954 q 837 810 778 877 q 929 655 897 744 q 961 465 961 566 m 800 464 q 782 624 800 549 q 727 754 764 699 q 636 843 690 810 q 509 875 581 875 q 378 842 433 875 q 286 754 322 810 q 231 624 249 698 q 214 467 214 549 q 232 308 214 383 q 286 177 250 233 q 377 87 322 121 q 505 54 431 54 q 636 87 581 54 q 728 177 691 121 q 782 307 764 233 q 800 464 800 381 z "},"":{"ha":815,"x_min":104,"x_max":721,"o":"m 618 107 l 412 307 l 208 106 l 104 210 l 309 411 l 106 618 l 208 721 l 411 514 l 614 720 l 718 615 l 515 410 l 721 210 l 618 107 z "},"":{"ha":1015,"x_min":54,"x_max":961,"o":"m 961 465 q 928 275 961 364 q 837 120 896 186 q 694 16 777 54 q 509 -22 610 -22 q 389 -8 446 -22 q 285 33 333 6 q 242 -39 263 -3 q 199 -110 220 -74 l 135 -71 l 222 77 q 151 152 182 109 q 99 244 120 194 q 66 350 77 294 q 54 467 54 406 q 86 657 54 568 q 177 812 118 746 q 320 916 236 878 q 507 954 404 954 q 618 941 566 954 q 715 905 671 928 l 794 1039 l 860 1000 q 822 936 842 970 q 779 865 801 902 q 856 789 823 832 q 913 694 890 745 q 949 585 937 643 q 961 465 961 527 m 800 464 q 781 631 800 554 q 721 765 761 709 q 538 458 637 624 q 336 118 439 293 q 411 71 370 87 q 505 54 453 54 q 636 87 581 54 q 728 177 691 121 q 782 307 764 233 q 800 464 800 381 m 665 822 q 595 861 634 848 q 509 875 555 875 q 378 842 433 875 q 286 754 322 810 q 231 624 249 698 q 214 467 214 549 q 231 311 214 384 q 285 180 249 237 l 665 822 z "},"":{"ha":989,"x_min":43,"x_max":951,"o":"m 509 1034 l 297 1168 q 274 1192 283 1177 q 265 1225 265 1206 q 268 1246 265 1235 q 279 1265 271 1257 q 298 1280 286 1274 q 329 1286 311 1286 q 353 1283 343 1286 q 372 1276 363 1280 q 387 1264 380 1271 q 401 1249 394 1257 l 587 1034 l 509 1034 m 871 867 q 849 856 856 865 q 842 836 842 846 l 842 309 q 819 161 842 223 q 750 58 795 98 q 638 -3 705 17 q 485 -22 572 -22 q 229 61 313 -22 q 146 309 146 144 l 146 836 q 139 856 146 846 q 117 867 132 865 l 43 872 l 43 932 l 396 932 l 396 872 l 317 867 q 295 856 302 865 q 288 836 288 846 l 288 345 q 297 233 288 283 q 332 146 307 182 q 404 91 358 111 q 522 71 450 71 q 640 92 594 71 q 713 150 686 113 q 749 237 739 186 q 760 345 760 287 l 760 836 q 752 856 760 846 q 729 867 744 865 l 650 872 l 650 932 l 951 932 l 951 872 l 871 867 z "},"":{"ha":989,"x_min":43,"x_max":951,"o":"m 755 1225 q 747 1192 755 1206 q 724 1168 739 1177 l 513 1034 l 433 1034 l 618 1249 q 648 1276 633 1266 q 692 1286 664 1286 q 722 1280 710 1286 q 742 1265 734 1274 q 752 1246 749 1257 q 755 1225 755 1235 m 871 867 q 849 856 856 865 q 842 836 842 846 l 842 309 q 819 161 842 223 q 750 58 795 98 q 638 -3 705 17 q 485 -22 572 -22 q 229 61 313 -22 q 146 309 146 144 l 146 836 q 139 856 146 846 q 117 867 132 865 l 43 872 l 43 932 l 396 932 l 396 872 l 317 867 q 295 856 302 865 q 288 836 288 846 l 288 345 q 297 233 288 283 q 332 146 307 182 q 404 91 358 111 q 522 71 450 71 q 640 92 594 71 q 713 150 686 113 q 749 237 739 186 q 760 345 760 287 l 760 836 q 752 856 760 846 q 729 867 744 865 l 650 872 l 650 932 l 951 932 l 951 872 l 871 867 z "},"":{"ha":989,"x_min":43,"x_max":951,"o":"m 656 1034 l 511 1173 l 368 1034 l 285 1034 l 460 1270 l 564 1270 l 739 1034 l 656 1034 m 871 867 q 849 856 856 865 q 842 836 842 846 l 842 309 q 819 161 842 223 q 750 58 795 98 q 638 -3 705 17 q 485 -22 572 -22 q 229 61 313 -22 q 146 309 146 144 l 146 836 q 139 856 146 846 q 117 867 132 865 l 43 872 l 43 932 l 396 932 l 396 872 l 317 867 q 295 856 302 865 q 288 836 288 846 l 288 345 q 297 233 288 283 q 332 146 307 182 q 404 91 358 111 q 522 71 450 71 q 640 92 594 71 q 713 150 686 113 q 749 237 739 186 q 760 345 760 287 l 760 836 q 752 856 760 846 q 729 867 744 865 l 650 872 l 650 932 l 951 932 l 951 872 l 871 867 z "},"":{"ha":989,"x_min":43,"x_max":951,"o":"m 736 1154 q 730 1124 736 1139 q 714 1099 724 1110 q 690 1082 704 1088 q 661 1076 677 1076 q 632 1082 646 1076 q 607 1099 618 1088 q 591 1124 597 1110 q 585 1154 585 1139 q 591 1182 585 1168 q 607 1207 597 1196 q 631 1224 618 1218 q 660 1231 645 1231 q 689 1225 675 1231 q 713 1208 703 1219 q 730 1184 724 1198 q 736 1154 736 1170 m 449 1154 q 443 1124 449 1139 q 426 1099 437 1110 q 402 1082 416 1088 q 372 1076 388 1076 q 343 1082 357 1076 q 319 1099 330 1088 q 303 1124 309 1110 q 297 1153 297 1137 q 303 1182 297 1168 q 319 1207 309 1196 q 343 1224 330 1218 q 372 1231 357 1231 q 402 1225 388 1231 q 426 1208 416 1219 q 443 1184 437 1198 q 449 1154 449 1170 m 871 867 q 849 856 856 865 q 842 836 842 846 l 842 309 q 819 161 842 223 q 750 58 795 98 q 638 -3 705 17 q 485 -22 572 -22 q 229 61 313 -22 q 146 309 146 144 l 146 836 q 139 856 146 846 q 117 867 132 865 l 43 872 l 43 932 l 396 932 l 396 872 l 317 867 q 295 856 302 865 q 288 836 288 846 l 288 345 q 297 233 288 283 q 332 146 307 182 q 404 91 358 111 q 522 71 450 71 q 640 92 594 71 q 713 150 686 113 q 749 237 739 186 q 760 345 760 287 l 760 836 q 752 856 760 846 q 729 867 744 865 l 650 872 l 650 932 l 951 932 l 951 872 l 871 867 z "},"":{"ha":868,"x_min":14,"x_max":856,"o":"m 661 1225 q 653 1192 661 1206 q 629 1168 644 1177 l 418 1034 l 339 1034 l 524 1249 q 554 1276 538 1266 q 597 1286 569 1286 q 628 1280 616 1286 q 648 1265 640 1274 q 658 1246 655 1257 q 661 1225 661 1235 m 781 859 l 501 396 l 501 96 q 509 76 501 85 q 530 65 516 66 l 619 60 l 619 0 l 244 0 l 244 60 l 330 65 q 353 76 345 66 q 361 96 361 85 l 361 375 l 94 856 l 14 872 l 14 932 l 343 932 l 343 872 l 273 865 q 258 859 262 864 q 254 849 254 854 q 257 838 254 842 l 453 475 l 668 833 q 671 843 671 838 q 665 856 671 850 q 652 863 659 861 l 574 872 l 574 932 l 856 932 l 856 872 l 781 859 z "},"":{"ha":803,"x_min":45,"x_max":749,"o":"m 749 481 q 722 353 749 409 q 648 260 696 298 q 535 203 601 222 q 390 183 469 183 l 386 183 q 354 184 371 183 q 322 186 337 185 q 288 191 304 189 l 288 96 q 296 75 288 83 q 318 65 305 66 l 399 60 l 399 0 l 45 0 l 45 60 l 115 65 q 137 75 128 66 q 146 96 146 83 l 146 836 q 137 857 146 848 q 115 867 128 865 l 45 872 l 45 932 l 399 932 l 399 872 l 318 867 q 296 857 305 865 q 288 836 288 848 l 288 757 l 382 757 q 546 740 477 755 q 660 690 615 724 q 727 606 705 657 q 749 481 749 554 m 590 481 q 579 570 590 530 q 543 636 568 609 q 476 678 517 664 q 374 692 435 692 q 363 692 368 692 q 353 692 358 692 q 345 692 352 692 q 328 692 338 692 l 309 690 l 288 689 l 288 260 q 318 257 303 258 q 345 255 331 256 q 368 254 358 254 l 372 254 q 536 309 481 254 q 590 481 590 363 z "},"":{"ha":872,"x_min":31,"x_max":825,"o":"m 825 207 q 806 115 825 156 q 754 44 787 73 q 677 -1 721 15 q 583 -17 633 -17 q 531 -12 559 -17 q 477 1 503 -6 q 419 18 448 8 l 419 204 l 494 204 l 507 83 q 540 61 519 73 q 590 49 561 49 q 638 59 616 49 q 674 85 659 68 q 698 122 690 101 q 707 167 707 144 q 685 233 707 205 q 630 283 663 260 q 558 326 597 305 q 487 371 519 347 q 432 427 454 395 q 410 503 410 458 q 422 571 410 540 q 458 627 435 603 q 511 668 480 652 q 578 693 542 685 q 584 729 581 711 q 588 762 586 745 q 590 793 590 779 q 582 853 590 824 q 556 905 573 882 q 512 941 538 927 q 450 954 486 954 q 376 938 408 954 q 323 896 345 922 q 288 836 301 869 q 267 768 274 802 q 257 700 260 733 q 254 643 254 667 l 254 92 q 261 68 254 76 q 275 58 268 60 l 346 53 l 346 0 l 31 0 l 31 53 l 97 60 q 117 72 110 61 q 125 92 125 82 l 125 629 q 134 725 125 677 q 161 817 142 772 q 208 898 180 861 q 276 964 237 936 q 364 1007 315 991 q 475 1023 414 1023 q 580 1007 534 1023 q 656 961 626 991 q 703 888 687 930 q 718 793 718 846 q 715 743 718 767 q 707 698 711 718 q 699 665 703 678 q 694 648 695 651 q 686 650 692 648 q 664 652 679 652 q 604 643 629 652 q 564 620 579 634 q 542 586 549 605 q 534 546 534 567 q 547 500 534 520 q 580 464 559 480 q 626 432 600 447 q 680 400 652 416 q 733 366 707 385 q 780 325 760 348 q 813 273 800 302 q 825 207 825 244 z "},"":{"ha":707,"x_min":47,"x_max":684,"o":"m 478 0 l 460 82 q 385 33 423 54 q 349 14 368 23 q 310 -2 330 5 q 269 -13 290 -9 q 228 -17 248 -17 q 157 -4 190 -17 q 100 33 124 9 q 61 92 75 58 q 47 171 47 127 q 53 220 47 197 q 73 264 58 243 q 117 306 89 286 q 191 346 145 326 q 303 385 237 366 q 460 424 369 404 l 460 484 q 429 587 460 553 q 330 621 397 621 q 268 614 294 621 q 232 603 242 607 l 232 482 l 131 482 q 112 484 121 482 q 96 489 103 485 q 84 502 88 494 q 79 522 79 509 q 105 596 79 565 q 172 647 131 627 q 265 677 214 667 q 368 686 317 686 q 475 671 433 686 q 542 627 517 655 q 577 562 567 600 q 587 478 587 524 l 587 89 q 596 68 587 76 q 616 58 604 60 l 684 54 l 684 0 l 478 0 m 460 371 q 311 324 366 347 q 228 278 256 301 q 192 230 200 254 q 184 180 184 206 q 192 138 184 159 q 212 101 199 117 q 244 75 225 85 q 289 65 264 65 q 347 75 317 65 q 402 98 377 85 q 460 131 431 112 l 460 371 m 357 765 l 146 900 q 122 923 131 909 q 114 956 114 937 q 117 977 114 966 q 127 997 120 988 q 147 1012 135 1006 q 178 1018 159 1018 q 202 1015 192 1018 q 220 1008 212 1013 q 236 996 229 1003 q 250 981 243 989 l 436 765 l 357 765 z "},"":{"ha":707,"x_min":47,"x_max":684,"o":"m 478 0 l 460 82 q 385 33 423 54 q 349 14 368 23 q 310 -2 330 5 q 269 -13 290 -9 q 228 -17 248 -17 q 157 -4 190 -17 q 100 33 124 9 q 61 92 75 58 q 47 171 47 127 q 53 220 47 197 q 73 264 58 243 q 117 306 89 286 q 191 346 145 326 q 303 385 237 366 q 460 424 369 404 l 460 484 q 429 587 460 553 q 330 621 397 621 q 268 614 294 621 q 232 603 242 607 l 232 482 l 131 482 q 112 484 121 482 q 96 489 103 485 q 84 502 88 494 q 79 522 79 509 q 105 596 79 565 q 172 647 131 627 q 265 677 214 667 q 368 686 317 686 q 475 671 433 686 q 542 627 517 655 q 577 562 567 600 q 587 478 587 524 l 587 89 q 596 68 587 76 q 616 58 604 60 l 684 54 l 684 0 l 478 0 m 460 371 q 311 324 366 347 q 228 278 256 301 q 192 230 200 254 q 184 180 184 206 q 192 138 184 159 q 212 101 199 117 q 244 75 225 85 q 289 65 264 65 q 347 75 317 65 q 402 98 377 85 q 460 131 431 112 l 460 371 m 583 956 q 575 923 583 937 q 551 900 566 909 l 340 765 l 261 765 l 447 981 q 477 1008 463 998 q 519 1018 492 1018 q 550 1012 538 1018 q 570 997 562 1006 q 580 977 577 988 q 583 956 583 966 z "},"":{"ha":707,"x_min":47,"x_max":684,"o":"m 478 0 l 460 82 q 385 33 423 54 q 349 14 368 23 q 310 -2 330 5 q 269 -13 290 -9 q 228 -17 248 -17 q 157 -4 190 -17 q 100 33 124 9 q 61 92 75 58 q 47 171 47 127 q 53 220 47 197 q 73 264 58 243 q 117 306 89 286 q 191 346 145 326 q 303 385 237 366 q 460 424 369 404 l 460 484 q 429 587 460 553 q 330 621 397 621 q 268 614 294 621 q 232 603 242 607 l 232 482 l 131 482 q 112 484 121 482 q 96 489 103 485 q 84 502 88 494 q 79 522 79 509 q 105 596 79 565 q 172 647 131 627 q 265 677 214 667 q 368 686 317 686 q 475 671 433 686 q 542 627 517 655 q 577 562 567 600 q 587 478 587 524 l 587 89 q 596 68 587 76 q 616 58 604 60 l 684 54 l 684 0 l 478 0 m 460 371 q 311 324 366 347 q 228 278 256 301 q 192 230 200 254 q 184 180 184 206 q 192 138 184 159 q 212 101 199 117 q 244 75 225 85 q 289 65 264 65 q 347 75 317 65 q 402 98 377 85 q 460 131 431 112 l 460 371 m 478 765 l 335 903 l 192 765 l 107 765 l 282 1000 l 387 1000 l 561 765 l 478 765 z "},"":{"ha":707,"x_min":47,"x_max":684,"o":"m 478 0 l 460 82 q 385 33 423 54 q 349 14 368 23 q 310 -2 330 5 q 269 -13 290 -9 q 228 -17 248 -17 q 157 -4 190 -17 q 100 33 124 9 q 61 92 75 58 q 47 171 47 127 q 53 220 47 197 q 73 264 58 243 q 117 306 89 286 q 191 346 145 326 q 303 385 237 366 q 460 424 369 404 l 460 484 q 429 587 460 553 q 330 621 397 621 q 268 614 294 621 q 232 603 242 607 l 232 482 l 131 482 q 112 484 121 482 q 96 489 103 485 q 84 502 88 494 q 79 522 79 509 q 105 596 79 565 q 172 647 131 627 q 265 677 214 667 q 368 686 317 686 q 475 671 433 686 q 542 627 517 655 q 577 562 567 600 q 587 478 587 524 l 587 89 q 596 68 587 76 q 616 58 604 60 l 684 54 l 684 0 l 478 0 m 460 371 q 311 324 366 347 q 228 278 256 301 q 192 230 200 254 q 184 180 184 206 q 192 138 184 159 q 212 101 199 117 q 244 75 225 85 q 289 65 264 65 q 347 75 317 65 q 402 98 377 85 q 460 131 431 112 l 460 371 m 586 965 q 565 907 578 935 q 532 858 551 879 q 486 825 512 838 q 425 812 459 812 q 376 823 397 812 q 335 846 355 833 q 290 868 314 858 q 232 879 266 879 q 205 873 218 879 q 183 858 193 867 q 168 837 174 849 q 160 812 161 825 l 104 812 q 125 871 112 843 q 159 920 139 899 q 205 953 178 941 q 265 965 231 965 q 314 955 293 965 q 355 932 334 944 q 399 909 376 920 q 457 899 423 899 q 484 904 471 899 q 506 919 496 910 q 523 941 516 928 q 530 965 529 953 l 586 965 z "},"":{"ha":707,"x_min":47,"x_max":684,"o":"m 478 0 l 460 82 q 385 33 423 54 q 349 14 368 23 q 310 -2 330 5 q 269 -13 290 -9 q 228 -17 248 -17 q 157 -4 190 -17 q 100 33 124 9 q 61 92 75 58 q 47 171 47 127 q 53 220 47 197 q 73 264 58 243 q 117 306 89 286 q 191 346 145 326 q 303 385 237 366 q 460 424 369 404 l 460 484 q 429 587 460 553 q 330 621 397 621 q 268 614 294 621 q 232 603 242 607 l 232 482 l 131 482 q 112 484 121 482 q 96 489 103 485 q 84 502 88 494 q 79 522 79 509 q 105 596 79 565 q 172 647 131 627 q 265 677 214 667 q 368 686 317 686 q 475 671 433 686 q 542 627 517 655 q 577 562 567 600 q 587 478 587 524 l 587 89 q 596 68 587 76 q 616 58 604 60 l 684 54 l 684 0 l 478 0 m 460 371 q 311 324 366 347 q 228 278 256 301 q 192 230 200 254 q 184 180 184 206 q 192 138 184 159 q 212 101 199 117 q 244 75 225 85 q 289 65 264 65 q 347 75 317 65 q 402 98 377 85 q 460 131 431 112 l 460 371 m 570 890 q 564 861 570 875 q 547 836 557 846 q 523 819 536 825 q 493 812 509 812 q 464 819 477 812 q 440 836 450 825 q 424 861 430 846 q 418 890 418 875 q 424 919 418 905 q 441 943 431 932 q 465 960 452 954 q 493 966 479 966 q 523 960 509 966 q 547 944 536 954 q 564 920 557 934 q 570 890 570 906 m 281 890 q 275 861 281 875 q 258 836 269 846 q 234 819 248 825 q 204 812 220 812 q 176 819 189 812 q 153 836 163 825 q 137 860 142 846 q 131 889 131 873 q 137 918 131 904 q 153 943 143 932 q 177 960 163 954 q 205 966 191 966 q 235 960 221 966 q 259 944 249 954 q 275 920 269 934 q 281 890 281 906 z "},"":{"ha":707,"x_min":47,"x_max":684,"o":"m 478 0 l 460 82 q 385 33 423 54 q 349 14 368 23 q 310 -2 330 5 q 269 -13 290 -9 q 228 -17 248 -17 q 157 -4 190 -17 q 100 33 124 9 q 61 92 75 58 q 47 171 47 127 q 53 220 47 197 q 73 264 58 243 q 117 306 89 286 q 191 346 145 326 q 303 385 237 366 q 460 424 369 404 l 460 484 q 429 587 460 553 q 330 621 397 621 q 268 614 294 621 q 232 603 242 607 l 232 482 l 131 482 q 112 484 121 482 q 96 489 103 485 q 84 502 88 494 q 79 522 79 509 q 105 596 79 565 q 172 647 131 627 q 265 677 214 667 q 368 686 317 686 q 475 671 433 686 q 542 627 517 655 q 577 562 567 600 q 587 478 587 524 l 587 89 q 596 68 587 76 q 616 58 604 60 l 684 54 l 684 0 l 478 0 m 519 930 q 507 866 519 896 q 471 813 494 836 q 419 778 449 791 q 354 765 389 765 q 290 778 319 765 q 237 813 260 791 q 202 866 215 836 q 189 930 189 896 q 202 995 189 965 q 237 1048 215 1025 q 290 1083 260 1070 q 354 1096 319 1096 q 419 1083 389 1096 q 471 1048 449 1070 q 507 995 494 1025 q 519 930 519 965 m 460 371 q 311 324 366 347 q 228 278 256 301 q 192 230 200 254 q 184 180 184 206 q 192 138 184 159 q 212 101 199 117 q 244 75 225 85 q 289 65 264 65 q 347 75 317 65 q 402 98 377 85 q 460 131 431 112 l 460 371 m 452 930 q 444 968 452 951 q 423 999 436 986 q 392 1020 410 1013 q 354 1028 374 1028 q 316 1020 334 1028 q 285 999 298 1013 q 264 968 272 986 q 257 930 257 951 q 264 892 257 910 q 285 862 272 875 q 316 841 298 848 q 354 833 334 833 q 392 841 374 833 q 423 862 410 848 q 444 892 436 875 q 452 930 452 910 z "},"":{"ha":1002,"x_min":47,"x_max":954,"o":"m 954 69 q 917 43 939 58 q 866 15 895 28 q 801 -7 837 2 q 724 -17 765 -17 q 666 -13 693 -17 q 616 -1 640 -8 q 572 16 592 7 q 536 36 553 26 q 471 89 498 59 q 394 36 434 59 q 357 16 376 26 q 316 -1 337 7 q 272 -13 294 -8 q 227 -17 250 -17 q 149 -3 182 -17 q 93 36 116 11 q 59 94 71 60 q 47 165 47 127 q 69 258 47 220 q 137 323 90 295 q 257 374 183 351 q 437 424 332 397 l 437 481 q 432 542 437 515 q 412 585 426 568 q 375 612 398 603 q 317 621 351 621 q 261 614 283 621 q 229 603 239 607 l 229 482 l 132 482 q 92 490 104 482 q 79 522 79 498 q 91 574 79 551 q 122 615 102 597 q 168 647 142 633 q 225 669 195 661 q 287 682 255 677 q 351 686 319 686 q 432 678 400 686 q 485 657 465 669 q 517 630 505 644 q 536 604 528 616 q 560 628 545 614 q 598 655 575 642 q 652 677 621 668 q 724 686 684 686 q 829 663 785 686 q 901 601 873 640 q 941 511 928 562 q 954 404 954 460 q 954 390 954 398 q 953 374 954 381 q 951 355 952 365 l 567 355 l 567 171 q 601 139 582 156 q 645 109 621 123 q 701 86 670 95 q 768 77 731 77 q 825 83 800 77 q 873 99 851 89 q 916 123 896 109 q 954 153 935 137 l 954 69 m 437 371 q 311 330 361 350 q 232 288 261 310 q 192 241 203 267 q 180 184 180 216 q 187 139 180 161 q 206 102 193 118 q 239 76 219 85 q 286 66 259 66 q 337 76 311 66 q 386 98 363 86 q 437 131 412 113 l 437 371 m 817 457 q 810 518 817 488 q 788 570 803 547 q 751 607 774 593 q 699 621 729 621 q 635 603 660 621 q 594 555 610 585 q 573 489 579 526 q 567 415 567 452 l 817 415 l 817 457 z "},"":{"ha":647,"x_min":47,"x_max":600,"o":"m 600 57 q 554 33 578 45 q 502 10 529 20 q 444 -8 474 -1 q 382 -17 414 -15 l 382 -87 q 396 -84 389 -86 q 414 -82 402 -82 q 453 -87 435 -82 q 485 -105 471 -93 q 507 -135 499 -117 q 515 -180 515 -154 q 503 -237 515 -213 q 470 -279 491 -262 q 418 -304 448 -296 q 354 -313 389 -313 q 317 -311 336 -313 q 284 -306 299 -309 q 250 -298 267 -303 l 250 -244 q 279 -250 264 -248 q 307 -254 292 -252 q 335 -256 321 -256 q 368 -253 351 -256 q 397 -243 384 -250 q 417 -226 410 -237 q 425 -199 425 -215 q 406 -160 425 -174 q 358 -147 386 -147 q 348 -149 353 -147 q 338 -151 342 -150 q 328 -155 332 -153 l 328 -16 q 211 19 263 -9 q 123 94 159 48 q 67 200 87 140 q 47 330 47 260 q 75 484 47 418 q 148 596 102 551 q 255 664 194 641 q 382 686 315 686 q 467 677 427 686 q 535 650 507 668 q 581 606 564 632 q 597 546 597 580 q 590 510 597 526 q 572 485 583 495 q 546 470 560 475 q 515 465 531 465 q 475 472 492 465 q 446 488 458 479 l 446 610 q 416 623 431 618 q 387 628 401 628 q 304 607 341 628 q 242 549 267 586 q 203 460 216 511 q 189 349 189 409 q 204 240 189 291 q 247 152 218 189 q 319 92 276 114 q 419 71 362 71 q 512 89 468 71 q 600 136 555 106 l 600 57 z "},"":{"ha":681,"x_min":47,"x_max":633,"o":"m 633 69 q 573 35 604 51 q 508 8 541 20 q 439 -10 474 -3 q 370 -17 405 -17 q 248 4 307 -17 q 145 68 190 26 q 74 176 101 111 q 47 328 47 241 q 72 475 47 409 q 140 588 96 541 q 243 661 183 635 q 374 686 302 686 q 487 665 438 686 q 568 606 536 644 q 617 516 601 568 q 633 401 633 463 l 633 383 q 632 363 633 372 l 182 363 q 193 257 182 310 q 231 162 204 204 q 302 94 257 120 q 414 68 347 68 q 473 76 444 68 q 530 96 502 83 q 584 123 558 108 q 633 154 610 138 l 633 69 m 494 456 q 486 520 494 490 q 461 571 478 549 q 419 605 445 593 q 359 618 394 618 q 295 605 325 618 q 242 566 265 591 q 206 506 220 541 q 189 425 192 470 l 494 425 l 494 456 m 366 765 l 154 900 q 131 923 140 909 q 122 956 122 937 q 125 977 122 966 q 136 997 128 988 q 155 1012 143 1006 q 186 1018 168 1018 q 210 1015 200 1018 q 229 1008 220 1013 q 244 996 237 1003 q 258 981 251 989 l 444 765 l 366 765 z "},"":{"ha":681,"x_min":47,"x_max":633,"o":"m 633 69 q 573 35 604 51 q 508 8 541 20 q 439 -10 474 -3 q 370 -17 405 -17 q 248 4 307 -17 q 145 68 190 26 q 74 176 101 111 q 47 328 47 241 q 72 475 47 409 q 140 588 96 541 q 243 661 183 635 q 374 686 302 686 q 487 665 438 686 q 568 606 536 644 q 617 516 601 568 q 633 401 633 463 l 633 383 q 632 363 633 372 l 182 363 q 193 257 182 310 q 231 162 204 204 q 302 94 257 120 q 414 68 347 68 q 473 76 444 68 q 530 96 502 83 q 584 123 558 108 q 633 154 610 138 l 633 69 m 494 456 q 486 520 494 490 q 461 571 478 549 q 419 605 445 593 q 359 618 394 618 q 295 605 325 618 q 242 566 265 591 q 206 506 220 541 q 189 425 192 470 l 494 425 l 494 456 m 604 956 q 595 923 604 937 q 572 900 587 909 l 361 765 l 282 765 l 467 981 q 497 1008 481 998 q 541 1018 512 1018 q 571 1012 559 1018 q 591 997 583 1006 q 601 977 598 988 q 604 956 604 966 z "},"":{"ha":681,"x_min":47,"x_max":633,"o":"m 633 69 q 573 35 604 51 q 508 8 541 20 q 439 -10 474 -3 q 370 -17 405 -17 q 248 4 307 -17 q 145 68 190 26 q 74 176 101 111 q 47 328 47 241 q 72 475 47 409 q 140 588 96 541 q 243 661 183 635 q 374 686 302 686 q 487 665 438 686 q 568 606 536 644 q 617 516 601 568 q 633 401 633 463 l 633 383 q 632 363 633 372 l 182 363 q 193 257 182 310 q 231 162 204 204 q 302 94 257 120 q 414 68 347 68 q 473 76 444 68 q 530 96 502 83 q 584 123 558 108 q 633 154 610 138 l 633 69 m 494 456 q 486 520 494 490 q 461 571 478 549 q 419 605 445 593 q 359 618 394 618 q 295 605 325 618 q 242 566 265 591 q 206 506 220 541 q 189 425 192 470 l 494 425 l 494 456 m 493 765 l 350 903 l 207 765 l 123 765 l 297 1000 l 401 1000 l 576 765 l 493 765 z "},"":{"ha":681,"x_min":47,"x_max":633,"o":"m 633 69 q 573 35 604 51 q 508 8 541 20 q 439 -10 474 -3 q 370 -17 405 -17 q 248 4 307 -17 q 145 68 190 26 q 74 176 101 111 q 47 328 47 241 q 72 475 47 409 q 140 588 96 541 q 243 661 183 635 q 374 686 302 686 q 487 665 438 686 q 568 606 536 644 q 617 516 601 568 q 633 401 633 463 l 633 383 q 632 363 633 372 l 182 363 q 193 257 182 310 q 231 162 204 204 q 302 94 257 120 q 414 68 347 68 q 473 76 444 68 q 530 96 502 83 q 584 123 558 108 q 633 154 610 138 l 633 69 m 494 456 q 486 520 494 490 q 461 571 478 549 q 419 605 445 593 q 359 618 394 618 q 295 605 325 618 q 242 566 265 591 q 206 506 220 541 q 189 425 192 470 l 494 425 l 494 456 m 574 890 q 568 861 574 875 q 551 836 562 846 q 527 819 541 825 q 497 812 513 812 q 468 819 481 812 q 444 836 454 825 q 427 861 433 846 q 421 890 421 875 q 427 919 421 905 q 444 943 433 932 q 468 960 454 954 q 496 966 481 966 q 526 960 511 966 q 550 944 540 954 q 567 920 561 934 q 574 890 574 906 m 285 890 q 279 861 285 875 q 262 836 273 846 q 238 819 252 825 q 208 812 224 812 q 180 819 193 812 q 156 836 166 825 q 140 860 146 846 q 134 889 134 873 q 140 918 134 904 q 156 943 146 932 q 180 960 166 954 q 208 966 193 966 q 238 960 224 966 q 262 944 252 954 q 279 920 273 934 q 285 890 285 906 z "},"":{"ha":421,"x_min":-20,"x_max":374,"o":"m 225 765 l 14 900 q -10 923 -1 909 q -20 956 -20 937 q -16 977 -20 966 q -5 997 -13 988 q 15 1012 3 1006 q 46 1018 28 1018 q 71 1016 60 1018 q 89 1008 81 1013 q 104 997 97 1004 q 118 981 111 989 l 302 765 l 225 765 m 47 0 l 47 54 l 115 58 q 136 68 128 60 q 144 89 144 76 l 144 585 l 49 585 l 49 632 l 218 685 l 273 685 l 273 89 q 282 68 273 76 q 302 58 290 60 l 374 54 l 374 0 l 47 0 z "},"":{"ha":421,"x_min":47,"x_max":375,"o":"m 375 956 q 367 923 375 937 q 343 900 358 909 l 132 765 l 53 765 l 237 981 q 268 1008 252 998 q 311 1018 283 1018 q 342 1012 330 1018 q 361 997 354 1006 q 372 977 369 988 q 375 956 375 966 m 47 0 l 47 54 l 115 58 q 136 68 128 60 q 144 89 144 76 l 144 585 l 49 585 l 49 632 l 218 685 l 273 685 l 273 89 q 282 68 273 76 q 302 58 290 60 l 374 54 l 374 0 l 47 0 z "},"":{"ha":421,"x_min":-17,"x_max":437,"o":"m 354 765 l 210 903 l 66 765 l -17 765 l 158 1000 l 262 1000 l 437 765 l 354 765 m 49 0 l 49 54 l 115 58 q 137 68 129 60 q 144 89 144 76 l 144 585 l 50 585 l 50 632 l 220 685 l 273 685 l 273 89 q 282 68 273 76 q 302 58 290 60 l 375 54 l 375 0 l 49 0 z "},"":{"ha":421,"x_min":-9,"x_max":429,"o":"m 429 890 q 423 861 429 875 q 407 836 417 846 q 382 819 396 825 q 353 812 368 812 q 323 819 337 812 q 300 836 310 825 q 284 861 290 846 q 278 890 278 875 q 284 919 278 905 q 301 943 290 932 q 325 960 311 954 q 353 966 338 966 q 382 960 368 966 q 407 944 396 954 q 423 920 417 934 q 429 890 429 906 m 142 890 q 136 861 142 875 q 119 836 130 846 q 95 819 109 825 q 65 812 81 812 q 37 819 50 812 q 13 836 23 825 q -3 860 3 846 q -9 889 -9 873 q -3 918 -9 904 q 13 943 3 932 q 37 960 23 954 q 65 966 50 966 q 95 960 81 966 q 119 944 109 954 q 136 920 130 934 q 142 890 142 906 m 47 0 l 47 54 l 115 58 q 136 68 128 60 q 144 89 144 76 l 144 585 l 49 585 l 49 632 l 218 685 l 273 685 l 273 89 q 282 68 273 76 q 302 58 290 60 l 374 54 l 374 0 l 47 0 z "},"":{"ha":749,"x_min":47,"x_max":701,"o":"m 701 376 q 677 214 701 287 q 610 90 653 142 q 506 11 566 39 q 375 -17 446 -17 q 241 9 301 -17 q 137 83 180 36 q 71 196 94 131 q 47 339 47 262 q 73 480 47 416 q 143 590 98 544 q 250 661 189 635 q 383 686 311 686 q 414 683 398 686 q 444 676 430 680 q 467 670 458 673 q 476 667 475 667 q 449 710 466 685 q 414 758 431 735 q 384 798 397 781 q 370 817 371 815 l 193 711 l 163 766 l 322 863 l 273 918 l 157 933 l 157 972 l 328 1023 l 428 921 l 579 1011 l 611 956 l 469 869 q 504 830 481 856 q 551 768 526 804 q 604 688 577 732 q 652 594 630 644 q 687 489 673 544 q 701 376 701 434 m 567 349 q 553 494 567 433 q 513 597 538 555 q 476 611 494 605 q 442 621 460 616 q 407 625 423 625 q 311 603 352 625 q 244 542 271 581 q 205 451 218 503 q 192 338 192 398 q 202 230 192 283 q 235 137 212 178 q 293 71 257 96 q 379 46 328 46 q 466 73 430 46 q 524 142 502 99 q 557 239 547 185 q 567 349 567 294 z "},"":{"ha":802,"x_min":28,"x_max":760,"o":"m 637 965 q 616 907 629 935 q 583 858 603 879 q 536 825 563 838 q 476 812 510 812 q 428 823 448 812 q 387 846 408 833 q 342 868 366 858 q 285 879 319 879 q 258 873 271 879 q 235 858 245 867 q 219 837 225 849 q 211 812 212 825 l 155 812 q 177 871 163 843 q 210 920 190 899 q 256 953 230 941 q 317 965 283 965 q 365 955 344 965 q 407 932 386 944 q 452 909 427 920 q 510 899 476 899 q 536 904 524 899 q 558 919 549 910 q 574 941 568 928 q 582 965 581 953 l 637 965 m 453 0 l 453 54 l 511 58 q 532 68 524 60 q 541 89 541 76 l 541 450 q 510 550 541 516 q 407 585 479 585 q 328 573 367 585 q 254 545 290 562 l 254 89 q 262 68 254 76 q 283 58 271 60 l 342 54 l 342 0 l 28 0 l 28 54 l 96 58 q 117 68 109 60 q 125 89 125 76 l 125 571 l 28 571 l 28 616 l 197 669 l 254 669 l 254 600 q 314 632 283 616 q 374 660 344 648 q 431 679 404 672 q 484 686 459 686 q 622 630 574 686 q 669 472 669 574 l 669 89 q 678 68 669 76 q 699 58 686 60 l 760 54 l 760 0 l 453 0 z "},"":{"ha":755,"x_min":47,"x_max":708,"o":"m 379 765 l 168 900 q 145 923 153 909 q 136 956 136 937 q 139 977 136 966 q 150 997 142 988 q 170 1012 157 1006 q 200 1018 182 1018 q 224 1015 214 1018 q 243 1008 235 1013 q 258 996 251 1003 q 272 981 264 989 l 458 765 l 379 765 m 708 334 q 685 196 708 260 q 618 84 661 132 q 514 10 575 37 q 376 -17 452 -17 q 239 10 300 -17 q 136 83 178 37 q 70 194 93 130 q 47 334 47 258 q 71 472 47 408 q 137 584 94 536 q 242 659 180 632 q 380 686 303 686 q 519 659 458 686 q 622 583 580 631 q 686 471 664 535 q 708 334 708 407 m 564 335 q 552 444 564 392 q 518 536 541 496 q 460 600 495 576 q 379 624 426 624 q 296 600 331 624 q 238 536 260 576 q 204 444 215 496 q 193 335 193 392 q 204 227 193 279 q 239 134 216 174 q 296 70 262 94 q 378 46 331 46 q 460 70 425 46 q 518 134 496 94 q 552 226 541 174 q 564 335 564 278 z "},"":{"ha":755,"x_min":47,"x_max":708,"o":"m 628 956 q 620 923 628 937 q 596 900 611 909 l 385 765 l 306 765 l 490 981 q 505 997 498 989 q 520 1008 512 1004 q 539 1016 529 1013 q 564 1018 549 1018 q 594 1012 582 1018 q 614 997 606 1006 q 625 977 622 988 q 628 956 628 966 m 708 334 q 685 196 708 260 q 618 84 661 132 q 514 10 575 37 q 376 -17 452 -17 q 239 10 300 -17 q 136 83 178 37 q 70 194 93 130 q 47 334 47 258 q 71 472 47 408 q 137 584 94 536 q 242 659 180 632 q 380 686 303 686 q 519 659 458 686 q 622 583 580 631 q 686 471 664 535 q 708 334 708 407 m 564 335 q 552 444 564 392 q 518 536 541 496 q 460 600 495 576 q 379 624 426 624 q 296 600 331 624 q 238 536 260 576 q 204 444 215 496 q 193 335 193 392 q 204 227 193 279 q 239 134 216 174 q 296 70 262 94 q 378 46 331 46 q 460 70 425 46 q 518 134 496 94 q 552 226 541 174 q 564 335 564 278 z "},"":{"ha":755,"x_min":47,"x_max":708,"o":"m 522 765 l 379 903 l 235 765 l 151 765 l 326 1000 l 431 1000 l 606 765 l 522 765 m 708 334 q 685 196 708 260 q 618 84 661 132 q 514 10 575 37 q 376 -17 452 -17 q 239 10 300 -17 q 136 83 178 37 q 70 194 93 130 q 47 334 47 258 q 71 472 47 408 q 137 584 94 536 q 242 659 180 632 q 380 686 303 686 q 519 659 458 686 q 622 583 580 631 q 686 471 664 535 q 708 334 708 407 m 564 335 q 552 444 564 392 q 518 536 541 496 q 460 600 495 576 q 379 624 426 624 q 296 600 331 624 q 238 536 260 576 q 204 444 215 496 q 193 335 193 392 q 204 227 193 279 q 239 134 216 174 q 296 70 262 94 q 378 46 331 46 q 460 70 425 46 q 518 134 496 94 q 552 226 541 174 q 564 335 564 278 z "},"":{"ha":755,"x_min":47,"x_max":708,"o":"m 627 965 q 605 907 618 935 q 572 858 591 879 q 526 825 552 838 q 465 812 499 812 q 417 823 437 812 q 376 846 397 833 q 331 868 355 858 q 273 879 307 879 q 247 873 259 879 q 224 858 234 867 q 208 837 214 849 q 200 812 201 825 l 144 812 q 166 871 153 843 q 199 920 179 899 q 245 953 219 941 q 306 965 272 965 q 354 955 333 965 q 396 932 375 944 q 440 909 416 920 q 498 899 465 899 q 525 904 513 899 q 547 919 538 910 q 563 941 557 928 q 571 965 570 953 l 627 965 m 708 334 q 685 196 708 260 q 618 84 661 132 q 514 10 575 37 q 376 -17 452 -17 q 239 10 300 -17 q 136 83 178 37 q 70 194 93 130 q 47 334 47 258 q 71 472 47 408 q 137 584 94 536 q 242 659 180 632 q 380 686 303 686 q 519 659 458 686 q 622 583 580 631 q 686 471 664 535 q 708 334 708 407 m 564 335 q 552 444 564 392 q 518 536 541 496 q 460 600 495 576 q 379 624 426 624 q 296 600 331 624 q 238 536 260 576 q 204 444 215 496 q 193 335 193 392 q 204 227 193 279 q 239 134 216 174 q 296 70 262 94 q 378 46 331 46 q 460 70 425 46 q 518 134 496 94 q 552 226 541 174 q 564 335 564 278 z "},"":{"ha":755,"x_min":47,"x_max":708,"o":"m 602 890 q 595 861 602 875 q 579 836 589 846 q 554 819 568 825 q 525 812 541 812 q 496 819 509 812 q 472 836 482 825 q 456 861 462 846 q 450 890 450 875 q 456 919 450 905 q 473 943 463 932 q 497 960 484 954 q 525 966 511 966 q 554 960 541 966 q 579 944 568 954 q 595 920 589 934 q 602 890 602 906 m 314 890 q 308 861 314 875 q 291 836 302 846 q 267 819 281 825 q 237 812 253 812 q 209 819 222 812 q 185 836 195 825 q 169 860 175 846 q 163 889 163 873 q 169 918 163 904 q 185 943 175 932 q 209 960 195 954 q 237 966 222 966 q 267 960 253 966 q 291 944 281 954 q 308 920 302 934 q 314 890 314 906 m 708 334 q 685 196 708 260 q 618 84 661 132 q 514 10 575 37 q 376 -17 452 -17 q 239 10 300 -17 q 136 83 178 37 q 70 194 93 130 q 47 334 47 258 q 71 472 47 408 q 137 584 94 536 q 242 659 180 632 q 380 686 303 686 q 519 659 458 686 q 622 583 580 631 q 686 471 664 535 q 708 334 708 407 m 564 335 q 552 444 564 392 q 518 536 541 496 q 460 600 495 576 q 379 624 426 624 q 296 600 331 624 q 238 536 260 576 q 204 444 215 496 q 193 335 193 392 q 204 227 193 279 q 239 134 216 174 q 296 70 262 94 q 378 46 331 46 q 460 70 425 46 q 518 134 496 94 q 552 226 541 174 q 564 335 564 278 z "},"":{"ha":1157,"x_min":172,"x_max":985,"o":"m 663 656 q 656 623 663 638 q 638 596 650 608 q 611 579 627 585 q 579 572 596 572 q 546 579 562 572 q 519 596 531 585 q 501 623 508 608 q 494 656 494 638 q 501 688 494 673 q 519 714 508 703 q 546 732 531 726 q 579 739 562 739 q 611 732 596 739 q 638 714 627 726 q 656 688 650 703 q 663 656 663 673 m 172 375 l 172 454 l 985 454 l 985 375 l 172 375 m 663 174 q 656 141 663 156 q 638 115 650 126 q 611 98 627 104 q 579 92 596 92 q 546 98 562 92 q 519 115 531 104 q 501 141 508 126 q 494 174 494 156 q 501 207 494 191 q 519 234 508 222 q 546 252 531 245 q 579 258 562 258 q 611 252 596 258 q 638 234 627 245 q 656 207 650 222 q 663 174 663 191 z "},"":{"ha":755,"x_min":47,"x_max":708,"o":"m 708 334 q 685 196 708 260 q 618 84 661 132 q 514 10 575 37 q 376 -17 452 -17 q 292 -7 332 -17 q 218 21 253 3 l 142 -114 l 93 -85 l 171 52 q 79 171 111 98 q 47 334 47 244 q 71 472 47 408 q 137 584 94 536 q 242 659 180 632 q 380 686 303 686 q 453 679 419 686 q 518 659 488 672 l 587 779 l 637 751 l 568 631 q 628 575 602 607 q 672 506 654 544 q 699 425 690 468 q 708 334 708 381 m 478 587 q 433 614 458 604 q 379 624 408 624 q 296 600 331 624 q 238 536 260 576 q 204 444 215 496 q 193 335 193 392 q 202 238 193 284 q 229 153 212 191 l 478 587 m 564 335 q 552 447 564 393 q 517 541 541 500 l 264 98 q 314 60 286 75 q 378 46 342 46 q 460 70 425 46 q 518 134 496 94 q 552 226 541 174 q 564 335 564 278 z "},"":{"ha":790,"x_min":29,"x_max":761,"o":"m 415 765 l 204 900 q 181 923 189 909 q 172 956 172 937 q 175 977 172 966 q 186 997 178 988 q 205 1012 193 1006 q 236 1018 218 1018 q 279 1008 264 1018 q 310 981 295 998 l 494 765 l 415 765 m 542 0 l 542 79 q 498 49 524 66 q 443 17 473 32 q 381 -7 413 3 q 318 -17 349 -17 q 238 -4 273 -17 q 177 37 202 9 q 139 107 153 64 q 126 208 126 149 l 126 585 l 29 585 l 29 632 l 200 686 l 257 686 l 257 235 q 264 169 257 198 q 287 119 271 140 q 328 89 302 99 q 390 78 353 78 q 433 82 411 78 q 475 93 455 86 q 512 106 495 99 q 542 119 530 113 l 542 585 l 444 585 l 444 632 l 614 686 l 669 686 l 669 89 q 679 68 669 76 q 700 58 688 60 l 761 54 l 761 0 l 542 0 z "},"":{"ha":790,"x_min":29,"x_max":761,"o":"m 639 956 q 608 900 639 920 l 397 765 l 318 765 l 503 981 q 533 1008 517 998 q 576 1018 549 1018 q 607 1012 595 1018 q 626 997 618 1006 q 636 977 633 988 q 639 956 639 966 m 542 0 l 542 79 q 498 49 524 66 q 443 17 473 32 q 381 -7 413 3 q 318 -17 349 -17 q 238 -4 273 -17 q 177 37 202 9 q 139 107 153 64 q 126 208 126 149 l 126 585 l 29 585 l 29 632 l 200 686 l 257 686 l 257 235 q 264 169 257 198 q 287 119 271 140 q 328 89 302 99 q 390 78 353 78 q 433 82 411 78 q 475 93 455 86 q 512 106 495 99 q 542 119 530 113 l 542 585 l 444 585 l 444 632 l 614 686 l 669 686 l 669 89 q 679 68 669 76 q 700 58 688 60 l 761 54 l 761 0 l 542 0 z "},"":{"ha":790,"x_min":29,"x_max":761,"o":"m 541 765 l 397 903 l 253 765 l 170 765 l 345 1000 l 449 1000 l 624 765 l 541 765 m 542 0 l 542 79 q 498 49 524 66 q 443 17 473 32 q 381 -7 413 3 q 318 -17 349 -17 q 238 -4 273 -17 q 177 37 202 9 q 139 107 153 64 q 126 208 126 149 l 126 585 l 29 585 l 29 632 l 200 686 l 257 686 l 257 235 q 264 169 257 198 q 287 119 271 140 q 328 89 302 99 q 390 78 353 78 q 433 82 411 78 q 475 93 455 86 q 512 106 495 99 q 542 119 530 113 l 542 585 l 444 585 l 444 632 l 614 686 l 669 686 l 669 89 q 679 68 669 76 q 700 58 688 60 l 761 54 l 761 0 l 542 0 z "},"":{"ha":790,"x_min":29,"x_max":761,"o":"m 614 890 q 608 861 614 875 q 591 836 602 846 q 567 819 581 825 q 538 812 553 812 q 508 819 522 812 q 484 836 494 825 q 468 861 474 846 q 463 890 463 875 q 469 919 463 905 q 485 943 475 932 q 509 960 496 954 q 538 966 523 966 q 567 960 553 966 q 591 944 581 954 q 608 920 602 934 q 614 890 614 906 m 326 890 q 320 861 326 875 q 303 836 314 846 q 278 819 292 825 q 249 812 264 812 q 220 819 233 812 q 197 836 207 825 q 181 860 186 846 q 175 889 175 873 q 181 918 175 904 q 197 943 187 932 q 221 960 208 954 q 250 966 235 966 q 280 960 266 966 q 304 944 294 954 q 320 920 314 934 q 326 890 326 906 m 542 0 l 542 79 q 498 49 524 66 q 443 17 473 32 q 381 -7 413 3 q 318 -17 349 -17 q 238 -4 273 -17 q 177 37 202 9 q 139 107 153 64 q 126 208 126 149 l 126 585 l 29 585 l 29 632 l 200 686 l 257 686 l 257 235 q 264 169 257 198 q 287 119 271 140 q 328 89 302 99 q 390 78 353 78 q 433 82 411 78 q 475 93 455 86 q 512 106 495 99 q 542 119 530 113 l 542 585 l 444 585 l 444 632 l 614 686 l 669 686 l 669 89 q 679 68 669 76 q 700 58 688 60 l 761 54 l 761 0 l 542 0 z "},"":{"ha":736,"x_min":14,"x_max":722,"o":"m 612 956 q 603 923 612 937 q 579 900 594 909 l 370 765 l 290 765 l 475 981 q 505 1008 490 998 q 549 1018 521 1018 q 579 1012 567 1018 q 599 997 591 1006 q 609 977 606 988 q 612 956 612 966 m 650 607 l 383 -43 q 364 -88 376 -60 q 335 -149 352 -117 q 299 -212 319 -181 q 257 -265 279 -243 q 202 -304 232 -290 q 136 -318 172 -318 q 93 -312 112 -318 q 61 -294 74 -305 q 41 -269 48 -283 q 35 -239 35 -254 q 45 -195 35 -215 q 79 -155 56 -175 l 210 -215 q 244 -171 227 -198 q 277 -113 262 -143 q 306 -52 293 -82 q 326 1 319 -22 l 90 607 l 14 615 l 14 669 l 321 669 l 321 615 l 254 611 q 238 604 245 610 q 232 589 232 597 q 233 581 232 583 l 395 171 l 559 581 q 562 589 562 585 q 556 604 562 597 q 541 611 550 610 l 475 615 l 475 669 l 722 669 l 722 615 l 650 607 z "},"":{"ha":777,"x_min":29,"x_max":729,"o":"m 729 345 q 705 196 729 262 q 636 82 681 129 q 525 9 591 35 q 378 -17 460 -17 q 337 -15 359 -17 q 297 -11 315 -14 q 254 -4 275 -8 l 254 -211 q 263 -231 254 -224 q 285 -240 272 -239 l 367 -249 l 367 -302 l 29 -302 l 29 -249 l 96 -240 q 117 -231 109 -239 q 125 -211 125 -224 l 125 925 l 29 925 l 29 971 l 200 1023 l 254 1023 l 254 600 q 318 643 284 624 q 385 673 347 659 q 464 686 423 686 q 566 662 517 686 q 650 593 614 637 q 708 485 686 548 q 729 345 729 422 m 590 325 q 577 426 590 378 q 541 510 565 474 q 480 568 516 547 q 396 589 444 589 q 344 582 370 589 q 299 568 319 575 q 254 547 276 559 l 254 69 q 289 58 271 63 q 325 51 304 54 q 367 47 345 47 q 466 71 424 47 q 535 132 508 94 q 576 220 563 170 q 590 325 590 271 z "},"":{"ha":736,"x_min":14,"x_max":722,"o":"m 610 890 q 604 861 610 875 q 588 836 598 846 q 564 819 578 825 q 534 812 550 812 q 505 819 519 812 q 481 836 491 825 q 465 861 471 846 q 458 890 458 875 q 465 919 458 905 q 482 943 471 932 q 506 960 492 954 q 534 966 520 966 q 564 960 550 966 q 588 944 578 954 q 604 920 598 934 q 610 890 610 906 m 322 890 q 316 861 322 875 q 299 836 310 846 q 275 819 289 825 q 245 812 261 812 q 217 819 231 812 q 193 836 203 825 q 177 860 183 846 q 171 889 171 873 q 177 918 171 904 q 193 943 183 932 q 217 960 203 954 q 245 966 231 966 q 275 960 261 966 q 299 944 289 954 q 316 920 310 934 q 322 890 322 906 m 650 607 l 383 -43 q 364 -88 376 -60 q 335 -149 352 -117 q 299 -212 319 -181 q 257 -265 279 -243 q 202 -304 232 -290 q 136 -318 172 -318 q 93 -312 112 -318 q 61 -294 74 -305 q 41 -269 48 -283 q 35 -239 35 -254 q 45 -195 35 -215 q 79 -155 56 -175 l 210 -215 q 244 -171 227 -198 q 277 -113 262 -143 q 306 -52 293 -82 q 326 1 319 -22 l 90 607 l 14 615 l 14 669 l 321 669 l 321 615 l 254 611 q 238 604 245 610 q 232 589 232 597 q 233 581 232 583 l 395 171 l 559 581 q 562 589 562 585 q 556 604 562 597 q 541 611 550 610 l 475 615 l 475 669 l 722 669 l 722 615 l 650 607 z "},"":{"ha":421,"x_min":47,"x_max":374,"o":"m 47 0 l 47 54 l 115 58 q 136 68 128 60 q 144 89 144 76 l 144 585 l 49 585 l 49 633 l 218 686 l 273 686 l 273 89 q 282 68 273 76 q 302 58 290 60 l 374 54 l 374 0 l 47 0 z "},"":{"ha":668,"x_min":0,"x_max":0,"o":""},"":{"ha":1337,"x_min":0,"x_max":0,"o":""},"":{"ha":694,"x_min":0,"x_max":0,"o":""},"":{"ha":1389,"x_min":0,"x_max":0,"o":""},"":{"ha":446,"x_min":0,"x_max":0,"o":""},"":{"ha":334,"x_min":0,"x_max":0,"o":""},"":{"ha":222,"x_min":0,"x_max":0,"o":""},"":{"ha":750,"x_min":0,"x_max":0,"o":""},"":{"ha":28,"x_min":0,"x_max":0,"o":""},"":{"ha":443,"x_min":0,"x_max":0,"o":""},"":{"ha":1,"x_min":0,"x_max":0,"o":""},"":{"ha":0,"x_min":0,"x_max":0,"o":""},"":{"ha":0,"x_min":0,"x_max":0,"o":""},"":{"ha":0,"x_min":0,"x_max":0,"o":""},"":{"ha":444,"x_min":61,"x_max":383,"o":"m 61 261 l 61 407 l 383 407 l 383 261 l 61 261 z "},"":{"ha":444,"x_min":61,"x_max":383,"o":"m 61 261 l 61 407 l 383 407 l 383 261 l 61 261 z "},"":{"ha":782,"x_min":34,"x_max":748,"o":"m 34 261 l 34 407 l 748 407 l 748 261 l 34 261 z "},"":{"ha":1350,"x_min":-3,"x_max":1353,"o":"m -3 261 l -3 407 l 1353 407 l 1353 261 l -3 261 z "},"":{"ha":261,"x_min":49,"x_max":212,"o":"m 212 472 q 206 440 212 455 q 189 414 199 425 q 163 396 178 403 q 131 390 148 390 q 98 396 113 390 q 73 414 83 403 q 55 440 62 425 q 49 472 49 455 q 55 504 49 489 q 73 530 62 519 q 98 548 83 541 q 131 554 113 554 q 163 548 148 554 q 189 530 178 541 q 206 504 199 519 q 212 472 212 489 z "},"":{"ha":0,"x_min":0,"x_max":0,"o":""},"":{"ha":0,"x_min":0,"x_max":0,"o":""},"":{"ha":334,"x_min":0,"x_max":0,"o":""},"":{"ha":1389,"x_min":278,"x_max":1111,"o":"m 278 374 l 278 460 l 1111 460 l 1111 374 l 278 374 z "},"":{"ha":1111,"x_min":175,"x_max":930,"o":"m 819 671 q 798 663 811 663 q 777 671 785 663 q 768 693 768 680 q 777 714 768 705 q 798 723 785 723 q 819 714 811 723 q 829 693 829 705 q 819 671 829 680 m 714 757 q 703 743 710 747 q 686 738 695 738 q 673 741 679 738 q 660 751 665 744 q 655 768 655 759 q 657 779 655 774 q 668 794 661 789 q 685 799 676 799 q 697 796 692 799 q 711 785 706 793 q 717 768 717 778 q 716 763 717 765 q 714 757 715 760 m 901 591 q 904 579 904 586 q 899 563 904 570 q 885 551 895 555 q 874 549 880 549 q 857 554 865 549 q 846 568 849 559 q 843 581 843 574 q 848 597 843 589 q 863 608 853 605 q 874 611 869 611 q 890 606 883 611 q 901 591 898 600 m 583 794 q 574 773 583 782 q 553 764 566 764 q 531 773 541 764 q 522 794 522 782 q 531 816 522 807 q 553 825 541 825 q 574 816 566 825 q 583 794 583 807 m 930 447 q 922 426 930 435 q 900 416 913 416 q 879 426 888 416 q 869 447 869 435 q 879 469 869 460 q 900 478 888 478 q 922 469 913 478 q 930 447 930 460 m 449 779 q 451 769 451 774 q 446 752 451 760 q 432 741 441 744 q 419 738 427 738 q 403 743 410 738 q 392 757 395 747 q 389 768 389 762 q 394 785 389 777 q 408 796 399 793 q 420 799 414 799 q 437 794 429 799 q 449 779 445 789 m 901 302 q 890 289 898 294 q 874 283 883 283 q 863 286 869 283 q 848 297 853 290 q 843 314 843 305 q 846 326 843 321 q 857 340 849 336 q 874 345 865 345 q 885 343 880 345 q 899 332 895 340 q 904 315 904 324 q 901 302 904 308 m 329 671 q 307 663 319 663 q 286 671 294 663 q 277 693 277 680 q 286 714 277 705 q 307 723 294 723 q 329 714 320 723 q 338 693 338 704 q 329 671 338 681 m 819 180 q 798 171 811 171 q 777 180 786 171 q 768 201 768 189 q 777 224 768 214 q 798 232 785 232 q 819 224 811 232 q 829 201 829 213 q 819 180 829 189 m 260 568 q 249 554 256 559 q 232 549 241 549 q 221 551 226 549 q 207 563 212 555 q 201 579 201 570 q 204 591 201 586 q 215 606 208 600 q 231 611 222 611 q 243 608 236 611 q 257 597 252 605 q 262 581 262 589 q 260 568 262 574 m 714 138 q 716 132 715 134 q 717 126 717 130 q 711 109 717 117 q 697 98 706 102 q 685 96 692 96 q 668 101 676 96 q 657 115 661 106 q 655 126 655 120 q 660 143 655 136 q 673 154 665 151 q 686 157 679 157 q 703 152 695 157 q 714 138 710 147 m 236 447 q 227 426 236 435 q 205 416 218 416 q 184 426 193 416 q 175 447 175 435 q 184 469 175 460 q 205 478 193 478 q 227 469 218 478 q 236 447 236 460 m 583 100 q 574 78 583 87 q 553 69 566 69 q 531 78 541 69 q 522 100 522 87 q 531 122 522 113 q 553 131 541 131 q 574 122 566 131 q 583 100 583 113 m 260 326 q 262 314 262 321 q 257 297 262 305 q 243 286 252 290 q 231 283 236 283 q 215 289 222 283 q 204 302 208 294 q 201 315 201 308 q 207 332 201 324 q 221 343 212 340 q 232 345 226 345 q 249 340 241 345 q 260 326 256 336 m 449 115 q 437 101 445 106 q 420 96 429 96 q 408 98 414 96 q 394 110 399 102 q 389 126 389 117 q 392 138 389 132 q 403 152 395 147 q 419 157 410 157 q 432 154 427 157 q 446 143 441 151 q 451 125 451 135 q 449 115 451 120 m 329 180 q 307 171 319 171 q 286 180 294 171 q 277 201 277 188 q 286 224 277 214 q 307 232 294 232 q 329 224 319 232 q 338 201 338 213 q 329 180 338 189 z "},"":{"ha":0,"x_min":0,"x_max":0,"o":""},"":{"ha":1310,"x_min":58,"x_max":1244,"o":"m 414 0 l 58 355 l 195 492 l 414 273 l 1108 965 l 1244 831 l 414 0 z "},"":{"ha":1,"x_min":-814,"x_max":-492,"o":"m -571 1057 l -782 1192 q -805 1215 -797 1201 q -814 1247 -814 1228 q -810 1269 -814 1258 q -800 1289 -807 1280 q -780 1304 -792 1298 q -750 1310 -768 1310 q -725 1307 -735 1310 q -707 1299 -715 1304 q -692 1288 -699 1295 q -677 1272 -685 1281 l -492 1057 l -571 1057 z "},"":{"ha":1,"x_min":-834,"x_max":-352,"o":"m -352 1229 q -374 1171 -360 1198 q -407 1122 -387 1143 q -453 1089 -427 1101 q -513 1076 -479 1076 q -562 1087 -541 1076 q -604 1110 -583 1097 q -649 1133 -625 1122 q -707 1143 -673 1143 q -733 1138 -721 1143 q -755 1122 -745 1132 q -771 1101 -765 1113 q -779 1076 -777 1088 l -834 1076 q -813 1135 -826 1107 q -780 1183 -800 1162 q -733 1217 -760 1204 q -673 1229 -707 1229 q -640 1224 -654 1229 q -611 1212 -625 1219 q -584 1196 -597 1204 q -555 1180 -570 1187 q -522 1167 -540 1173 q -481 1162 -504 1162 q -455 1168 -467 1162 q -432 1183 -442 1174 q -415 1204 -422 1192 q -408 1229 -409 1217 l -352 1229 z "},"":{"ha":1,"x_min":-711,"x_max":-389,"o":"m -389 1247 q -398 1215 -389 1228 q -420 1192 -407 1201 l -632 1057 l -711 1057 l -526 1272 q -511 1288 -518 1281 q -496 1300 -505 1295 q -478 1307 -488 1305 q -452 1310 -467 1310 q -422 1304 -434 1310 q -402 1289 -410 1298 q -392 1269 -395 1280 q -389 1247 -389 1258 z "},"":{"ha":1389,"x_min":160,"x_max":1229,"o":"m 1229 513 q 1210 370 1229 439 q 1156 242 1191 302 q 1073 134 1121 183 q 965 51 1024 85 q 837 -3 905 16 q 694 -22 768 -22 q 528 4 606 -22 q 382 78 449 31 l 271 -57 l 214 -16 l 328 122 q 258 202 289 159 q 205 296 227 246 q 172 400 184 346 q 160 513 160 454 q 179 655 160 587 q 233 783 198 724 q 316 891 268 842 q 424 974 365 939 q 552 1028 484 1009 q 694 1047 621 1047 q 865 1020 785 1047 q 1013 942 945 992 l 1103 1050 l 1158 1006 l 1067 896 q 1134 816 1104 859 q 1185 725 1164 773 q 1218 623 1206 676 q 1229 513 1229 570 m 1162 511 q 1125 694 1162 608 q 1022 843 1088 779 l 427 131 q 552 67 484 90 q 696 45 621 45 q 877 81 792 45 q 1026 181 962 118 q 1126 330 1089 245 q 1162 511 1162 415 m 968 889 q 842 955 910 931 q 696 978 774 978 q 514 941 600 978 q 366 841 429 905 q 266 693 302 778 q 229 511 229 608 q 268 325 229 412 q 372 175 307 239 l 968 889 z "},"":{"ha":953,"x_min":56,"x_max":897,"o":"m 562 707 q 509 693 542 698 q 441 688 476 688 q 408 689 425 688 q 378 693 392 690 l 378 876 q 402 874 389 875 q 428 873 414 873 q 499 878 463 873 q 562 890 536 882 l 562 707 m 868 401 q 814 387 848 392 q 747 382 781 382 q 714 383 730 382 q 684 387 698 385 l 684 571 q 708 569 695 570 q 734 568 721 568 q 805 572 769 568 q 868 585 841 576 l 868 401 m 510 482 l 893 94 l 859 62 l 476 449 l 89 66 l 56 100 l 443 484 l 60 871 l 94 903 l 476 517 l 864 899 l 897 865 l 510 482 m 257 401 q 203 387 237 392 q 136 382 170 382 q 102 383 119 382 q 72 387 86 385 l 72 571 q 96 569 83 570 q 123 568 109 568 q 194 572 158 568 q 257 585 230 576 l 257 401 m 562 96 q 509 82 542 87 q 441 77 476 77 q 408 78 425 77 q 378 82 392 79 l 378 265 q 402 263 389 264 q 428 262 414 262 q 499 267 463 262 q 562 279 536 271 l 562 96 z "},"":{"ha":0,"x_min":0,"x_max":0,"o":""},"":{"ha":0,"x_min":0,"x_max":0,"o":""},"":{"ha":0,"x_min":0,"x_max":0,"o":""},"":{"ha":0,"x_min":0,"x_max":0,"o":""},"":{"ha":0,"x_min":0,"x_max":0,"o":""},"":{"ha":0,"x_min":0,"x_max":0,"o":""},"":{"ha":0,"x_min":0,"x_max":0,"o":""},"":{"ha":0,"x_min":0,"x_max":0,"o":""},"":{"ha":562,"x_min":43,"x_max":500,"o":"m 500 703 q 488 591 500 644 q 449 499 476 538 q 378 438 422 460 q 271 415 334 415 q 165 438 208 415 q 94 499 121 460 q 55 591 67 538 q 43 703 43 644 q 55 814 43 762 q 95 906 68 867 q 165 967 122 945 q 271 990 209 990 q 377 967 334 990 q 448 906 421 945 q 488 814 475 867 q 500 703 500 762 m 386 703 q 381 787 386 747 q 365 856 377 826 q 330 902 353 885 q 271 920 307 920 q 212 902 235 920 q 177 856 190 885 q 160 787 164 826 q 155 703 155 747 q 160 618 155 658 q 177 550 164 579 q 212 503 190 520 q 271 486 235 486 q 329 503 307 486 q 365 550 352 520 q 381 618 377 579 q 386 703 386 658 z "},"":{"ha":562,"x_min":37,"x_max":518,"o":"m 449 536 l 449 416 l 345 416 l 345 536 l 37 536 l 37 643 l 302 974 l 449 974 l 449 616 l 518 616 l 518 536 l 449 536 m 345 905 l 117 616 l 345 616 l 345 905 z "},"":{"ha":562,"x_min":49,"x_max":481,"o":"m 481 607 q 467 538 481 572 q 425 477 454 505 q 351 433 396 450 q 244 416 307 416 q 143 433 182 416 q 84 474 105 450 q 56 522 63 497 q 49 562 49 547 l 149 562 q 158 532 151 547 q 178 506 165 517 q 209 488 191 494 q 250 481 227 481 q 303 491 281 481 q 340 518 326 500 q 361 558 354 535 q 368 607 368 581 q 362 654 368 633 q 342 690 356 675 q 308 713 329 705 q 256 721 286 721 q 209 715 229 721 q 176 698 189 709 q 155 674 163 688 q 143 644 147 660 l 62 644 l 75 974 l 436 974 l 436 888 l 153 888 l 146 734 q 210 774 177 763 q 285 785 242 785 q 369 770 332 785 q 431 730 406 755 q 468 673 456 705 q 481 607 481 641 z "},"":{"ha":562,"x_min":43,"x_max":505,"o":"m 505 611 q 485 524 505 560 q 433 463 465 487 q 358 428 400 439 q 271 416 315 416 q 184 429 226 416 q 112 472 143 441 q 61 556 80 503 q 43 692 43 609 q 61 831 43 774 q 111 923 79 888 q 189 974 144 958 q 288 990 234 990 q 367 980 331 990 q 428 951 402 969 q 467 908 453 932 q 481 856 481 884 l 370 856 q 366 881 370 868 q 352 905 361 895 q 327 923 342 916 q 288 930 311 930 q 238 923 260 930 q 200 895 216 916 q 172 836 183 874 q 153 737 160 798 q 211 774 174 758 q 304 790 248 790 q 372 781 336 790 q 437 751 408 772 q 486 696 467 730 q 505 611 505 662 m 395 606 q 386 654 395 631 q 360 695 376 677 q 322 722 344 712 q 275 732 300 732 q 229 722 251 732 q 191 695 207 712 q 165 654 174 677 q 155 606 155 631 q 165 557 155 580 q 191 517 174 534 q 229 491 207 500 q 275 481 251 481 q 322 491 300 481 q 360 517 344 500 q 386 557 376 534 q 395 606 395 580 z "},"":{"ha":562,"x_min":56,"x_max":481,"o":"m 268 416 l 127 416 l 390 888 l 56 888 l 56 974 l 481 974 l 481 888 l 268 416 z "},"":{"ha":562,"x_min":43,"x_max":493,"o":"m 493 576 q 476 513 493 542 q 430 462 460 484 q 359 429 401 441 q 269 416 318 416 q 175 429 217 416 q 104 462 134 441 q 59 513 75 484 q 43 576 43 542 q 52 622 43 600 q 78 663 60 644 q 124 696 96 682 q 189 718 151 710 q 86 765 119 730 q 54 848 54 800 q 69 903 54 878 q 112 948 84 929 q 180 979 140 968 q 268 990 219 990 q 360 979 320 990 q 427 948 399 968 q 467 903 454 929 q 481 848 481 878 q 475 807 481 827 q 454 769 469 787 q 415 739 439 752 q 353 718 390 725 q 415 696 389 710 q 459 663 441 682 q 485 622 476 644 q 493 576 493 600 m 376 840 q 368 880 376 863 q 345 908 359 897 q 311 925 331 920 q 269 930 292 930 q 227 924 247 930 q 193 907 208 918 q 170 878 178 895 q 161 840 161 861 q 170 803 161 819 q 193 774 178 786 q 227 756 208 762 q 269 750 247 750 q 311 756 292 750 q 345 774 331 762 q 368 803 359 786 q 376 840 376 819 m 387 582 q 378 625 387 606 q 353 656 369 644 q 316 676 338 669 q 269 682 294 682 q 221 676 243 682 q 183 656 199 669 q 158 625 167 644 q 149 582 149 606 q 159 537 149 556 q 186 506 169 518 q 224 487 203 493 q 268 481 245 481 q 312 487 290 481 q 350 506 333 493 q 377 537 367 519 q 387 582 387 556 z "},"":{"ha":562,"x_min":43,"x_max":505,"o":"m 505 715 q 487 576 505 633 q 437 484 469 519 q 359 432 404 448 q 261 416 315 416 q 182 427 218 416 q 121 456 146 437 q 82 498 96 474 q 68 551 68 523 l 179 551 q 183 526 179 539 q 196 501 186 512 q 221 483 205 490 q 261 476 237 476 q 311 484 289 476 q 349 512 332 491 q 377 571 366 533 q 396 669 389 608 q 337 632 375 648 q 243 616 300 616 q 175 626 210 616 q 110 656 140 635 q 62 711 81 677 q 43 796 43 745 q 62 883 43 846 q 115 943 82 920 q 190 979 148 967 q 278 990 233 990 q 364 978 323 990 q 436 935 405 966 q 487 851 468 904 q 505 715 505 798 m 393 802 q 384 850 393 827 q 358 890 374 873 q 320 917 342 907 q 273 926 298 926 q 227 917 248 926 q 189 890 205 907 q 163 850 172 873 q 154 802 154 827 q 163 752 154 775 q 189 712 172 729 q 227 685 205 694 q 273 675 248 675 q 320 685 298 675 q 358 712 342 694 q 384 752 374 729 q 393 802 393 775 z "},"":{"ha":1389,"x_min":278,"x_max":1111,"o":"m 581 248 l 428 94 l 372 150 l 469 248 l 278 248 l 278 334 l 555 334 l 722 500 l 278 500 l 278 586 l 808 586 l 961 739 l 1017 684 l 920 586 l 1111 586 l 1111 500 l 833 500 l 667 334 l 1111 334 l 1111 248 l 581 248 z "},"":{"ha":1389,"x_min":233,"x_max":1156,"o":"m 1156 419 q 1141 346 1156 381 q 1101 283 1126 311 q 1041 240 1076 256 q 968 224 1007 224 q 885 236 922 224 q 816 270 848 249 q 755 317 784 290 q 694 371 726 343 q 633 317 663 343 q 572 270 604 290 q 504 236 541 249 q 421 224 467 224 q 348 240 382 224 q 288 283 313 256 q 248 346 262 311 q 233 419 233 381 q 250 494 233 458 q 293 555 266 529 q 356 596 320 581 q 431 611 391 611 q 505 597 469 611 q 574 561 541 583 q 637 513 607 539 q 694 463 667 487 q 751 513 721 487 q 814 561 781 539 q 883 597 847 583 q 958 611 920 611 q 1033 596 998 611 q 1096 555 1069 581 q 1139 494 1123 529 q 1156 419 1156 458 m 1083 410 q 1074 459 1083 435 q 1047 500 1064 482 q 1008 529 1031 518 q 958 539 985 539 q 904 529 930 539 q 851 503 877 519 q 802 468 826 487 q 758 431 779 448 l 741 416 l 754 403 q 797 362 775 382 q 843 326 819 342 q 895 299 867 309 q 954 289 922 289 q 1002 298 979 289 q 1043 323 1025 307 q 1072 362 1061 340 q 1083 410 1083 384 m 647 416 l 630 431 q 585 468 609 448 q 536 503 562 487 q 484 529 511 519 q 429 539 456 539 q 380 529 403 539 q 340 500 357 518 q 314 459 323 482 q 304 410 304 435 q 316 362 304 384 q 345 323 327 340 q 387 298 363 307 q 435 289 410 289 q 493 299 466 289 q 544 326 520 309 q 590 362 568 342 q 633 403 612 382 l 647 416 z "},"":{"ha":1389,"x_min":278,"x_max":1111,"o":"m 278 427 l 278 513 l 1111 777 l 1111 690 l 367 469 l 1111 249 l 1111 163 l 278 427 m 278 0 l 278 77 l 1111 77 l 1111 0 l 278 0 z "},"":{"ha":1389,"x_min":278,"x_max":1111,"o":"m 278 163 l 278 249 l 1022 469 l 278 690 l 278 777 l 1111 513 l 1111 427 l 278 163 m 278 0 l 278 77 l 1111 77 l 1111 0 l 278 0 z "},"":{"ha":717,"x_min":39,"x_max":669,"o":"m 669 570 q 667 509 669 547 q 658 424 665 471 q 640 326 652 378 q 610 223 629 274 q 566 127 592 173 q 503 46 539 81 q 420 -10 467 11 q 314 -31 374 -31 q 199 -7 250 -31 q 113 54 149 17 q 58 137 77 92 q 39 227 39 182 q 54 355 39 300 q 94 450 69 410 q 149 515 118 490 q 212 556 180 541 q 274 577 244 571 q 325 583 303 583 q 381 578 357 583 q 429 562 406 574 q 480 532 453 551 q 543 485 507 513 q 555 570 553 530 q 558 653 557 611 l 558 659 q 541 756 558 710 q 495 837 524 802 q 431 891 467 871 q 355 911 394 911 q 310 908 328 911 q 275 900 292 905 q 239 885 258 894 q 193 864 220 876 l 136 936 q 172 950 152 943 q 216 964 193 958 q 266 974 240 970 q 319 978 292 978 q 448 954 393 978 q 542 891 503 929 q 606 806 581 853 q 645 714 631 759 q 664 630 659 669 q 669 570 669 591 m 532 433 q 507 462 520 446 q 475 492 493 478 q 432 516 456 507 q 374 526 407 526 q 308 512 338 526 q 255 473 279 498 q 215 417 232 449 q 186 351 197 386 q 169 281 174 316 q 163 214 163 245 q 164 179 163 199 q 170 136 165 159 q 183 92 174 114 q 208 52 193 69 q 245 23 223 34 q 300 12 268 12 q 366 30 336 12 q 419 78 395 47 q 461 149 443 108 q 493 237 479 190 q 516 334 507 283 q 532 433 526 384 z "},"":{"ha":852,"x_min":11,"x_max":812,"o":"m 786 0 l 11 0 l 489 479 l 11 956 l 777 956 l 808 700 l 785 700 q 755 779 777 741 q 701 845 733 817 q 627 892 668 874 q 543 909 587 909 l 279 909 q 256 903 264 909 q 248 887 248 897 q 258 865 248 876 l 612 513 l 225 125 l 669 125 q 746 159 715 125 q 786 258 777 193 l 812 258 l 786 0 z "},"":{"ha":1035,"x_min":21,"x_max":1014,"o":"m 587 0 l 587 21 q 635 25 610 21 q 681 39 660 28 q 715 66 702 49 q 729 111 729 84 l 729 827 q 717 873 729 856 q 686 899 705 890 q 643 910 667 908 q 595 913 619 913 l 440 913 q 392 910 416 913 q 349 899 368 908 q 318 873 330 890 q 306 827 306 856 l 306 111 q 319 65 306 83 q 354 38 333 47 q 399 24 374 28 q 447 21 424 21 l 447 0 l 21 0 l 21 21 q 69 24 44 21 q 115 37 94 28 q 149 65 136 47 q 163 111 163 83 l 163 827 q 153 877 163 856 q 124 910 142 897 q 80 929 106 923 q 21 935 54 935 l 21 956 l 1014 956 l 1014 935 q 956 929 982 935 q 910 910 929 923 q 881 877 892 897 q 871 827 871 856 l 871 111 q 885 66 871 84 q 920 39 899 49 q 966 25 941 28 q 1014 21 991 21 l 1014 0 l 587 0 z "},"":{"ha":825,"x_min":28,"x_max":798,"o":"m 798 211 q 785 111 798 154 q 751 40 772 68 q 701 -3 730 12 q 640 -17 673 -17 q 560 0 589 -17 q 515 44 530 18 q 495 102 499 71 q 490 164 490 134 l 490 557 l 301 557 l 301 239 q 290 138 301 184 q 256 57 278 91 q 201 3 233 22 q 126 -17 168 -17 q 77 0 96 -17 q 47 44 58 17 q 32 107 36 72 q 28 178 28 142 l 74 178 q 89 112 74 137 q 126 86 103 86 q 149 90 136 86 q 174 105 161 94 q 198 136 186 116 q 219 190 210 157 q 233 270 228 222 q 239 382 239 317 l 239 557 l 180 557 q 126 548 146 557 q 96 527 106 539 q 82 500 86 514 q 75 478 78 487 l 35 478 q 43 530 35 501 q 72 585 52 559 q 121 628 91 611 q 196 646 152 646 l 696 646 q 739 656 719 646 q 762 682 758 667 l 798 682 q 792 634 798 656 q 774 594 787 611 q 742 567 762 576 q 693 557 722 557 l 608 557 l 608 187 q 608 159 608 172 q 608 133 608 145 q 609 93 608 111 q 616 63 611 75 q 632 45 622 52 q 660 39 642 39 q 691 49 675 39 q 718 80 706 59 q 737 134 730 102 q 745 211 745 167 l 798 211 z "},"":{"ha":654,"x_min":41,"x_max":610,"o":"m 603 922 q 580 899 597 910 q 541 888 563 888 q 520 891 531 888 q 500 904 509 895 q 460 932 477 924 q 433 940 444 940 q 410 927 416 940 q 401 903 403 915 q 399 836 400 884 q 396 725 397 789 q 393 588 395 661 q 389 444 391 515 l 382 258 q 375 127 379 186 q 364 20 370 68 q 350 -66 358 -28 q 332 -132 342 -104 q 299 -199 319 -172 q 254 -244 279 -227 q 198 -269 229 -261 q 132 -277 168 -277 q 89 -270 106 -277 q 61 -251 71 -262 q 46 -227 50 -240 q 41 -201 41 -213 q 45 -179 41 -192 q 56 -156 48 -167 q 78 -137 64 -145 q 113 -130 92 -130 q 133 -133 123 -130 q 154 -146 144 -137 q 193 -174 178 -165 q 220 -182 209 -182 q 244 -170 237 -182 q 253 -146 252 -157 q 256 -79 254 -127 q 262 37 259 -31 q 269 185 265 104 q 275 351 272 266 l 281 507 q 291 688 284 609 q 310 825 298 766 q 340 923 322 884 q 382 988 357 963 q 440 1023 408 1013 q 515 1034 473 1034 q 562 1026 544 1034 q 591 1007 581 1019 q 606 983 602 996 q 610 958 610 970 q 603 922 610 941 z "},"":{"ha":1061,"x_min":47,"x_max":1014,"o":"m 1014 576 q 999 473 1014 521 q 958 385 984 425 q 898 313 932 345 q 823 260 863 282 q 741 226 783 239 q 656 211 698 214 l 656 125 l 872 125 q 901 130 885 125 q 932 146 918 135 q 956 175 946 157 q 965 220 965 193 l 994 220 l 994 0 l 604 0 l 604 244 q 711 293 663 262 q 792 366 758 324 q 844 460 826 408 q 863 575 863 513 q 839 710 863 644 q 771 827 815 776 q 667 910 728 879 q 530 942 606 942 q 394 910 455 942 q 289 827 332 879 q 222 710 245 776 q 199 575 199 644 q 217 460 199 513 q 269 366 235 408 q 350 293 302 324 q 457 244 398 262 l 457 0 l 66 0 l 66 220 l 96 220 q 105 175 96 193 q 130 146 115 157 q 160 130 144 135 q 189 125 176 125 l 406 125 l 406 211 q 279 241 342 215 q 163 314 215 267 q 80 426 112 360 q 47 576 47 492 q 80 741 47 667 q 175 868 113 815 q 327 949 237 920 q 530 978 417 978 q 734 949 644 978 q 886 868 823 920 q 981 741 948 815 q 1014 576 1014 667 z "},"":{"ha":799,"x_min":28,"x_max":799,"o":"m 729 930 l 478 0 l 436 0 l 136 591 l 50 549 l 28 590 l 191 672 l 461 143 l 688 972 l 799 972 l 799 930 l 729 930 z "},"":{"ha":1389,"x_min":278,"x_max":1111,"o":"m 1111 307 q 1076 279 1097 294 q 1029 251 1055 264 q 975 228 1004 237 q 914 216 945 218 q 893 215 903 216 q 874 215 884 215 q 822 218 844 215 q 778 228 799 222 q 734 242 756 234 q 682 261 711 251 q 573 293 621 283 q 488 303 526 303 q 426 296 454 303 q 374 274 399 288 q 326 241 349 260 q 278 197 303 222 l 278 293 q 307 321 291 306 q 348 349 323 336 q 406 372 372 362 q 490 386 441 382 q 503 387 496 387 q 515 387 509 387 q 584 380 550 387 q 650 362 618 372 q 712 340 682 352 q 768 321 742 329 q 892 300 838 300 q 955 307 926 300 q 1009 328 983 315 q 1060 361 1036 342 q 1111 403 1085 380 l 1111 307 m 1111 543 q 1076 515 1097 530 q 1029 487 1055 500 q 975 465 1004 474 q 914 453 945 455 q 892 452 903 452 l 871 452 q 820 455 842 452 q 777 464 798 458 q 734 478 756 470 q 682 497 711 487 q 573 529 621 519 q 488 539 526 539 q 426 532 454 539 q 374 510 399 524 q 326 477 349 496 q 278 433 303 458 l 278 529 q 307 557 291 542 q 348 585 323 572 q 406 608 372 598 q 490 623 441 618 q 501 623 496 623 l 513 623 q 582 616 548 623 q 649 598 616 608 q 712 576 682 588 q 768 557 742 565 q 892 536 838 536 q 955 543 926 536 q 1009 564 983 551 q 1060 597 1036 578 q 1111 639 1085 616 l 1111 543 z "},"":{"ha":888,"x_min":8,"x_max":882,"o":"m 8 0 l 472 997 l 882 0 l 8 0 m 421 736 l 113 78 l 693 78 l 421 736 z "},"":{"ha":681,"x_min":0,"x_max":681,"o":"m 150 -129 l 0 -129 l 530 932 l 681 932 l 150 -129 z "},"":{"ha":873,"x_min":40,"x_max":827,"o":"m 757 899 q 750 865 757 881 q 731 838 743 849 q 704 819 720 826 q 671 812 688 812 q 638 819 653 812 q 611 838 623 826 q 593 865 600 849 q 586 899 586 881 q 593 932 586 916 q 611 959 600 947 q 638 977 623 970 q 671 983 653 983 q 704 977 688 983 q 731 959 720 970 q 750 932 743 947 q 757 899 757 916 m 501 0 l 501 54 l 570 58 q 590 68 582 60 q 599 89 599 76 l 599 587 l 267 587 l 267 89 q 275 67 267 76 q 296 58 283 59 l 378 54 l 378 0 l 40 0 l 40 54 l 109 58 q 129 68 121 60 q 138 89 138 76 l 138 587 l 49 587 l 49 636 l 138 661 q 140 723 138 696 q 148 775 142 751 q 163 822 154 799 q 184 869 172 844 q 232 938 205 909 q 289 985 258 966 q 354 1014 320 1004 q 421 1023 387 1023 q 473 1017 450 1023 q 510 998 495 1010 q 533 972 526 987 q 541 940 541 957 q 532 905 541 919 q 512 883 524 891 q 491 870 501 874 q 476 865 480 866 q 465 874 475 867 q 441 891 455 881 q 411 911 427 901 q 382 932 395 922 q 359 948 368 942 q 349 956 349 955 q 319 932 334 947 q 293 892 304 918 q 274 832 281 867 q 267 747 267 796 l 267 659 l 567 659 l 671 685 l 728 685 l 728 89 q 736 68 728 76 q 757 58 745 60 l 827 54 l 827 0 l 501 0 z "},"":{"ha":865,"x_min":40,"x_max":828,"o":"m 492 0 l 492 54 l 566 58 q 586 68 575 58 q 596 87 596 78 l 596 914 l 536 914 q 525 895 532 903 q 510 881 518 886 q 494 872 502 876 q 481 867 486 869 q 480 867 481 867 q 479 866 479 866 q 476 865 477 865 q 465 874 475 867 q 441 891 455 881 q 411 911 427 901 q 382 932 395 922 q 359 948 368 942 q 349 956 349 955 q 319 932 334 947 q 293 892 304 918 q 274 832 281 867 q 267 747 267 796 l 267 659 l 439 659 l 439 587 l 267 587 l 267 89 q 275 67 267 76 q 296 58 283 59 l 378 54 l 378 0 l 40 0 l 40 54 l 109 58 q 129 68 121 60 q 138 89 138 76 l 138 587 l 49 587 l 49 636 l 138 661 q 140 723 138 696 q 148 775 142 751 q 163 822 154 799 q 184 869 172 844 q 232 938 205 909 q 289 985 258 966 q 354 1014 320 1004 q 421 1023 387 1023 q 493 1009 465 1023 q 532 974 520 996 l 668 1023 l 725 1023 l 725 87 q 735 68 725 78 q 754 58 745 58 l 828 54 l 828 0 l 492 0 z "},"":{"ha":414,"x_min":0,"x_max":414,"o":"m 414 971 q 401 898 414 935 q 362 831 388 861 q 297 783 336 802 q 207 765 258 765 q 116 783 155 765 q 52 831 77 802 q 13 898 26 861 q 0 971 0 935 l 54 971 q 75 920 60 941 q 111 885 90 899 q 157 865 132 871 q 207 859 181 859 q 257 865 233 859 q 302 885 281 871 q 337 920 322 899 q 358 971 352 941 l 414 971 z "},"":{"ha":155,"x_min":0,"x_max":155,"o":"m 155 890 q 149 860 155 874 q 133 835 143 846 q 108 819 122 825 q 78 812 94 812 q 47 819 62 812 q 23 835 33 825 q 6 860 12 846 q 0 890 0 874 q 6 921 0 907 q 23 947 12 936 q 47 964 33 958 q 78 970 62 970 q 108 964 94 970 q 133 947 122 958 q 149 921 143 936 q 155 890 155 907 z "},"":{"ha":593,"x_min":0,"x_max":593,"o":"m 593 956 q 584 923 593 937 q 561 900 575 909 l 350 765 l 271 765 l 457 981 q 486 1008 471 998 q 529 1018 501 1018 q 559 1012 547 1018 q 579 998 572 1006 q 590 978 587 989 q 593 956 593 966 m 322 956 q 313 923 322 937 q 289 900 304 909 l 79 765 l 0 765 l 184 981 q 200 997 193 989 q 215 1008 207 1004 q 234 1016 223 1013 q 258 1018 244 1018 q 288 1012 276 1018 q 308 998 300 1006 q 319 978 315 989 q 322 956 322 966 z "},"":{"ha":258,"x_min":0,"x_max":258,"o":"m 258 -227 q 214 -246 236 -238 q 175 -259 196 -254 q 139 -265 155 -265 q 37 -240 74 -265 q 0 -164 0 -214 q 10 -109 0 -135 q 34 -62 20 -83 q 66 -25 49 -41 q 97 1 83 -9 l 163 1 q 137 -21 151 -7 q 113 -50 124 -34 q 95 -86 102 -66 q 87 -127 87 -106 q 109 -179 87 -162 q 168 -196 130 -196 q 186 -192 176 -196 q 205 -184 196 -189 q 225 -171 215 -178 l 258 -227 z "},"":{"ha":517,"x_min":68,"x_max":449,"o":"m 449 507 q 434 433 449 467 q 393 373 419 399 q 333 333 368 347 q 258 318 298 318 q 184 333 218 318 q 123 373 149 347 q 83 433 98 399 q 68 507 68 467 q 83 581 68 547 q 123 642 98 616 q 184 682 149 667 q 258 697 218 697 q 333 682 298 697 q 393 642 368 667 q 434 581 419 616 q 449 507 449 547 z "},"":{"ha":1,"x_min":-817,"x_max":-363,"o":"m -446 1078 l -589 1215 l -734 1078 l -817 1078 l -642 1313 l -538 1313 l -363 1078 l -446 1078 z "},"":{"ha":1,"x_min":-821,"x_max":-355,"o":"m -821 1092 l -821 1180 l -355 1180 l -355 1092 l -821 1092 z "},"":{"ha":1,"x_min":-668,"x_max":-516,"o":"m -589 1219 q -536 1198 -556 1219 q -516 1144 -516 1177 q -536 1089 -516 1110 q -589 1068 -556 1068 q -646 1089 -623 1068 q -668 1144 -668 1110 q -661 1174 -668 1160 q -643 1198 -654 1188 q -618 1214 -632 1208 q -589 1219 -604 1219 z "},"":{"ha":1,"x_min":-754,"x_max":-385,"o":"m -675 1204 q -622 1184 -642 1204 q -602 1129 -602 1163 q -622 1075 -602 1096 q -675 1054 -642 1054 q -732 1075 -709 1054 q -754 1129 -754 1096 q -747 1160 -754 1146 q -729 1184 -741 1174 q -704 1199 -718 1194 q -675 1204 -690 1204 m -458 1219 q -405 1198 -425 1219 q -385 1144 -385 1177 q -405 1089 -385 1110 q -458 1068 -425 1068 q -515 1089 -492 1068 q -537 1144 -537 1110 q -530 1174 -537 1160 q -512 1198 -524 1188 q -487 1214 -501 1208 q -458 1219 -473 1219 z "},"":{"ha":1,"x_min":-814,"x_max":-221,"o":"m -221 1247 q -230 1215 -221 1228 q -253 1192 -239 1201 l -464 1057 l -543 1057 l -357 1272 q -328 1300 -342 1290 q -285 1310 -313 1310 q -254 1304 -267 1310 q -235 1289 -242 1298 q -224 1269 -227 1280 q -221 1247 -221 1258 m -492 1247 q -501 1215 -492 1228 q -525 1192 -510 1201 l -734 1057 l -814 1057 l -629 1272 q -614 1288 -621 1281 q -599 1300 -607 1295 q -580 1307 -591 1305 q -555 1310 -570 1310 q -526 1304 -538 1310 q -506 1289 -513 1298 q -495 1269 -498 1280 q -492 1247 -492 1258 z "},"":{"ha":1,"x_min":-817,"x_max":-362,"o":"m -537 1070 l -642 1070 l -817 1305 l -733 1305 l -589 1168 l -446 1305 l -362 1305 l -537 1070 z "},"":{"ha":1,"x_min":-971,"x_max":-378,"o":"m -456 1057 l -667 1192 q -691 1215 -682 1201 q -701 1247 -701 1228 q -697 1269 -701 1258 q -686 1289 -694 1280 q -666 1304 -678 1298 q -635 1310 -653 1310 q -610 1307 -621 1310 q -592 1300 -600 1305 q -577 1288 -584 1295 q -563 1272 -570 1281 l -378 1057 l -456 1057 m -728 1057 l -939 1192 q -962 1215 -953 1201 q -971 1247 -971 1228 q -968 1269 -971 1258 q -957 1289 -964 1280 q -937 1304 -949 1298 q -907 1310 -925 1310 q -882 1307 -892 1310 q -863 1300 -871 1305 q -848 1288 -855 1295 q -833 1272 -841 1281 l -649 1057 l -728 1057 z "},"":{"ha":1,"x_min":-804,"x_max":50,"o":"m -285 1082 q -305 1068 -292 1074 q -337 1056 -319 1061 q -375 1048 -355 1051 q -414 1045 -395 1045 q -444 1047 -430 1045 q -469 1054 -458 1049 l -469 1238 q -443 1232 -457 1234 q -412 1230 -428 1230 q -374 1232 -393 1230 q -338 1240 -355 1235 q -307 1251 -321 1244 q -285 1265 -293 1257 l -285 1082 m -620 1054 q -641 1040 -627 1046 q -672 1028 -654 1034 q -710 1020 -690 1023 q -750 1017 -730 1017 q -779 1019 -765 1017 q -804 1026 -793 1021 l -804 1210 q -778 1204 -792 1206 q -747 1202 -763 1202 q -709 1204 -728 1202 q -673 1212 -690 1207 q -642 1223 -656 1217 q -620 1238 -628 1230 l -620 1054 m 50 1110 q 30 1096 43 1103 q -2 1085 16 1090 q -40 1077 -20 1080 q -79 1074 -60 1074 q -109 1076 -95 1074 q -134 1082 -123 1078 l -134 1266 q -107 1260 -122 1262 q -77 1258 -93 1258 q -39 1261 -58 1258 q -3 1268 -20 1263 q 28 1279 14 1273 q 50 1294 42 1286 l 50 1110 z "},"":{"ha":1,"x_min":-466,"x_max":-281,"o":"m -281 1054 q -302 1040 -288 1046 q -334 1028 -316 1034 q -372 1020 -351 1023 q -412 1017 -392 1017 q -440 1019 -427 1017 q -466 1026 -454 1021 l -466 1210 q -439 1204 -454 1206 q -409 1202 -425 1202 q -371 1204 -390 1202 q -334 1212 -351 1207 q -303 1223 -317 1217 q -281 1238 -290 1230 l -281 1054 z "},"":{"ha":1,"x_min":-639,"x_max":-119,"o":"m -119 1082 q -140 1068 -126 1074 q -171 1056 -153 1061 q -209 1048 -189 1051 q -249 1045 -229 1045 q -278 1047 -264 1045 q -304 1054 -292 1049 l -304 1238 q -277 1232 -292 1234 q -247 1230 -262 1230 q -209 1232 -228 1230 q -172 1240 -189 1235 q -141 1251 -155 1244 q -119 1265 -127 1257 l -119 1082 m -454 1054 q -475 1040 -461 1046 q -507 1028 -489 1034 q -545 1020 -524 1023 q -585 1017 -565 1017 q -613 1019 -600 1017 q -639 1026 -627 1021 l -639 1210 q -612 1204 -627 1206 q -582 1202 -597 1202 q -544 1204 -563 1202 q -507 1212 -524 1207 q -476 1223 -490 1217 q -454 1238 -463 1230 l -454 1054 z "},"":{"ha":741,"x_min":65,"x_max":701,"o":"m 701 648 q 668 372 701 493 q 575 169 634 252 q 436 43 516 86 q 265 0 357 0 q 191 11 222 0 q 137 40 159 22 q 101 79 115 57 q 79 123 87 101 q 68 164 71 144 q 65 196 65 183 q 71 243 65 208 q 84 323 76 277 q 102 419 92 368 q 120 515 112 470 q 134 593 128 559 q 139 636 139 626 q 135 661 139 652 q 125 676 130 671 q 111 685 119 682 l 111 701 q 190 720 153 712 l 221 727 q 250 733 237 730 q 275 738 264 736 q 292 739 286 739 q 323 724 315 739 q 332 679 332 709 q 326 636 332 669 q 310 557 319 603 q 290 459 301 512 q 270 355 279 406 q 255 263 261 305 q 249 196 249 220 q 267 93 249 123 q 325 64 284 64 q 373 76 353 64 q 408 113 393 89 q 435 174 423 138 q 457 256 446 210 q 479 362 469 305 q 499 473 490 420 q 513 571 508 527 q 518 637 518 615 q 512 693 518 669 q 499 732 507 716 q 481 762 491 749 l 481 785 q 557 799 522 792 q 615 809 587 804 q 654 814 643 814 q 674 808 665 814 q 689 785 683 802 q 698 734 695 767 q 701 648 701 702 z "},"":{"ha":1083,"x_min":65,"x_max":1047,"o":"m 1047 376 q 1007 358 1033 365 q 945 352 981 352 q 890 358 915 352 q 847 378 865 363 q 819 419 829 393 q 808 485 809 445 l 693 465 q 675 385 687 427 q 647 301 663 342 q 614 224 632 260 q 579 167 597 189 q 507 93 545 125 q 429 41 469 62 q 347 10 388 20 q 265 0 305 0 q 191 9 222 0 q 137 33 159 18 q 101 67 115 48 q 79 105 87 86 q 68 142 71 124 q 65 172 65 159 q 68 205 65 182 q 77 261 72 229 q 89 332 82 293 q 103 410 96 370 q 117 487 110 449 q 129 557 123 526 q 137 611 134 589 q 140 641 140 633 q 138 664 140 656 q 133 676 136 672 q 125 682 130 680 q 115 684 120 683 l 113 685 l 113 702 q 191 717 155 710 l 222 722 q 252 727 238 725 q 276 731 265 730 q 293 732 287 732 q 325 719 316 732 q 334 675 334 706 q 330 647 334 668 q 320 596 326 626 q 307 530 315 566 q 291 454 299 493 l 275 375 q 262 300 268 336 q 253 236 256 265 q 249 189 249 208 q 267 86 249 116 q 325 57 284 57 q 376 79 353 57 q 418 139 399 102 q 451 224 437 176 q 477 323 466 272 q 496 425 488 374 q 509 518 504 476 q 516 591 513 560 q 518 631 518 621 q 513 700 518 675 q 500 737 507 724 q 484 756 493 752 l 484 779 q 559 793 524 786 q 618 803 590 798 q 657 808 646 808 q 677 799 668 808 q 694 772 687 791 q 705 725 701 754 q 709 654 709 696 q 707 585 709 618 q 701 520 705 551 l 1014 578 q 1009 543 1011 561 q 1006 509 1007 528 q 1004 473 1004 490 q 1013 411 1004 434 q 1047 376 1022 388 z "},"":{"ha":843,"x_min":56,"x_max":787,"o":"m 787 -32 q 756 -53 775 -44 q 714 -67 740 -61 q 650 -74 688 -74 q 558 -48 588 -74 q 528 28 528 -22 l 321 4 q 302 1 313 3 q 278 0 292 0 q 248 3 265 0 q 215 14 231 5 q 188 40 199 23 q 176 85 176 56 q 180 112 176 94 q 193 150 184 130 l 357 536 l 196 496 q 174 491 186 494 q 153 489 161 489 q 105 506 121 489 q 83 557 89 524 l 83 732 q 76 769 82 756 q 56 788 70 782 l 56 812 q 135 834 98 824 l 166 842 q 195 849 182 846 q 220 854 209 852 q 236 857 231 857 q 256 854 247 857 q 273 844 266 851 q 283 825 279 837 q 288 794 288 813 q 287 792 288 793 q 283 789 287 791 l 283 574 l 380 595 l 443 734 q 457 773 450 753 q 464 808 464 794 q 459 831 464 821 q 444 845 455 841 l 444 861 l 566 895 q 595 902 579 899 q 621 906 610 906 q 665 889 649 906 q 681 840 681 872 q 653 748 681 813 l 395 150 q 389 132 391 142 q 386 114 386 122 q 388 102 386 110 q 393 85 389 94 q 403 71 397 77 q 418 65 409 65 q 446 67 427 65 q 484 71 465 68 q 533 77 507 73 q 558 111 545 96 q 590 136 572 125 q 635 151 609 146 q 700 157 661 157 q 721 156 710 157 q 740 154 731 155 q 760 151 750 153 q 751 130 754 142 q 745 103 747 119 q 742 65 742 87 q 749 18 742 37 q 764 -12 755 0 q 787 -32 774 -24 z "},"":{"ha":694,"x_min":56,"x_max":657,"o":"m 657 785 q 656 763 657 777 q 652 732 655 749 q 645 698 650 715 q 632 665 640 681 l 371 140 q 364 117 367 132 q 361 93 361 102 q 368 65 361 79 q 389 43 374 52 l 389 21 l 245 4 q 227 1 237 3 q 203 0 216 0 q 176 2 187 0 q 156 11 164 5 q 144 28 149 17 q 140 57 140 39 q 142 68 140 61 q 147 84 144 76 q 153 98 150 92 l 157 109 l 351 503 l 203 466 q 181 461 193 463 q 160 458 168 458 q 108 479 128 458 q 87 542 87 500 q 90 569 87 550 q 95 611 92 589 q 99 652 97 633 q 102 678 102 671 q 100 702 102 690 q 93 724 98 713 q 79 741 87 734 q 56 752 70 749 l 56 776 q 135 798 98 788 l 166 806 q 195 813 182 810 q 220 818 209 816 q 236 820 231 820 q 258 816 247 820 q 277 804 269 812 q 291 782 286 796 q 296 748 296 768 q 291 692 296 716 q 280 645 286 669 q 269 595 274 622 q 264 532 264 569 l 378 559 l 393 589 q 439 694 423 654 q 454 759 454 734 q 449 789 454 774 q 428 816 444 804 l 428 831 l 539 861 q 568 866 553 864 q 595 869 584 868 q 625 862 613 869 q 644 843 637 855 q 654 817 651 831 q 657 785 657 802 z "},"":{"ha":786,"x_min":37,"x_max":737,"o":"m 737 245 q 714 173 737 201 q 644 122 690 145 q 598 103 623 111 q 551 89 574 96 q 504 77 527 83 q 461 65 481 72 q 412 46 439 58 q 355 25 384 35 q 298 7 326 15 q 249 0 270 0 q 219 3 236 0 q 185 14 201 5 q 158 40 170 23 q 147 85 147 56 q 148 98 147 90 q 151 117 149 106 q 156 139 153 127 q 164 160 159 150 l 336 517 l 179 475 q 157 471 170 473 q 136 469 144 469 q 72 536 74 469 l 65 723 q 58 760 64 747 q 37 779 52 772 l 37 802 q 117 824 80 814 l 148 832 q 177 839 163 836 q 202 844 191 842 q 218 846 213 846 q 252 836 239 846 q 266 794 266 825 l 266 787 q 265 780 266 783 l 265 552 l 357 574 l 425 724 q 439 764 434 743 q 446 798 445 785 q 441 822 446 812 q 427 836 437 831 l 427 850 l 547 886 q 576 893 561 890 q 603 897 592 897 q 647 880 631 897 q 663 830 663 863 q 657 793 663 817 q 635 738 651 770 l 427 325 q 468 335 445 330 q 516 346 492 341 q 566 354 541 351 q 611 357 591 357 q 705 330 672 357 q 737 245 737 303 m 546 227 q 545 248 546 238 q 538 266 543 258 q 523 279 533 274 q 494 283 512 283 q 471 281 484 283 q 445 275 458 279 q 419 267 432 271 q 395 257 406 262 l 355 175 q 349 157 351 167 q 347 139 347 147 q 357 113 347 124 q 393 102 368 102 q 443 109 416 102 q 492 132 469 117 q 530 171 515 147 q 546 227 546 194 z "},"":{"ha":768,"x_min":50,"x_max":729,"o":"m 729 559 q 721 402 729 472 q 695 278 712 333 q 653 181 678 223 q 595 109 628 140 q 528 60 564 80 q 450 26 491 39 q 367 6 410 13 q 281 0 323 0 q 211 9 239 0 q 164 32 182 18 q 135 65 145 47 q 120 102 125 83 q 114 139 115 121 q 113 170 113 157 l 113 178 q 114 194 113 182 q 118 224 115 207 q 124 263 121 242 q 130 306 127 284 q 149 416 138 356 l 50 399 q 64 477 57 438 q 78 548 72 515 q 88 603 84 580 q 92 635 92 627 q 87 660 92 650 q 77 675 83 669 q 64 684 71 681 l 64 700 q 142 718 106 710 l 174 725 q 203 731 189 728 q 227 735 216 734 q 244 737 238 737 q 276 723 268 737 q 285 677 285 708 q 282 654 285 671 q 275 612 279 637 q 264 556 270 587 q 252 490 258 525 l 355 511 q 326 357 338 419 q 308 255 315 294 q 297 195 300 216 q 294 165 294 174 q 376 65 294 65 q 449 110 417 65 q 503 249 481 155 q 521 348 514 298 q 531 440 528 397 q 536 520 535 484 q 538 578 538 555 q 536 639 538 610 q 530 692 534 669 q 518 731 526 715 q 501 753 511 747 l 501 775 q 578 795 543 786 q 636 809 608 802 q 676 815 665 815 q 704 795 693 815 q 720 741 714 776 q 727 660 726 707 q 729 559 729 613 z "},"":{"ha":962,"x_min":64,"x_max":961,"o":"m 961 730 q 943 662 961 695 q 891 604 926 629 q 808 563 857 578 q 695 547 758 547 q 670 548 683 547 q 644 550 658 549 l 624 326 q 593 204 618 263 q 525 100 569 145 q 416 27 480 55 q 265 0 351 0 q 191 11 222 0 q 137 41 159 22 q 101 85 115 60 q 80 135 87 109 q 69 188 72 161 q 66 236 66 214 q 69 279 66 248 q 76 349 72 309 q 85 432 80 388 q 94 514 90 475 q 100 581 98 552 q 103 621 103 610 q 90 668 103 652 q 64 688 77 684 l 64 704 q 142 726 106 716 q 174 733 158 730 q 203 740 189 737 q 227 745 216 743 q 244 747 238 747 q 277 731 268 747 q 286 685 286 715 q 283 639 286 675 q 275 553 280 603 q 265 445 271 503 q 255 332 260 387 q 247 232 250 277 q 244 163 244 187 q 251 113 244 133 q 270 79 258 92 q 298 61 282 66 q 330 56 313 56 q 399 98 372 56 q 433 220 426 140 q 448 375 441 302 q 453 439 450 406 q 458 501 456 471 q 463 555 461 530 q 467 597 465 581 q 470 641 469 623 q 472 665 472 659 q 465 716 472 697 q 450 745 458 735 q 428 762 440 758 l 428 785 q 593 821 519 804 q 656 834 625 827 q 713 846 688 841 q 757 856 739 852 q 781 860 775 859 l 804 865 q 825 868 814 866 q 844 869 836 869 q 886 863 865 869 q 923 841 907 857 q 950 798 940 825 q 961 730 961 771 m 768 718 q 765 744 768 732 q 755 766 762 757 q 737 782 748 776 q 711 787 726 787 q 690 784 699 787 q 674 771 681 781 q 663 741 668 761 q 656 686 659 721 l 647 591 l 650 591 q 703 603 680 591 q 740 632 725 614 q 761 672 754 650 q 768 718 768 695 z "},"":{"ha":1227,"x_min":37,"x_max":1226,"o":"m 1226 730 q 1208 662 1226 695 q 1157 604 1191 629 q 1073 563 1122 578 q 960 547 1023 547 q 936 548 948 547 q 909 550 923 549 l 889 326 q 859 204 883 263 q 790 100 834 145 q 681 27 745 55 q 530 0 616 0 q 456 11 488 0 q 402 41 425 22 q 367 85 380 60 q 345 135 353 109 q 334 188 337 161 q 332 236 332 214 q 333 269 332 246 q 338 322 335 292 q 345 387 341 352 q 353 456 349 422 l 277 445 q 255 349 273 387 q 211 288 237 311 q 154 256 184 265 q 96 246 124 246 q 62 249 78 246 q 37 259 46 252 q 49 271 43 263 q 61 291 56 278 q 70 321 66 303 q 74 364 74 339 q 70 404 74 386 q 62 435 66 422 q 52 465 58 451 l 358 507 q 365 578 362 547 q 368 621 368 609 q 355 668 368 652 q 329 688 342 684 l 329 704 q 408 726 371 716 q 439 733 423 730 q 468 740 454 737 q 492 745 481 743 q 509 747 503 747 q 542 731 533 747 q 551 685 551 715 q 548 639 551 675 q 541 553 545 603 q 530 445 536 503 q 520 332 525 387 q 512 232 515 277 q 509 163 509 187 q 516 113 509 133 q 535 79 524 92 q 563 61 547 66 q 595 56 578 56 q 664 98 637 56 q 699 220 691 140 q 713 375 706 302 q 718 439 715 406 q 724 501 721 471 q 728 555 726 530 q 732 597 730 581 q 735 641 734 623 q 737 665 737 659 q 730 716 737 697 q 715 745 723 735 q 693 762 705 758 l 693 785 q 859 821 784 804 q 922 834 890 827 q 979 846 953 841 q 1022 856 1004 852 q 1046 860 1040 859 l 1069 865 q 1090 868 1080 866 q 1109 869 1101 869 q 1151 863 1131 869 q 1188 841 1172 857 q 1216 798 1205 825 q 1226 730 1226 771 m 1034 718 q 1030 744 1034 732 q 1020 766 1027 757 q 1002 782 1013 776 q 977 787 991 787 q 955 784 964 787 q 940 771 946 781 q 928 741 933 761 q 921 686 924 721 l 912 591 l 915 591 q 968 603 945 591 q 1005 632 990 614 q 1026 672 1019 650 q 1034 718 1034 695 z "},"":{"ha":1227,"x_min":65,"x_max":1209,"o":"m 1209 385 q 1194 316 1209 343 q 1157 273 1179 289 q 1107 252 1134 258 q 1057 245 1080 245 q 1040 247 1050 245 q 1018 250 1029 248 q 996 254 1006 252 q 977 255 985 255 q 955 252 966 255 q 931 245 945 249 q 898 239 917 242 q 850 236 879 236 q 815 243 832 236 q 785 263 798 250 q 765 295 772 277 q 757 338 757 314 q 761 386 758 363 q 774 427 765 408 l 684 427 q 623 241 663 321 q 528 107 583 161 q 407 27 473 54 q 265 0 340 0 q 191 11 222 0 q 137 40 159 22 q 101 79 115 57 q 79 123 87 101 q 68 164 71 144 q 65 196 65 183 q 71 243 65 208 q 84 323 76 277 q 102 419 92 368 q 120 515 112 470 q 134 593 128 559 q 139 636 139 626 q 135 661 139 652 q 125 676 130 671 q 111 685 119 682 l 111 701 q 190 720 153 712 l 221 727 q 250 733 237 730 q 275 738 264 736 q 292 739 286 739 q 323 724 315 739 q 332 679 332 709 q 326 636 332 669 q 310 557 319 603 q 290 459 301 512 q 270 355 279 406 q 255 263 261 305 q 249 196 249 220 q 267 93 249 123 q 325 64 284 64 q 373 76 353 64 q 408 113 393 89 q 434 174 422 138 q 459 256 446 210 q 483 362 472 304 q 502 473 494 419 q 514 571 509 527 q 518 637 518 615 q 512 693 518 669 q 499 732 507 716 q 481 762 491 749 l 481 785 q 557 799 522 792 q 615 809 587 804 q 654 814 643 814 q 674 808 665 814 q 690 785 684 802 q 700 734 696 767 q 704 648 704 702 q 701 562 704 604 q 693 481 699 519 l 808 481 q 831 498 819 491 q 854 509 843 505 q 878 513 864 511 q 907 515 892 514 q 936 516 922 516 q 958 518 949 517 q 998 524 976 520 q 1043 528 1020 528 q 1095 521 1066 528 q 1149 498 1124 515 q 1192 455 1175 482 q 1209 385 1209 427 m 1029 414 q 1018 459 1029 442 q 992 476 1006 476 q 963 469 975 476 q 944 450 951 462 q 934 422 937 438 q 931 388 931 406 q 935 341 931 358 q 944 314 939 323 q 958 302 950 305 q 972 300 965 300 q 1004 311 992 300 q 1021 339 1015 322 q 1028 376 1027 356 q 1029 414 1029 396 z "},"":{"ha":1324,"x_min":65,"x_max":1310,"o":"m 1310 300 q 1278 279 1296 288 q 1238 265 1262 271 q 1184 258 1215 258 q 1130 265 1154 258 q 1090 289 1107 271 q 1061 336 1073 306 q 1042 414 1050 366 q 956 401 994 406 q 922 396 939 398 q 892 392 906 393 q 869 389 879 390 q 857 388 859 388 q 829 391 840 388 q 810 405 817 394 q 798 436 802 415 q 791 493 793 457 l 688 479 q 675 393 685 438 q 651 305 665 348 q 619 225 637 262 q 582 164 601 189 q 510 91 549 122 q 430 40 471 60 q 347 10 389 20 q 265 0 304 0 q 191 11 222 0 q 137 41 159 22 q 101 81 115 59 q 79 126 87 104 q 68 168 71 148 q 65 200 65 187 q 68 231 65 210 q 77 282 72 253 q 90 347 83 312 q 104 418 96 382 q 118 489 111 454 q 130 552 125 524 q 139 602 136 581 q 142 630 142 623 q 140 653 142 645 q 135 666 138 662 q 127 671 132 670 q 117 674 122 673 l 115 675 l 115 692 q 189 715 155 705 q 218 725 203 720 q 246 732 233 729 q 269 738 259 736 q 286 740 279 740 q 317 727 309 740 q 326 683 326 713 q 320 612 326 653 q 306 524 315 570 q 288 428 298 477 q 269 334 277 378 q 255 251 260 289 q 249 189 249 214 q 267 82 249 115 q 325 49 284 49 q 375 71 353 49 q 416 131 398 94 q 447 216 433 168 q 471 316 460 264 q 487 417 481 367 q 498 510 494 468 q 504 583 502 553 q 505 624 505 614 q 504 678 505 657 q 497 711 502 699 q 486 729 493 724 q 467 738 478 735 l 467 760 q 545 780 509 771 q 575 787 559 784 q 604 794 591 791 q 628 799 618 797 q 644 800 639 800 q 665 792 655 800 q 681 765 674 783 q 691 718 688 747 q 695 647 695 688 q 694 588 695 616 q 692 532 694 559 l 790 543 l 790 606 q 789 625 790 613 q 787 648 789 637 q 785 675 786 661 l 983 693 q 979 657 981 677 q 977 616 978 640 q 976 564 976 593 q 979 524 976 543 q 985 490 981 505 q 994 458 989 473 l 1234 490 l 1234 483 q 1241 428 1234 456 q 1258 374 1247 399 q 1282 329 1268 349 q 1310 300 1295 309 z "},"":{"ha":1100,"x_min":61,"x_max":1050,"o":"m 1050 -102 q 1031 -114 1044 -107 q 1001 -125 1018 -120 q 963 -135 983 -131 q 924 -139 943 -139 q 865 -130 896 -139 q 808 -100 835 -121 q 763 -48 782 -80 q 742 29 745 -16 l 306 -1 l 306 -9 q 290 -77 306 -45 q 245 -134 273 -109 q 177 -172 216 -158 q 94 -186 138 -186 q 61 -184 77 -186 q 75 -150 68 -172 q 87 -104 81 -128 q 96 -56 93 -79 q 100 -16 100 -32 q 98 1 100 -8 q 95 19 96 11 q 90 37 92 28 l 404 58 q 382 113 382 75 q 384 125 382 117 q 388 140 386 132 q 394 154 391 147 q 399 164 397 161 l 574 508 l 430 481 l 428 481 q 407 477 418 479 q 387 475 396 475 q 351 478 366 475 q 327 492 336 482 q 314 516 318 501 q 309 555 309 532 q 310 574 309 561 q 312 603 311 587 q 315 638 313 620 q 317 673 316 656 q 319 702 319 690 q 320 720 320 715 q 319 743 320 732 q 316 765 319 755 q 310 782 314 774 q 299 792 306 789 l 299 815 q 378 823 342 820 q 410 826 394 825 q 439 829 425 828 q 464 831 453 831 q 480 832 475 832 q 512 822 502 832 q 522 779 522 811 q 518 743 522 766 q 511 694 515 719 q 504 646 507 669 q 500 614 500 624 q 504 585 500 595 q 512 569 507 574 q 524 562 517 564 q 541 561 532 561 q 572 563 553 561 q 610 568 591 564 l 659 639 q 687 691 677 669 q 703 727 697 712 q 709 753 708 743 q 711 771 711 763 q 707 797 711 781 q 688 825 704 812 l 688 852 l 857 852 q 912 836 894 852 q 930 789 930 819 q 925 764 930 780 q 911 730 920 749 q 894 693 903 712 q 876 659 884 673 l 596 161 q 588 138 591 153 q 586 114 586 123 q 590 91 586 102 q 604 71 595 79 l 943 93 q 956 31 946 62 q 981 -29 966 -1 q 1014 -76 996 -56 q 1050 -102 1032 -96 z "}}}
